G04 EAGLE Gerber RS-274X export*
G75*
%MOMM*%
%FSLAX34Y34*%
%LPD*%
%INEAGLE Copper Layer 15*%
%IPPOS*%
%AMOC8*
5,1,8,0,0,1.08239X$1,22.5*%
G01*
%ADD10C,1.524000*%
%ADD11C,0.956400*%
%ADD12C,1.206400*%

G36*
X67926Y10938D02*
X67926Y10938D01*
X68045Y10945D01*
X68083Y10958D01*
X68124Y10963D01*
X68234Y11006D01*
X68347Y11043D01*
X68382Y11065D01*
X68419Y11080D01*
X68515Y11149D01*
X68616Y11213D01*
X68644Y11243D01*
X68677Y11266D01*
X68753Y11358D01*
X68834Y11445D01*
X68854Y11480D01*
X68879Y11511D01*
X68930Y11619D01*
X68988Y11723D01*
X68998Y11763D01*
X69015Y11799D01*
X69037Y11916D01*
X69067Y12031D01*
X69071Y12091D01*
X69075Y12111D01*
X69073Y12132D01*
X69077Y12192D01*
X69077Y235983D01*
X70740Y239997D01*
X73731Y242989D01*
X73817Y243098D01*
X73905Y243205D01*
X73914Y243224D01*
X73926Y243240D01*
X73982Y243368D01*
X74041Y243493D01*
X74045Y243513D01*
X74053Y243532D01*
X74075Y243670D01*
X74101Y243806D01*
X74099Y243826D01*
X74103Y243846D01*
X74090Y243985D01*
X74081Y244123D01*
X74075Y244142D01*
X74073Y244162D01*
X74026Y244294D01*
X73983Y244425D01*
X73972Y244443D01*
X73965Y244462D01*
X73887Y244577D01*
X73813Y244694D01*
X73798Y244708D01*
X73787Y244725D01*
X73682Y244817D01*
X73581Y244912D01*
X73563Y244922D01*
X73548Y244935D01*
X73424Y244999D01*
X73303Y245066D01*
X73283Y245071D01*
X73265Y245080D01*
X73129Y245110D01*
X72995Y245145D01*
X72967Y245147D01*
X72955Y245150D01*
X72934Y245149D01*
X72834Y245155D01*
X72181Y245155D01*
X68820Y246547D01*
X66247Y249120D01*
X64855Y252481D01*
X64855Y256119D01*
X66247Y259480D01*
X68820Y262053D01*
X72181Y263445D01*
X75819Y263445D01*
X79180Y262053D01*
X81753Y259480D01*
X83145Y256119D01*
X83145Y252481D01*
X81753Y249120D01*
X79532Y246899D01*
X79447Y246790D01*
X79358Y246683D01*
X79350Y246664D01*
X79337Y246648D01*
X79282Y246520D01*
X79223Y246395D01*
X79219Y246375D01*
X79211Y246356D01*
X79189Y246218D01*
X79163Y246082D01*
X79164Y246062D01*
X79161Y246042D01*
X79174Y245903D01*
X79183Y245765D01*
X79189Y245746D01*
X79191Y245726D01*
X79238Y245594D01*
X79281Y245463D01*
X79291Y245445D01*
X79298Y245426D01*
X79376Y245311D01*
X79451Y245194D01*
X79466Y245180D01*
X79477Y245163D01*
X79581Y245071D01*
X79682Y244976D01*
X79700Y244966D01*
X79715Y244953D01*
X79839Y244889D01*
X79961Y244822D01*
X79980Y244817D01*
X79999Y244808D01*
X80134Y244778D01*
X80269Y244743D01*
X80297Y244741D01*
X80309Y244738D01*
X80329Y244739D01*
X80430Y244733D01*
X87808Y244733D01*
X87926Y244748D01*
X88045Y244755D01*
X88083Y244768D01*
X88124Y244773D01*
X88234Y244816D01*
X88347Y244853D01*
X88382Y244875D01*
X88419Y244890D01*
X88515Y244959D01*
X88616Y245023D01*
X88644Y245053D01*
X88677Y245076D01*
X88753Y245168D01*
X88834Y245255D01*
X88854Y245290D01*
X88879Y245321D01*
X88930Y245429D01*
X88988Y245533D01*
X88998Y245573D01*
X89015Y245609D01*
X89037Y245726D01*
X89067Y245841D01*
X89071Y245901D01*
X89075Y245921D01*
X89073Y245942D01*
X89077Y246002D01*
X89077Y287808D01*
X89062Y287926D01*
X89055Y288045D01*
X89042Y288083D01*
X89037Y288124D01*
X88994Y288234D01*
X88957Y288347D01*
X88935Y288382D01*
X88920Y288419D01*
X88851Y288515D01*
X88787Y288616D01*
X88757Y288644D01*
X88734Y288677D01*
X88642Y288753D01*
X88555Y288834D01*
X88520Y288854D01*
X88489Y288879D01*
X88381Y288930D01*
X88277Y288988D01*
X88237Y288998D01*
X88201Y289015D01*
X88084Y289037D01*
X87969Y289067D01*
X87909Y289071D01*
X87889Y289075D01*
X87868Y289073D01*
X87808Y289077D01*
X80620Y289077D01*
X80482Y289060D01*
X80343Y289047D01*
X80324Y289040D01*
X80304Y289037D01*
X80175Y288986D01*
X80044Y288939D01*
X80027Y288928D01*
X80008Y288920D01*
X79896Y288839D01*
X79781Y288761D01*
X79767Y288745D01*
X79751Y288734D01*
X79662Y288626D01*
X79570Y288522D01*
X79561Y288504D01*
X79548Y288489D01*
X79489Y288363D01*
X79426Y288239D01*
X79421Y288219D01*
X79413Y288201D01*
X79387Y288065D01*
X79356Y287929D01*
X79357Y287908D01*
X79353Y287889D01*
X79361Y287750D01*
X79366Y287611D01*
X79371Y287591D01*
X79373Y287571D01*
X79415Y287439D01*
X79454Y287305D01*
X79464Y287288D01*
X79471Y287269D01*
X79545Y287151D01*
X79616Y287031D01*
X79634Y287010D01*
X79641Y287000D01*
X79656Y286986D01*
X79722Y286911D01*
X81753Y284880D01*
X83145Y281519D01*
X83145Y277881D01*
X81753Y274520D01*
X79180Y271947D01*
X75819Y270555D01*
X72181Y270555D01*
X68820Y271947D01*
X66247Y274520D01*
X64855Y277881D01*
X64855Y281519D01*
X66247Y284880D01*
X68820Y287453D01*
X72181Y288845D01*
X72644Y288845D01*
X72781Y288862D01*
X72920Y288875D01*
X72939Y288882D01*
X72960Y288885D01*
X73088Y288936D01*
X73220Y288983D01*
X73236Y288994D01*
X73255Y289002D01*
X73368Y289083D01*
X73483Y289161D01*
X73496Y289177D01*
X73513Y289188D01*
X73601Y289296D01*
X73693Y289400D01*
X73702Y289418D01*
X73715Y289433D01*
X73775Y289559D01*
X73838Y289683D01*
X73842Y289703D01*
X73851Y289721D01*
X73877Y289857D01*
X73907Y289993D01*
X73907Y290014D01*
X73911Y290033D01*
X73902Y290172D01*
X73898Y290311D01*
X73892Y290331D01*
X73891Y290351D01*
X73848Y290483D01*
X73809Y290617D01*
X73799Y290634D01*
X73793Y290653D01*
X73718Y290771D01*
X73648Y290891D01*
X73629Y290912D01*
X73623Y290922D01*
X73608Y290936D01*
X73541Y291011D01*
X70740Y293813D01*
X69077Y297827D01*
X69077Y749808D01*
X69062Y749926D01*
X69055Y750045D01*
X69042Y750083D01*
X69037Y750124D01*
X68994Y750234D01*
X68957Y750347D01*
X68935Y750382D01*
X68920Y750419D01*
X68851Y750515D01*
X68787Y750616D01*
X68757Y750644D01*
X68734Y750677D01*
X68642Y750753D01*
X68555Y750834D01*
X68520Y750854D01*
X68489Y750879D01*
X68381Y750930D01*
X68277Y750988D01*
X68237Y750998D01*
X68201Y751015D01*
X68084Y751037D01*
X67969Y751067D01*
X67909Y751071D01*
X67889Y751075D01*
X67868Y751073D01*
X67808Y751077D01*
X12192Y751077D01*
X12074Y751062D01*
X11955Y751055D01*
X11917Y751042D01*
X11876Y751037D01*
X11766Y750994D01*
X11653Y750957D01*
X11618Y750935D01*
X11581Y750920D01*
X11485Y750851D01*
X11384Y750787D01*
X11356Y750757D01*
X11323Y750734D01*
X11247Y750642D01*
X11166Y750555D01*
X11146Y750520D01*
X11121Y750489D01*
X11070Y750381D01*
X11012Y750277D01*
X11002Y750237D01*
X10985Y750201D01*
X10963Y750084D01*
X10933Y749969D01*
X10929Y749909D01*
X10925Y749889D01*
X10927Y749868D01*
X10923Y749808D01*
X10923Y299097D01*
X9260Y295083D01*
X6187Y292010D01*
X3123Y290741D01*
X3045Y290697D01*
X2963Y290661D01*
X2908Y290618D01*
X2847Y290583D01*
X2783Y290521D01*
X2712Y290466D01*
X2669Y290411D01*
X2618Y290362D01*
X2572Y290286D01*
X2517Y290215D01*
X2489Y290151D01*
X2452Y290091D01*
X2426Y290005D01*
X2390Y289923D01*
X2379Y289854D01*
X2359Y289787D01*
X2354Y289698D01*
X2340Y289609D01*
X2347Y289539D01*
X2344Y289469D01*
X2362Y289382D01*
X2370Y289293D01*
X2394Y289227D01*
X2408Y289158D01*
X2447Y289077D01*
X2477Y288993D01*
X2517Y288935D01*
X2548Y288872D01*
X2606Y288804D01*
X2656Y288730D01*
X2708Y288684D01*
X2754Y288630D01*
X2827Y288579D01*
X2894Y288519D01*
X3002Y288456D01*
X3014Y288447D01*
X3020Y288445D01*
X3033Y288437D01*
X3125Y288390D01*
X4419Y287450D01*
X5550Y286319D01*
X6490Y285025D01*
X7216Y283600D01*
X7659Y282239D01*
X-930Y282239D01*
X-1048Y282224D01*
X-1167Y282217D01*
X-1205Y282204D01*
X-1245Y282199D01*
X-1356Y282156D01*
X-1469Y282119D01*
X-1503Y282097D01*
X-1541Y282082D01*
X-1637Y282012D01*
X-1738Y281949D01*
X-1766Y281919D01*
X-1798Y281895D01*
X-1874Y281804D01*
X-1956Y281717D01*
X-1975Y281682D01*
X-2001Y281651D01*
X-2052Y281543D01*
X-2109Y281439D01*
X-2120Y281399D01*
X-2137Y281363D01*
X-2159Y281246D01*
X-2189Y281131D01*
X-2193Y281070D01*
X-2197Y281050D01*
X-2195Y281030D01*
X-2199Y280970D01*
X-2199Y279699D01*
X-3470Y279699D01*
X-3588Y279684D01*
X-3707Y279677D01*
X-3745Y279664D01*
X-3785Y279659D01*
X-3896Y279615D01*
X-4009Y279579D01*
X-4044Y279557D01*
X-4081Y279542D01*
X-4177Y279472D01*
X-4278Y279409D01*
X-4306Y279379D01*
X-4339Y279355D01*
X-4414Y279264D01*
X-4496Y279177D01*
X-4516Y279142D01*
X-4541Y279110D01*
X-4592Y279003D01*
X-4650Y278898D01*
X-4660Y278859D01*
X-4677Y278823D01*
X-4699Y278706D01*
X-4729Y278591D01*
X-4733Y278530D01*
X-4737Y278510D01*
X-4735Y278490D01*
X-4739Y278430D01*
X-4739Y269841D01*
X-6100Y270284D01*
X-7525Y271010D01*
X-8819Y271950D01*
X-9950Y273081D01*
X-10890Y274375D01*
X-11597Y275762D01*
X-11608Y275778D01*
X-11616Y275797D01*
X-11697Y275910D01*
X-11776Y276025D01*
X-11791Y276038D01*
X-11802Y276054D01*
X-11910Y276143D01*
X-12014Y276235D01*
X-12032Y276244D01*
X-12047Y276257D01*
X-12173Y276316D01*
X-12298Y276380D01*
X-12317Y276384D01*
X-12335Y276393D01*
X-12472Y276419D01*
X-12608Y276449D01*
X-12628Y276449D01*
X-12648Y276452D01*
X-12787Y276444D01*
X-12926Y276439D01*
X-12945Y276434D01*
X-12965Y276433D01*
X-13097Y276390D01*
X-13231Y276351D01*
X-13249Y276341D01*
X-13267Y276335D01*
X-13385Y276260D01*
X-13505Y276189D01*
X-13519Y276175D01*
X-13536Y276164D01*
X-13632Y276063D01*
X-13730Y275965D01*
X-13740Y275947D01*
X-13754Y275933D01*
X-13821Y275811D01*
X-13892Y275691D01*
X-13898Y275672D01*
X-13908Y275654D01*
X-13942Y275520D01*
X-13981Y275386D01*
X-13982Y275366D01*
X-13987Y275346D01*
X-13997Y275186D01*
X-13997Y246002D01*
X-13982Y245884D01*
X-13975Y245765D01*
X-13962Y245727D01*
X-13957Y245686D01*
X-13914Y245576D01*
X-13877Y245463D01*
X-13855Y245428D01*
X-13840Y245391D01*
X-13771Y245295D01*
X-13707Y245194D01*
X-13677Y245166D01*
X-13654Y245133D01*
X-13562Y245057D01*
X-13475Y244976D01*
X-13440Y244956D01*
X-13409Y244931D01*
X-13301Y244880D01*
X-13197Y244822D01*
X-13157Y244812D01*
X-13121Y244795D01*
X-13004Y244773D01*
X-12889Y244743D01*
X-12829Y244739D01*
X-12809Y244735D01*
X-12788Y244737D01*
X-12728Y244733D01*
X-8630Y244733D01*
X-8492Y244750D01*
X-8353Y244763D01*
X-8334Y244770D01*
X-8314Y244773D01*
X-8185Y244824D01*
X-8054Y244871D01*
X-8037Y244882D01*
X-8018Y244890D01*
X-7906Y244971D01*
X-7791Y245049D01*
X-7777Y245065D01*
X-7761Y245076D01*
X-7672Y245184D01*
X-7580Y245288D01*
X-7571Y245306D01*
X-7558Y245321D01*
X-7499Y245447D01*
X-7436Y245571D01*
X-7431Y245591D01*
X-7423Y245609D01*
X-7397Y245745D01*
X-7366Y245881D01*
X-7367Y245902D01*
X-7363Y245921D01*
X-7371Y246060D01*
X-7376Y246199D01*
X-7381Y246219D01*
X-7383Y246239D01*
X-7425Y246371D01*
X-7464Y246505D01*
X-7474Y246522D01*
X-7481Y246541D01*
X-7555Y246659D01*
X-7626Y246779D01*
X-7644Y246800D01*
X-7651Y246810D01*
X-7666Y246824D01*
X-7732Y246899D01*
X-9953Y249120D01*
X-11345Y252481D01*
X-11345Y256119D01*
X-9953Y259480D01*
X-7380Y262053D01*
X-4019Y263445D01*
X-381Y263445D01*
X2980Y262053D01*
X5553Y259480D01*
X6945Y256119D01*
X6945Y252481D01*
X5553Y249120D01*
X2804Y246371D01*
X2773Y246332D01*
X2736Y246298D01*
X2676Y246207D01*
X2609Y246120D01*
X2589Y246074D01*
X2562Y246033D01*
X2526Y245929D01*
X2482Y245828D01*
X2474Y245779D01*
X2458Y245732D01*
X2450Y245622D01*
X2432Y245514D01*
X2437Y245464D01*
X2433Y245415D01*
X2452Y245306D01*
X2462Y245197D01*
X2479Y245150D01*
X2488Y245101D01*
X2533Y245001D01*
X2570Y244898D01*
X2598Y244857D01*
X2618Y244811D01*
X2687Y244726D01*
X2748Y244635D01*
X2786Y244602D01*
X2817Y244563D01*
X2905Y244497D01*
X2987Y244424D01*
X3031Y244402D01*
X3071Y244372D01*
X3215Y244301D01*
X6187Y243070D01*
X9260Y239997D01*
X10923Y235983D01*
X10923Y12192D01*
X10938Y12074D01*
X10945Y11955D01*
X10958Y11917D01*
X10963Y11876D01*
X11006Y11766D01*
X11043Y11653D01*
X11065Y11618D01*
X11080Y11581D01*
X11149Y11485D01*
X11213Y11384D01*
X11243Y11356D01*
X11266Y11323D01*
X11358Y11247D01*
X11445Y11166D01*
X11480Y11146D01*
X11511Y11121D01*
X11619Y11070D01*
X11723Y11012D01*
X11763Y11002D01*
X11799Y10985D01*
X11916Y10963D01*
X12031Y10933D01*
X12091Y10929D01*
X12111Y10925D01*
X12132Y10927D01*
X12192Y10923D01*
X67808Y10923D01*
X67926Y10938D01*
G37*
%LPC*%
G36*
X46781Y270555D02*
X46781Y270555D01*
X43420Y271947D01*
X40847Y274520D01*
X39455Y277881D01*
X39455Y281519D01*
X40847Y284880D01*
X43420Y287453D01*
X46781Y288845D01*
X50419Y288845D01*
X53780Y287453D01*
X56353Y284880D01*
X57745Y281519D01*
X57745Y277881D01*
X56353Y274520D01*
X53780Y271947D01*
X50419Y270555D01*
X46781Y270555D01*
G37*
%LPD*%
%LPC*%
G36*
X21381Y270555D02*
X21381Y270555D01*
X18020Y271947D01*
X15447Y274520D01*
X14055Y277881D01*
X14055Y281519D01*
X15447Y284880D01*
X18020Y287453D01*
X21381Y288845D01*
X25019Y288845D01*
X28380Y287453D01*
X30953Y284880D01*
X32345Y281519D01*
X32345Y277881D01*
X30953Y274520D01*
X28380Y271947D01*
X25019Y270555D01*
X21381Y270555D01*
G37*
%LPD*%
%LPC*%
G36*
X46781Y245155D02*
X46781Y245155D01*
X43420Y246547D01*
X40847Y249120D01*
X39455Y252481D01*
X39455Y256119D01*
X40847Y259480D01*
X43420Y262053D01*
X46781Y263445D01*
X50419Y263445D01*
X53780Y262053D01*
X56353Y259480D01*
X57745Y256119D01*
X57745Y252481D01*
X56353Y249120D01*
X53780Y246547D01*
X50419Y245155D01*
X46781Y245155D01*
G37*
%LPD*%
%LPC*%
G36*
X21381Y245155D02*
X21381Y245155D01*
X18020Y246547D01*
X15447Y249120D01*
X14055Y252481D01*
X14055Y256119D01*
X15447Y259480D01*
X18020Y262053D01*
X21381Y263445D01*
X25019Y263445D01*
X28380Y262053D01*
X30953Y259480D01*
X32345Y256119D01*
X32345Y252481D01*
X30953Y249120D01*
X28380Y246547D01*
X25019Y245155D01*
X21381Y245155D01*
G37*
%LPD*%
%LPC*%
G36*
X34057Y457263D02*
X34057Y457263D01*
X31279Y458414D01*
X29154Y460539D01*
X28003Y463317D01*
X28003Y466323D01*
X29154Y469101D01*
X31279Y471226D01*
X34057Y472377D01*
X37063Y472377D01*
X39841Y471226D01*
X41966Y469101D01*
X43117Y466323D01*
X43117Y463317D01*
X41966Y460539D01*
X39841Y458414D01*
X37063Y457263D01*
X34057Y457263D01*
G37*
%LPD*%
%LPC*%
G36*
X49545Y628693D02*
X49545Y628693D01*
X47228Y629653D01*
X45453Y631428D01*
X44493Y633745D01*
X44493Y636255D01*
X45453Y638572D01*
X47228Y640347D01*
X49545Y641307D01*
X52055Y641307D01*
X54372Y640347D01*
X56147Y638572D01*
X57107Y636255D01*
X57107Y633745D01*
X56147Y631428D01*
X54372Y629653D01*
X52055Y628693D01*
X49545Y628693D01*
G37*
%LPD*%
%LPC*%
G36*
X24145Y514393D02*
X24145Y514393D01*
X21828Y515353D01*
X20053Y517128D01*
X19093Y519445D01*
X19093Y521955D01*
X20053Y524272D01*
X21828Y526047D01*
X24145Y527007D01*
X26655Y527007D01*
X28972Y526047D01*
X30747Y524272D01*
X31707Y521955D01*
X31707Y519445D01*
X30747Y517128D01*
X28972Y515353D01*
X26655Y514393D01*
X24145Y514393D01*
G37*
%LPD*%
%LPC*%
G36*
X54625Y361993D02*
X54625Y361993D01*
X52308Y362953D01*
X50533Y364728D01*
X49573Y367045D01*
X49573Y369555D01*
X50533Y371872D01*
X52308Y373647D01*
X54625Y374607D01*
X57135Y374607D01*
X59452Y373647D01*
X61227Y371872D01*
X62187Y369555D01*
X62187Y367045D01*
X61227Y364728D01*
X59452Y362953D01*
X57135Y361993D01*
X54625Y361993D01*
G37*
%LPD*%
%LPC*%
G36*
X49545Y209593D02*
X49545Y209593D01*
X47228Y210553D01*
X45453Y212328D01*
X44493Y214645D01*
X44493Y217155D01*
X45453Y219472D01*
X47228Y221247D01*
X49545Y222207D01*
X52055Y222207D01*
X54372Y221247D01*
X56147Y219472D01*
X57107Y217155D01*
X57107Y214645D01*
X56147Y212328D01*
X54372Y210553D01*
X52055Y209593D01*
X49545Y209593D01*
G37*
%LPD*%
%LPC*%
G36*
X19065Y168953D02*
X19065Y168953D01*
X16748Y169913D01*
X14973Y171688D01*
X14013Y174005D01*
X14013Y176515D01*
X14973Y178832D01*
X16748Y180607D01*
X19065Y181567D01*
X21575Y181567D01*
X23892Y180607D01*
X25667Y178832D01*
X26627Y176515D01*
X26627Y174005D01*
X25667Y171688D01*
X23892Y169913D01*
X21575Y168953D01*
X19065Y168953D01*
G37*
%LPD*%
%LPC*%
G36*
X49545Y82593D02*
X49545Y82593D01*
X47228Y83553D01*
X45453Y85328D01*
X44493Y87645D01*
X44493Y90155D01*
X45453Y92472D01*
X47228Y94247D01*
X49545Y95207D01*
X52055Y95207D01*
X54372Y94247D01*
X56147Y92472D01*
X57107Y90155D01*
X57107Y87645D01*
X56147Y85328D01*
X54372Y83553D01*
X52055Y82593D01*
X49545Y82593D01*
G37*
%LPD*%
%LPC*%
G36*
X24145Y82593D02*
X24145Y82593D01*
X21828Y83553D01*
X20053Y85328D01*
X19093Y87645D01*
X19093Y90155D01*
X20053Y92472D01*
X21828Y94247D01*
X24145Y95207D01*
X26655Y95207D01*
X28972Y94247D01*
X30747Y92472D01*
X31707Y90155D01*
X31707Y87645D01*
X30747Y85328D01*
X28972Y83553D01*
X26655Y82593D01*
X24145Y82593D01*
G37*
%LPD*%
%LPC*%
G36*
X339Y277161D02*
X339Y277161D01*
X7659Y277161D01*
X7216Y275800D01*
X6490Y274375D01*
X5550Y273081D01*
X4419Y271950D01*
X3125Y271010D01*
X1700Y270284D01*
X339Y269841D01*
X339Y277161D01*
G37*
%LPD*%
D10*
X-2200Y279700D03*
X23200Y279700D03*
X48600Y279700D03*
X74000Y279700D03*
X-2200Y254300D03*
X23200Y254300D03*
X48600Y254300D03*
X74000Y254300D03*
D11*
X20320Y175260D03*
X25400Y88900D03*
X50800Y88900D03*
X55880Y368300D03*
X50800Y635000D03*
X25400Y520700D03*
X50800Y215900D03*
X63500Y177800D03*
X41910Y167640D03*
X25400Y444500D03*
X25400Y330200D03*
X25400Y660400D03*
D12*
X35560Y464820D03*
M02*
