G04 EAGLE Gerber RS-274X export*
G75*
%MOMM*%
%FSLAX34Y34*%
%LPD*%
%INSolderpaste Bottom*%
%IPPOS*%
%AMOC8*
5,1,8,0,0,1.08239X$1,22.5*%
G01*
%ADD10R,0.800000X1.200000*%
%ADD11R,0.900000X0.850000*%
%ADD12R,0.800100X1.259841*%
%ADD13R,0.939800X1.498600*%
%ADD14R,0.304800X0.863600*%
%ADD15R,0.304800X0.355600*%
%ADD16R,0.889000X1.295400*%
%ADD17R,1.701800X2.692400*%
%ADD18R,5.000000X6.000000*%

G36*
X45747Y391810D02*
X45747Y391810D01*
X45749Y391809D01*
X45792Y391829D01*
X45836Y391847D01*
X45836Y391849D01*
X45838Y391850D01*
X45871Y391935D01*
X45871Y398920D01*
X45870Y398922D01*
X45871Y398924D01*
X45852Y398967D01*
X45833Y399011D01*
X45831Y399011D01*
X45830Y399013D01*
X45745Y399046D01*
X36855Y399046D01*
X36853Y399045D01*
X36851Y399046D01*
X36808Y399026D01*
X36764Y399008D01*
X36764Y399006D01*
X36762Y399005D01*
X36729Y398920D01*
X36729Y391935D01*
X36730Y391933D01*
X36729Y391931D01*
X36749Y391888D01*
X36767Y391844D01*
X36769Y391844D01*
X36770Y391842D01*
X36855Y391809D01*
X45745Y391809D01*
X45747Y391810D01*
G37*
D10*
X38210Y356390D03*
X20210Y356390D03*
D11*
X54770Y456000D03*
X54770Y467600D03*
X58420Y344730D03*
X58420Y333130D03*
D12*
X44450Y595630D03*
X34442Y595630D03*
X44450Y189230D03*
X34442Y189230D03*
D13*
X38481Y493649D03*
D14*
X28702Y493649D03*
D15*
X41656Y502920D03*
X41656Y484378D03*
X35306Y502920D03*
X35306Y484378D03*
X28702Y502920D03*
X28702Y484378D03*
D16*
X56300Y385458D03*
X41300Y385458D03*
X26300Y385458D03*
D17*
X41300Y411493D03*
D18*
X40000Y130000D03*
X40000Y720430D03*
M02*
