G04 EAGLE Gerber RS-274X export*
G75*
%MOMM*%
%FSLAX34Y34*%
%LPD*%
%INSilkscreen Top*%
%IPPOS*%
%AMOC8*
5,1,8,0,0,1.08239X$1,22.5*%
G01*
%ADD10C,0.203200*%
%ADD11C,0.025400*%


D10*
X46990Y149860D02*
X46990Y99060D01*
X39370Y99060D01*
X31750Y99060D01*
X31750Y149860D01*
X39370Y149860D01*
X46990Y149860D01*
X39370Y99060D02*
X39370Y96520D01*
X39370Y149860D02*
X39370Y152400D01*
X45720Y105410D02*
X33020Y105410D01*
D11*
X52197Y143837D02*
X56007Y143837D01*
X52197Y143837D02*
X52197Y144895D01*
X52199Y144959D01*
X52205Y145023D01*
X52214Y145086D01*
X52228Y145148D01*
X52245Y145210D01*
X52266Y145270D01*
X52290Y145329D01*
X52318Y145387D01*
X52350Y145442D01*
X52384Y145496D01*
X52422Y145547D01*
X52463Y145597D01*
X52507Y145643D01*
X52553Y145687D01*
X52603Y145728D01*
X52654Y145766D01*
X52708Y145800D01*
X52763Y145832D01*
X52821Y145860D01*
X52880Y145884D01*
X52940Y145905D01*
X53002Y145922D01*
X53064Y145936D01*
X53128Y145945D01*
X53191Y145951D01*
X53255Y145953D01*
X53255Y145954D02*
X54949Y145954D01*
X54949Y145953D02*
X55013Y145951D01*
X55077Y145945D01*
X55140Y145936D01*
X55202Y145922D01*
X55264Y145905D01*
X55324Y145884D01*
X55383Y145860D01*
X55441Y145832D01*
X55496Y145800D01*
X55550Y145766D01*
X55601Y145728D01*
X55651Y145687D01*
X55697Y145643D01*
X55741Y145597D01*
X55782Y145547D01*
X55820Y145496D01*
X55854Y145442D01*
X55886Y145387D01*
X55914Y145329D01*
X55938Y145270D01*
X55959Y145210D01*
X55976Y145148D01*
X55990Y145086D01*
X55999Y145023D01*
X56005Y144959D01*
X56007Y144895D01*
X56007Y143837D01*
X53044Y147616D02*
X52197Y148675D01*
X56007Y148675D01*
X56007Y149733D02*
X56007Y147616D01*
M02*
