G04 EAGLE Gerber RS-274X export*
G75*
%MOMM*%
%FSLAX34Y34*%
%LPD*%
%INTop Copper*%
%IPPOS*%
%AMOC8*
5,1,8,0,0,1.08239X$1,22.5*%
G01*
%ADD10C,1.016000*%
%ADD11C,0.254000*%

G36*
X3316054Y2810D02*
X3316054Y2810D01*
X3316173Y2817D01*
X3316211Y2830D01*
X3316252Y2835D01*
X3316362Y2878D01*
X3316475Y2915D01*
X3316510Y2937D01*
X3316547Y2952D01*
X3316643Y3021D01*
X3316744Y3085D01*
X3316772Y3115D01*
X3316805Y3138D01*
X3316881Y3230D01*
X3316962Y3317D01*
X3316982Y3352D01*
X3317007Y3383D01*
X3317058Y3491D01*
X3317116Y3595D01*
X3317126Y3635D01*
X3317143Y3671D01*
X3317165Y3788D01*
X3317195Y3903D01*
X3317199Y3963D01*
X3317203Y3983D01*
X3317201Y4004D01*
X3317205Y4064D01*
X3317205Y65936D01*
X3317190Y66054D01*
X3317183Y66173D01*
X3317170Y66211D01*
X3317165Y66252D01*
X3317122Y66362D01*
X3317085Y66475D01*
X3317063Y66510D01*
X3317048Y66547D01*
X3316979Y66643D01*
X3316915Y66744D01*
X3316885Y66772D01*
X3316862Y66805D01*
X3316770Y66881D01*
X3316683Y66962D01*
X3316648Y66982D01*
X3316617Y67007D01*
X3316509Y67058D01*
X3316405Y67116D01*
X3316365Y67126D01*
X3316329Y67143D01*
X3316212Y67165D01*
X3316097Y67195D01*
X3316037Y67199D01*
X3316017Y67203D01*
X3315996Y67201D01*
X3315936Y67205D01*
X4064Y67205D01*
X3946Y67190D01*
X3827Y67183D01*
X3789Y67170D01*
X3748Y67165D01*
X3638Y67122D01*
X3525Y67085D01*
X3490Y67063D01*
X3453Y67048D01*
X3357Y66979D01*
X3256Y66915D01*
X3228Y66885D01*
X3195Y66862D01*
X3119Y66770D01*
X3038Y66683D01*
X3018Y66648D01*
X2993Y66617D01*
X2942Y66509D01*
X2884Y66405D01*
X2874Y66365D01*
X2857Y66329D01*
X2835Y66212D01*
X2805Y66097D01*
X2801Y66037D01*
X2797Y66017D01*
X2799Y65996D01*
X2795Y65936D01*
X2795Y4064D01*
X2810Y3946D01*
X2817Y3827D01*
X2830Y3789D01*
X2835Y3748D01*
X2878Y3638D01*
X2915Y3525D01*
X2937Y3490D01*
X2952Y3453D01*
X3021Y3357D01*
X3085Y3256D01*
X3115Y3228D01*
X3138Y3195D01*
X3230Y3119D01*
X3317Y3038D01*
X3352Y3018D01*
X3383Y2993D01*
X3491Y2942D01*
X3595Y2884D01*
X3635Y2874D01*
X3671Y2857D01*
X3788Y2835D01*
X3903Y2805D01*
X3963Y2801D01*
X3983Y2797D01*
X4004Y2799D01*
X4064Y2795D01*
X3315936Y2795D01*
X3316054Y2810D01*
G37*
%LPC*%
G36*
X23985Y18287D02*
X23985Y18287D01*
X21371Y19370D01*
X19370Y21371D01*
X18287Y23985D01*
X18287Y26815D01*
X19370Y29429D01*
X21371Y31430D01*
X23985Y32513D01*
X26815Y32513D01*
X29429Y31430D01*
X31436Y29423D01*
X31499Y29323D01*
X31564Y29210D01*
X31584Y29189D01*
X31600Y29164D01*
X31694Y29075D01*
X31785Y28982D01*
X31810Y28966D01*
X31832Y28946D01*
X31945Y28883D01*
X32056Y28815D01*
X32084Y28807D01*
X32110Y28792D01*
X32236Y28760D01*
X32360Y28722D01*
X32390Y28720D01*
X32418Y28713D01*
X32579Y28703D01*
X62452Y28703D01*
X62550Y28715D01*
X62649Y28718D01*
X62708Y28735D01*
X62768Y28743D01*
X62860Y28779D01*
X62955Y28807D01*
X63007Y28837D01*
X63063Y28860D01*
X63143Y28918D01*
X63229Y28968D01*
X63304Y29034D01*
X63321Y29046D01*
X63329Y29056D01*
X63350Y29074D01*
X71478Y37202D01*
X71551Y37297D01*
X71629Y37386D01*
X71648Y37422D01*
X71673Y37454D01*
X71720Y37563D01*
X71774Y37669D01*
X71783Y37708D01*
X71799Y37746D01*
X71818Y37863D01*
X71844Y37979D01*
X71843Y38020D01*
X71849Y38060D01*
X71838Y38178D01*
X71834Y38297D01*
X71823Y38336D01*
X71819Y38376D01*
X71779Y38489D01*
X71746Y38603D01*
X71725Y38637D01*
X71711Y38676D01*
X71645Y38774D01*
X71584Y38877D01*
X71544Y38922D01*
X71533Y38939D01*
X71518Y38952D01*
X71478Y38997D01*
X63350Y47126D01*
X63271Y47186D01*
X63199Y47254D01*
X63146Y47283D01*
X63098Y47320D01*
X63007Y47360D01*
X62921Y47408D01*
X62862Y47423D01*
X62807Y47447D01*
X62709Y47462D01*
X62613Y47487D01*
X62513Y47493D01*
X62492Y47497D01*
X62480Y47495D01*
X62452Y47497D01*
X36732Y47497D01*
X34539Y49690D01*
X34499Y49721D01*
X34466Y49758D01*
X34374Y49818D01*
X34287Y49885D01*
X34242Y49905D01*
X34200Y49932D01*
X34096Y49968D01*
X33996Y50012D01*
X33947Y50020D01*
X33900Y50036D01*
X33790Y50044D01*
X33682Y50062D01*
X33632Y50057D01*
X33583Y50061D01*
X33474Y50042D01*
X33365Y50032D01*
X33318Y50015D01*
X33269Y50006D01*
X33169Y49961D01*
X33066Y49924D01*
X33024Y49896D01*
X32979Y49876D01*
X32893Y49807D01*
X32802Y49746D01*
X32770Y49708D01*
X32731Y49677D01*
X32665Y49589D01*
X32592Y49507D01*
X32569Y49463D01*
X32540Y49423D01*
X32469Y49279D01*
X31430Y46771D01*
X29429Y44770D01*
X26815Y43687D01*
X23985Y43687D01*
X21371Y44770D01*
X19370Y46771D01*
X18287Y49385D01*
X18287Y52215D01*
X19370Y54829D01*
X21371Y56830D01*
X23985Y57913D01*
X26815Y57913D01*
X29429Y56830D01*
X31430Y54829D01*
X32469Y52321D01*
X32493Y52278D01*
X32510Y52231D01*
X32572Y52140D01*
X32626Y52045D01*
X32661Y52009D01*
X32689Y51968D01*
X32771Y51896D01*
X32847Y51817D01*
X32890Y51791D01*
X32927Y51758D01*
X33025Y51708D01*
X33119Y51650D01*
X33166Y51636D01*
X33210Y51613D01*
X33318Y51589D01*
X33422Y51557D01*
X33472Y51554D01*
X33521Y51544D01*
X33631Y51547D01*
X33740Y51542D01*
X33789Y51552D01*
X33838Y51553D01*
X33944Y51584D01*
X34052Y51606D01*
X34096Y51628D01*
X34144Y51642D01*
X34238Y51697D01*
X34337Y51746D01*
X34375Y51778D01*
X34418Y51803D01*
X34539Y51910D01*
X36732Y54103D01*
X65714Y54103D01*
X67309Y52508D01*
X67348Y52477D01*
X67382Y52441D01*
X67473Y52380D01*
X67560Y52313D01*
X67606Y52293D01*
X67647Y52266D01*
X67751Y52230D01*
X67852Y52186D01*
X67901Y52179D01*
X67948Y52163D01*
X68058Y52154D01*
X68166Y52137D01*
X68216Y52141D01*
X68265Y52137D01*
X68374Y52156D01*
X68483Y52166D01*
X68530Y52183D01*
X68579Y52192D01*
X68679Y52237D01*
X68782Y52274D01*
X68823Y52302D01*
X68869Y52322D01*
X68954Y52391D01*
X69045Y52453D01*
X69078Y52490D01*
X69117Y52521D01*
X69183Y52609D01*
X69256Y52691D01*
X69278Y52735D01*
X69308Y52775D01*
X69379Y52920D01*
X70170Y54829D01*
X72171Y56830D01*
X74785Y57913D01*
X77615Y57913D01*
X80229Y56830D01*
X82230Y54829D01*
X83021Y52920D01*
X83045Y52876D01*
X83062Y52830D01*
X83124Y52739D01*
X83178Y52643D01*
X83213Y52608D01*
X83241Y52566D01*
X83323Y52494D01*
X83400Y52415D01*
X83442Y52389D01*
X83479Y52356D01*
X83577Y52306D01*
X83671Y52249D01*
X83718Y52234D01*
X83762Y52211D01*
X83870Y52187D01*
X83975Y52155D01*
X84024Y52153D01*
X84073Y52142D01*
X84183Y52145D01*
X84292Y52140D01*
X84341Y52150D01*
X84391Y52151D01*
X84496Y52182D01*
X84604Y52204D01*
X84649Y52226D01*
X84696Y52240D01*
X84791Y52296D01*
X84890Y52344D01*
X84927Y52376D01*
X84970Y52401D01*
X85091Y52508D01*
X86686Y54103D01*
X1526214Y54103D01*
X1527809Y52508D01*
X1527848Y52477D01*
X1527882Y52441D01*
X1527973Y52380D01*
X1528060Y52313D01*
X1528106Y52293D01*
X1528147Y52266D01*
X1528251Y52230D01*
X1528352Y52186D01*
X1528401Y52179D01*
X1528448Y52163D01*
X1528558Y52154D01*
X1528666Y52137D01*
X1528716Y52141D01*
X1528765Y52137D01*
X1528874Y52156D01*
X1528983Y52166D01*
X1529030Y52183D01*
X1529079Y52192D01*
X1529179Y52237D01*
X1529282Y52274D01*
X1529323Y52302D01*
X1529369Y52322D01*
X1529454Y52391D01*
X1529545Y52453D01*
X1529578Y52490D01*
X1529617Y52521D01*
X1529683Y52609D01*
X1529756Y52691D01*
X1529778Y52735D01*
X1529808Y52775D01*
X1529879Y52920D01*
X1530670Y54829D01*
X1532671Y56830D01*
X1535285Y57913D01*
X1538115Y57913D01*
X1540729Y56830D01*
X1542730Y54829D01*
X1543521Y52920D01*
X1543545Y52876D01*
X1543562Y52830D01*
X1543624Y52739D01*
X1543678Y52643D01*
X1543713Y52608D01*
X1543741Y52566D01*
X1543823Y52494D01*
X1543900Y52415D01*
X1543942Y52389D01*
X1543979Y52356D01*
X1544077Y52306D01*
X1544171Y52249D01*
X1544218Y52234D01*
X1544262Y52211D01*
X1544370Y52187D01*
X1544475Y52155D01*
X1544524Y52153D01*
X1544573Y52142D01*
X1544683Y52145D01*
X1544792Y52140D01*
X1544841Y52150D01*
X1544891Y52151D01*
X1544996Y52182D01*
X1545104Y52204D01*
X1545149Y52226D01*
X1545196Y52240D01*
X1545291Y52296D01*
X1545390Y52344D01*
X1545427Y52376D01*
X1545470Y52401D01*
X1545591Y52508D01*
X1547186Y54103D01*
X1716714Y54103D01*
X1718309Y52508D01*
X1718348Y52477D01*
X1718382Y52441D01*
X1718473Y52380D01*
X1718560Y52313D01*
X1718606Y52293D01*
X1718647Y52266D01*
X1718751Y52230D01*
X1718852Y52186D01*
X1718901Y52179D01*
X1718948Y52163D01*
X1719058Y52154D01*
X1719166Y52137D01*
X1719216Y52141D01*
X1719265Y52137D01*
X1719374Y52156D01*
X1719483Y52166D01*
X1719530Y52183D01*
X1719579Y52192D01*
X1719679Y52237D01*
X1719782Y52274D01*
X1719823Y52302D01*
X1719869Y52322D01*
X1719954Y52391D01*
X1720045Y52453D01*
X1720078Y52490D01*
X1720117Y52521D01*
X1720183Y52609D01*
X1720256Y52691D01*
X1720278Y52735D01*
X1720308Y52775D01*
X1720379Y52920D01*
X1721170Y54829D01*
X1723171Y56830D01*
X1725785Y57913D01*
X1728615Y57913D01*
X1731229Y56830D01*
X1733230Y54829D01*
X1734313Y52215D01*
X1734313Y49385D01*
X1733522Y47476D01*
X1733509Y47428D01*
X1733488Y47383D01*
X1733467Y47275D01*
X1733438Y47169D01*
X1733437Y47119D01*
X1733428Y47070D01*
X1733435Y46961D01*
X1733433Y46851D01*
X1733444Y46803D01*
X1733447Y46753D01*
X1733481Y46649D01*
X1733507Y46542D01*
X1733530Y46498D01*
X1733546Y46451D01*
X1733604Y46358D01*
X1733656Y46261D01*
X1733689Y46224D01*
X1733716Y46182D01*
X1733796Y46107D01*
X1733870Y46025D01*
X1733911Y45998D01*
X1733947Y45964D01*
X1734043Y45911D01*
X1734135Y45851D01*
X1734182Y45834D01*
X1734226Y45810D01*
X1734332Y45783D01*
X1734436Y45747D01*
X1734486Y45743D01*
X1734534Y45731D01*
X1734694Y45721D01*
X3256406Y45721D01*
X3256455Y45727D01*
X3256505Y45725D01*
X3256612Y45747D01*
X3256721Y45761D01*
X3256767Y45779D01*
X3256816Y45789D01*
X3256915Y45837D01*
X3257017Y45878D01*
X3257057Y45907D01*
X3257102Y45929D01*
X3257185Y46000D01*
X3257274Y46064D01*
X3257306Y46103D01*
X3257344Y46135D01*
X3257407Y46225D01*
X3257477Y46309D01*
X3257498Y46354D01*
X3257527Y46395D01*
X3257566Y46498D01*
X3257612Y46597D01*
X3257622Y46646D01*
X3257639Y46692D01*
X3257652Y46802D01*
X3257672Y46909D01*
X3257669Y46959D01*
X3257675Y47008D01*
X3257659Y47117D01*
X3257653Y47227D01*
X3257637Y47274D01*
X3257630Y47323D01*
X3257578Y47476D01*
X3256787Y49385D01*
X3256787Y52215D01*
X3257870Y54829D01*
X3259871Y56830D01*
X3262485Y57913D01*
X3265315Y57913D01*
X3267929Y56830D01*
X3269930Y54829D01*
X3270721Y52920D01*
X3270745Y52876D01*
X3270762Y52830D01*
X3270824Y52739D01*
X3270878Y52643D01*
X3270913Y52608D01*
X3270941Y52566D01*
X3271023Y52494D01*
X3271100Y52415D01*
X3271142Y52389D01*
X3271179Y52356D01*
X3271277Y52306D01*
X3271371Y52249D01*
X3271418Y52234D01*
X3271462Y52211D01*
X3271570Y52187D01*
X3271675Y52155D01*
X3271724Y52153D01*
X3271773Y52142D01*
X3271883Y52145D01*
X3271992Y52140D01*
X3272041Y52150D01*
X3272091Y52151D01*
X3272196Y52182D01*
X3272304Y52204D01*
X3272349Y52226D01*
X3272396Y52240D01*
X3272491Y52296D01*
X3272590Y52344D01*
X3272627Y52376D01*
X3272670Y52401D01*
X3272791Y52508D01*
X3274386Y54103D01*
X3282121Y54103D01*
X3282151Y54106D01*
X3282180Y54104D01*
X3282308Y54126D01*
X3282437Y54143D01*
X3282464Y54153D01*
X3282493Y54159D01*
X3282612Y54212D01*
X3282732Y54260D01*
X3282756Y54277D01*
X3282783Y54289D01*
X3282885Y54370D01*
X3282990Y54446D01*
X3283009Y54469D01*
X3283032Y54488D01*
X3283110Y54592D01*
X3283193Y54691D01*
X3283205Y54718D01*
X3283223Y54742D01*
X3283262Y54820D01*
X3285271Y56830D01*
X3287885Y57913D01*
X3290715Y57913D01*
X3293329Y56830D01*
X3295330Y54829D01*
X3296413Y52215D01*
X3296413Y49385D01*
X3295330Y46771D01*
X3293329Y44770D01*
X3290715Y43687D01*
X3287885Y43687D01*
X3285271Y44770D01*
X3283264Y46777D01*
X3283201Y46877D01*
X3283136Y46990D01*
X3283116Y47011D01*
X3283100Y47036D01*
X3283006Y47125D01*
X3282915Y47218D01*
X3282890Y47234D01*
X3282868Y47254D01*
X3282755Y47317D01*
X3282644Y47385D01*
X3282616Y47393D01*
X3282590Y47408D01*
X3282464Y47440D01*
X3282340Y47478D01*
X3282310Y47480D01*
X3282282Y47487D01*
X3282121Y47497D01*
X3277648Y47497D01*
X3277550Y47485D01*
X3277451Y47482D01*
X3277392Y47465D01*
X3277332Y47457D01*
X3277240Y47421D01*
X3277145Y47393D01*
X3277093Y47363D01*
X3277037Y47340D01*
X3276957Y47282D01*
X3276871Y47232D01*
X3276796Y47166D01*
X3276779Y47154D01*
X3276771Y47144D01*
X3276750Y47126D01*
X3271046Y41422D01*
X3268876Y39251D01*
X3268791Y39142D01*
X3268702Y39035D01*
X3268694Y39016D01*
X3268681Y39000D01*
X3268626Y38872D01*
X3268567Y38747D01*
X3268563Y38727D01*
X3268555Y38708D01*
X3268533Y38570D01*
X3268507Y38434D01*
X3268508Y38414D01*
X3268505Y38394D01*
X3268518Y38255D01*
X3268527Y38117D01*
X3268533Y38098D01*
X3268535Y38078D01*
X3268582Y37946D01*
X3268625Y37815D01*
X3268636Y37797D01*
X3268643Y37778D01*
X3268721Y37663D01*
X3268795Y37546D01*
X3268810Y37532D01*
X3268821Y37515D01*
X3268925Y37423D01*
X3269027Y37328D01*
X3269044Y37318D01*
X3269060Y37305D01*
X3269184Y37241D01*
X3269305Y37174D01*
X3269325Y37169D01*
X3269343Y37160D01*
X3269479Y37130D01*
X3269613Y37095D01*
X3269641Y37093D01*
X3269653Y37090D01*
X3269674Y37091D01*
X3269774Y37085D01*
X3294140Y37085D01*
X3302150Y29074D01*
X3302229Y29014D01*
X3302301Y28946D01*
X3302354Y28917D01*
X3302402Y28880D01*
X3302493Y28840D01*
X3302579Y28792D01*
X3302638Y28777D01*
X3302693Y28753D01*
X3302791Y28738D01*
X3302887Y28713D01*
X3302987Y28707D01*
X3303008Y28703D01*
X3303020Y28705D01*
X3303048Y28703D01*
X3303368Y28703D01*
X3305303Y26768D01*
X3305303Y24032D01*
X3303368Y22097D01*
X3299786Y22097D01*
X3298191Y23692D01*
X3298152Y23723D01*
X3298118Y23759D01*
X3298027Y23820D01*
X3297940Y23887D01*
X3297894Y23907D01*
X3297853Y23934D01*
X3297749Y23970D01*
X3297648Y24014D01*
X3297599Y24021D01*
X3297552Y24037D01*
X3297442Y24046D01*
X3297334Y24063D01*
X3297284Y24059D01*
X3297235Y24063D01*
X3297126Y24044D01*
X3297017Y24034D01*
X3296970Y24017D01*
X3296921Y24008D01*
X3296821Y23963D01*
X3296718Y23926D01*
X3296677Y23898D01*
X3296631Y23878D01*
X3296546Y23809D01*
X3296455Y23747D01*
X3296422Y23710D01*
X3296383Y23679D01*
X3296317Y23591D01*
X3296244Y23509D01*
X3296222Y23465D01*
X3296192Y23425D01*
X3296121Y23280D01*
X3295330Y21371D01*
X3293329Y19370D01*
X3290715Y18287D01*
X3287885Y18287D01*
X3285271Y19370D01*
X3283270Y21371D01*
X3282187Y23985D01*
X3282187Y26815D01*
X3282978Y28724D01*
X3282990Y28767D01*
X3283005Y28800D01*
X3283006Y28804D01*
X3283012Y28817D01*
X3283033Y28925D01*
X3283062Y29031D01*
X3283063Y29081D01*
X3283072Y29130D01*
X3283065Y29239D01*
X3283067Y29349D01*
X3283056Y29397D01*
X3283053Y29447D01*
X3283019Y29551D01*
X3282993Y29658D01*
X3282970Y29702D01*
X3282954Y29749D01*
X3282896Y29842D01*
X3282844Y29939D01*
X3282811Y29976D01*
X3282784Y30018D01*
X3282704Y30093D01*
X3282630Y30175D01*
X3282589Y30202D01*
X3282553Y30236D01*
X3282457Y30289D01*
X3282365Y30349D01*
X3282318Y30366D01*
X3282274Y30390D01*
X3282168Y30417D01*
X3282064Y30453D01*
X3282014Y30457D01*
X3281966Y30469D01*
X3281806Y30479D01*
X3271394Y30479D01*
X3271345Y30473D01*
X3271295Y30475D01*
X3271188Y30453D01*
X3271079Y30439D01*
X3271033Y30421D01*
X3270984Y30411D01*
X3270885Y30363D01*
X3270783Y30322D01*
X3270743Y30293D01*
X3270698Y30271D01*
X3270615Y30200D01*
X3270526Y30136D01*
X3270494Y30097D01*
X3270456Y30065D01*
X3270393Y29975D01*
X3270323Y29891D01*
X3270302Y29846D01*
X3270273Y29805D01*
X3270234Y29702D01*
X3270188Y29603D01*
X3270178Y29554D01*
X3270161Y29508D01*
X3270148Y29398D01*
X3270128Y29291D01*
X3270131Y29241D01*
X3270125Y29192D01*
X3270141Y29083D01*
X3270147Y28973D01*
X3270163Y28926D01*
X3270170Y28877D01*
X3270222Y28724D01*
X3271013Y26815D01*
X3271013Y23985D01*
X3269930Y21371D01*
X3267929Y19370D01*
X3265315Y18287D01*
X3262485Y18287D01*
X3259871Y19370D01*
X3257870Y21371D01*
X3257079Y23280D01*
X3257055Y23324D01*
X3257038Y23370D01*
X3256976Y23461D01*
X3256922Y23557D01*
X3256887Y23592D01*
X3256859Y23634D01*
X3256777Y23706D01*
X3256700Y23785D01*
X3256658Y23811D01*
X3256621Y23844D01*
X3256523Y23894D01*
X3256429Y23951D01*
X3256382Y23966D01*
X3256338Y23989D01*
X3256230Y24013D01*
X3256125Y24045D01*
X3256076Y24047D01*
X3256027Y24058D01*
X3255917Y24055D01*
X3255808Y24060D01*
X3255759Y24050D01*
X3255709Y24049D01*
X3255604Y24018D01*
X3255496Y23996D01*
X3255451Y23974D01*
X3255404Y23960D01*
X3255309Y23904D01*
X3255210Y23856D01*
X3255173Y23824D01*
X3255130Y23799D01*
X3255009Y23692D01*
X3253414Y22097D01*
X1585286Y22097D01*
X1583691Y23692D01*
X1583652Y23723D01*
X1583618Y23760D01*
X1583527Y23820D01*
X1583440Y23887D01*
X1583394Y23907D01*
X1583353Y23934D01*
X1583249Y23970D01*
X1583148Y24014D01*
X1583099Y24021D01*
X1583052Y24037D01*
X1582942Y24046D01*
X1582834Y24063D01*
X1582784Y24059D01*
X1582735Y24063D01*
X1582626Y24044D01*
X1582517Y24034D01*
X1582470Y24017D01*
X1582421Y24008D01*
X1582321Y23963D01*
X1582218Y23926D01*
X1582177Y23898D01*
X1582131Y23878D01*
X1582046Y23809D01*
X1581955Y23747D01*
X1581922Y23710D01*
X1581883Y23679D01*
X1581817Y23591D01*
X1581744Y23509D01*
X1581722Y23465D01*
X1581692Y23425D01*
X1581621Y23281D01*
X1580830Y21371D01*
X1578829Y19370D01*
X1576215Y18287D01*
X1573385Y18287D01*
X1570771Y19370D01*
X1568770Y21371D01*
X1567687Y23985D01*
X1567687Y26815D01*
X1568478Y28724D01*
X1568490Y28767D01*
X1568505Y28800D01*
X1568506Y28804D01*
X1568513Y28817D01*
X1568533Y28925D01*
X1568562Y29031D01*
X1568563Y29081D01*
X1568572Y29130D01*
X1568565Y29239D01*
X1568567Y29349D01*
X1568556Y29397D01*
X1568553Y29447D01*
X1568519Y29551D01*
X1568493Y29658D01*
X1568470Y29702D01*
X1568455Y29749D01*
X1568396Y29842D01*
X1568344Y29939D01*
X1568311Y29976D01*
X1568284Y30018D01*
X1568204Y30093D01*
X1568130Y30175D01*
X1568089Y30202D01*
X1568053Y30236D01*
X1567957Y30289D01*
X1567865Y30349D01*
X1567818Y30366D01*
X1567774Y30390D01*
X1567668Y30417D01*
X1567564Y30453D01*
X1567514Y30457D01*
X1567466Y30469D01*
X1567306Y30479D01*
X1480694Y30479D01*
X1480645Y30473D01*
X1480595Y30475D01*
X1480488Y30453D01*
X1480379Y30439D01*
X1480333Y30421D01*
X1480284Y30411D01*
X1480185Y30363D01*
X1480083Y30322D01*
X1480043Y30293D01*
X1479998Y30271D01*
X1479915Y30200D01*
X1479826Y30136D01*
X1479794Y30097D01*
X1479756Y30065D01*
X1479693Y29975D01*
X1479623Y29891D01*
X1479602Y29846D01*
X1479573Y29805D01*
X1479534Y29702D01*
X1479487Y29603D01*
X1479478Y29554D01*
X1479461Y29508D01*
X1479448Y29398D01*
X1479428Y29291D01*
X1479431Y29241D01*
X1479425Y29192D01*
X1479441Y29083D01*
X1479447Y28973D01*
X1479463Y28926D01*
X1479470Y28877D01*
X1479522Y28724D01*
X1480313Y26815D01*
X1480313Y23985D01*
X1479230Y21371D01*
X1477229Y19370D01*
X1474615Y18287D01*
X1471785Y18287D01*
X1469171Y19370D01*
X1467170Y21371D01*
X1466379Y23281D01*
X1466355Y23324D01*
X1466338Y23370D01*
X1466276Y23461D01*
X1466222Y23557D01*
X1466187Y23592D01*
X1466159Y23634D01*
X1466077Y23706D01*
X1466000Y23785D01*
X1465958Y23811D01*
X1465921Y23844D01*
X1465823Y23894D01*
X1465729Y23951D01*
X1465682Y23966D01*
X1465637Y23989D01*
X1465530Y24013D01*
X1465425Y24045D01*
X1465376Y24047D01*
X1465327Y24058D01*
X1465217Y24055D01*
X1465108Y24060D01*
X1465059Y24050D01*
X1465009Y24049D01*
X1464904Y24018D01*
X1464796Y23996D01*
X1464751Y23974D01*
X1464704Y23960D01*
X1464609Y23905D01*
X1464510Y23856D01*
X1464473Y23824D01*
X1464430Y23799D01*
X1464309Y23692D01*
X1462714Y22097D01*
X86686Y22097D01*
X85091Y23692D01*
X85052Y23723D01*
X85018Y23760D01*
X84927Y23820D01*
X84840Y23887D01*
X84794Y23907D01*
X84753Y23934D01*
X84649Y23970D01*
X84548Y24014D01*
X84499Y24021D01*
X84452Y24037D01*
X84342Y24046D01*
X84234Y24063D01*
X84184Y24059D01*
X84135Y24063D01*
X84026Y24044D01*
X83917Y24034D01*
X83870Y24017D01*
X83821Y24008D01*
X83721Y23963D01*
X83618Y23926D01*
X83577Y23898D01*
X83531Y23878D01*
X83446Y23809D01*
X83355Y23747D01*
X83322Y23710D01*
X83283Y23679D01*
X83217Y23591D01*
X83144Y23509D01*
X83122Y23465D01*
X83092Y23425D01*
X83021Y23281D01*
X82230Y21371D01*
X80229Y19370D01*
X77615Y18287D01*
X74785Y18287D01*
X72171Y19370D01*
X70170Y21371D01*
X69379Y23281D01*
X69355Y23324D01*
X69338Y23370D01*
X69276Y23461D01*
X69222Y23557D01*
X69187Y23592D01*
X69159Y23634D01*
X69077Y23706D01*
X69000Y23785D01*
X68958Y23811D01*
X68921Y23844D01*
X68823Y23894D01*
X68729Y23951D01*
X68682Y23966D01*
X68637Y23989D01*
X68530Y24013D01*
X68425Y24045D01*
X68376Y24047D01*
X68327Y24058D01*
X68217Y24055D01*
X68108Y24060D01*
X68059Y24050D01*
X68009Y24049D01*
X67904Y24018D01*
X67796Y23996D01*
X67751Y23974D01*
X67704Y23960D01*
X67609Y23905D01*
X67510Y23856D01*
X67473Y23824D01*
X67430Y23799D01*
X67309Y23692D01*
X65714Y22097D01*
X32579Y22097D01*
X32549Y22094D01*
X32520Y22096D01*
X32392Y22074D01*
X32263Y22057D01*
X32236Y22047D01*
X32207Y22041D01*
X32088Y21988D01*
X31968Y21940D01*
X31944Y21923D01*
X31917Y21911D01*
X31815Y21830D01*
X31710Y21754D01*
X31691Y21731D01*
X31668Y21712D01*
X31590Y21608D01*
X31507Y21509D01*
X31495Y21482D01*
X31477Y21458D01*
X31438Y21380D01*
X29429Y19370D01*
X26815Y18287D01*
X23985Y18287D01*
G37*
%LPD*%
G36*
X3250250Y28715D02*
X3250250Y28715D01*
X3250349Y28718D01*
X3250408Y28735D01*
X3250468Y28743D01*
X3250560Y28779D01*
X3250655Y28807D01*
X3250707Y28837D01*
X3250763Y28860D01*
X3250843Y28918D01*
X3250929Y28968D01*
X3251004Y29034D01*
X3251021Y29046D01*
X3251029Y29056D01*
X3251050Y29074D01*
X3256754Y34778D01*
X3258924Y36949D01*
X3259009Y37058D01*
X3259098Y37165D01*
X3259106Y37184D01*
X3259119Y37200D01*
X3259174Y37328D01*
X3259233Y37453D01*
X3259237Y37473D01*
X3259245Y37492D01*
X3259267Y37630D01*
X3259293Y37766D01*
X3259292Y37786D01*
X3259295Y37806D01*
X3259282Y37945D01*
X3259273Y38083D01*
X3259267Y38102D01*
X3259265Y38122D01*
X3259218Y38254D01*
X3259175Y38385D01*
X3259164Y38403D01*
X3259157Y38422D01*
X3259079Y38537D01*
X3259005Y38654D01*
X3258990Y38668D01*
X3258979Y38685D01*
X3258875Y38777D01*
X3258773Y38872D01*
X3258756Y38882D01*
X3258740Y38895D01*
X3258616Y38959D01*
X3258495Y39026D01*
X3258475Y39031D01*
X3258457Y39040D01*
X3258321Y39070D01*
X3258187Y39105D01*
X3258159Y39107D01*
X3258147Y39110D01*
X3258126Y39109D01*
X3258026Y39115D01*
X1722360Y39115D01*
X1714350Y47126D01*
X1714271Y47186D01*
X1714199Y47254D01*
X1714146Y47283D01*
X1714098Y47320D01*
X1714007Y47360D01*
X1713921Y47408D01*
X1713862Y47423D01*
X1713807Y47447D01*
X1713709Y47462D01*
X1713613Y47487D01*
X1713513Y47493D01*
X1713492Y47497D01*
X1713480Y47495D01*
X1713452Y47497D01*
X1589780Y47497D01*
X1589711Y47489D01*
X1589641Y47490D01*
X1589554Y47469D01*
X1589465Y47457D01*
X1589400Y47432D01*
X1589332Y47415D01*
X1589253Y47373D01*
X1589169Y47340D01*
X1589113Y47299D01*
X1589051Y47267D01*
X1588985Y47206D01*
X1588912Y47154D01*
X1588867Y47100D01*
X1588816Y47053D01*
X1588766Y46978D01*
X1588709Y46909D01*
X1588679Y46845D01*
X1588641Y46787D01*
X1588612Y46702D01*
X1588573Y46621D01*
X1588560Y46552D01*
X1588538Y46486D01*
X1588531Y46397D01*
X1588514Y46309D01*
X1588518Y46239D01*
X1588512Y46169D01*
X1588528Y46081D01*
X1588533Y45991D01*
X1588555Y45925D01*
X1588567Y45856D01*
X1588604Y45774D01*
X1588631Y45689D01*
X1588669Y45630D01*
X1588697Y45566D01*
X1588753Y45496D01*
X1588802Y45420D01*
X1588852Y45372D01*
X1588896Y45318D01*
X1588968Y45263D01*
X1589033Y45202D01*
X1589094Y45168D01*
X1589150Y45126D01*
X1589295Y45055D01*
X1591529Y44130D01*
X1593536Y42123D01*
X1593599Y42023D01*
X1593664Y41910D01*
X1593684Y41889D01*
X1593700Y41864D01*
X1593794Y41775D01*
X1593885Y41682D01*
X1593910Y41666D01*
X1593932Y41646D01*
X1594045Y41583D01*
X1594156Y41515D01*
X1594184Y41507D01*
X1594210Y41492D01*
X1594336Y41460D01*
X1594460Y41422D01*
X1594490Y41420D01*
X1594518Y41413D01*
X1594679Y41403D01*
X1715868Y41403D01*
X1717803Y39468D01*
X1717803Y36732D01*
X1715868Y34797D01*
X1594679Y34797D01*
X1594649Y34794D01*
X1594620Y34796D01*
X1594492Y34774D01*
X1594363Y34757D01*
X1594336Y34747D01*
X1594307Y34741D01*
X1594188Y34688D01*
X1594068Y34640D01*
X1594044Y34623D01*
X1594017Y34611D01*
X1593915Y34530D01*
X1593810Y34454D01*
X1593791Y34431D01*
X1593768Y34412D01*
X1593690Y34308D01*
X1593607Y34209D01*
X1593595Y34182D01*
X1593577Y34158D01*
X1593538Y34080D01*
X1591529Y32070D01*
X1589295Y31145D01*
X1589234Y31110D01*
X1589169Y31084D01*
X1589097Y31032D01*
X1589018Y30987D01*
X1588968Y30939D01*
X1588912Y30898D01*
X1588854Y30828D01*
X1588790Y30766D01*
X1588754Y30706D01*
X1588709Y30653D01*
X1588671Y30571D01*
X1588624Y30495D01*
X1588603Y30428D01*
X1588573Y30365D01*
X1588557Y30277D01*
X1588530Y30191D01*
X1588527Y30121D01*
X1588514Y30052D01*
X1588519Y29963D01*
X1588515Y29873D01*
X1588529Y29805D01*
X1588533Y29735D01*
X1588561Y29650D01*
X1588579Y29562D01*
X1588610Y29499D01*
X1588631Y29433D01*
X1588679Y29357D01*
X1588719Y29276D01*
X1588764Y29223D01*
X1588802Y29164D01*
X1588867Y29102D01*
X1588925Y29034D01*
X1588982Y28994D01*
X1589033Y28946D01*
X1589112Y28903D01*
X1589185Y28851D01*
X1589251Y28826D01*
X1589312Y28792D01*
X1589399Y28770D01*
X1589483Y28738D01*
X1589552Y28730D01*
X1589620Y28713D01*
X1589780Y28703D01*
X3250152Y28703D01*
X3250250Y28715D01*
G37*
G36*
X3327518Y-1254D02*
X3327518Y-1254D01*
X3327637Y-1247D01*
X3327675Y-1234D01*
X3327716Y-1229D01*
X3327826Y-1186D01*
X3327939Y-1149D01*
X3327974Y-1127D01*
X3328011Y-1112D01*
X3328107Y-1043D01*
X3328208Y-979D01*
X3328236Y-949D01*
X3328269Y-926D01*
X3328345Y-834D01*
X3328426Y-747D01*
X3328446Y-712D01*
X3328471Y-681D01*
X3328522Y-573D01*
X3328580Y-469D01*
X3328590Y-429D01*
X3328607Y-393D01*
X3328629Y-276D01*
X3328659Y-161D01*
X3328663Y-101D01*
X3328667Y-81D01*
X3328665Y-60D01*
X3328669Y0D01*
X3328669Y76200D01*
X3328654Y76318D01*
X3328647Y76437D01*
X3328634Y76475D01*
X3328629Y76516D01*
X3328586Y76626D01*
X3328549Y76739D01*
X3328527Y76774D01*
X3328512Y76811D01*
X3328443Y76907D01*
X3328379Y77008D01*
X3328349Y77036D01*
X3328326Y77069D01*
X3328234Y77145D01*
X3328147Y77226D01*
X3328112Y77246D01*
X3328081Y77271D01*
X3327973Y77322D01*
X3327869Y77380D01*
X3327829Y77390D01*
X3327793Y77407D01*
X3327676Y77429D01*
X3327561Y77459D01*
X3327501Y77463D01*
X3327481Y77467D01*
X3327460Y77465D01*
X3327400Y77469D01*
X0Y77469D01*
X-118Y77454D01*
X-237Y77447D01*
X-275Y77434D01*
X-316Y77429D01*
X-426Y77386D01*
X-539Y77349D01*
X-574Y77327D01*
X-611Y77312D01*
X-707Y77243D01*
X-808Y77179D01*
X-836Y77149D01*
X-869Y77126D01*
X-945Y77034D01*
X-1026Y76947D01*
X-1046Y76912D01*
X-1071Y76881D01*
X-1122Y76773D01*
X-1180Y76669D01*
X-1190Y76629D01*
X-1207Y76593D01*
X-1229Y76476D01*
X-1259Y76361D01*
X-1263Y76301D01*
X-1267Y76281D01*
X-1265Y76260D01*
X-1269Y76200D01*
X-1269Y74064D01*
X-1254Y73946D01*
X-1247Y73827D01*
X-1234Y73789D01*
X-1229Y73748D01*
X-1186Y73638D01*
X-1149Y73525D01*
X-1127Y73490D01*
X-1112Y73453D01*
X-1043Y73357D01*
X-979Y73256D01*
X-949Y73228D01*
X-926Y73195D01*
X-834Y73119D01*
X-747Y73038D01*
X-712Y73018D01*
X-681Y72993D01*
X-573Y72942D01*
X-469Y72884D01*
X-429Y72874D01*
X-393Y72857D01*
X-276Y72835D01*
X-161Y72805D01*
X-101Y72801D01*
X-81Y72797D01*
X-60Y72799D01*
X0Y72795D01*
X3321158Y72795D01*
X3322795Y71158D01*
X3322795Y0D01*
X3322810Y-118D01*
X3322817Y-237D01*
X3322830Y-275D01*
X3322835Y-316D01*
X3322878Y-426D01*
X3322915Y-539D01*
X3322937Y-574D01*
X3322952Y-611D01*
X3323021Y-707D01*
X3323085Y-808D01*
X3323115Y-836D01*
X3323138Y-869D01*
X3323230Y-945D01*
X3323317Y-1026D01*
X3323352Y-1046D01*
X3323383Y-1071D01*
X3323491Y-1122D01*
X3323595Y-1180D01*
X3323635Y-1190D01*
X3323671Y-1207D01*
X3323788Y-1229D01*
X3323903Y-1259D01*
X3323963Y-1263D01*
X3323983Y-1267D01*
X3324004Y-1265D01*
X3324064Y-1269D01*
X3327400Y-1269D01*
X3327518Y-1254D01*
G37*
G36*
X797889Y28711D02*
X797889Y28711D01*
X797959Y28710D01*
X798046Y28731D01*
X798135Y28743D01*
X798200Y28768D01*
X798268Y28785D01*
X798347Y28827D01*
X798431Y28860D01*
X798487Y28901D01*
X798549Y28933D01*
X798616Y28994D01*
X798688Y29046D01*
X798733Y29100D01*
X798784Y29147D01*
X798834Y29222D01*
X798891Y29291D01*
X798921Y29355D01*
X798959Y29413D01*
X798988Y29498D01*
X799027Y29579D01*
X799040Y29648D01*
X799062Y29714D01*
X799069Y29803D01*
X799086Y29891D01*
X799082Y29961D01*
X799088Y30031D01*
X799072Y30119D01*
X799067Y30209D01*
X799045Y30275D01*
X799033Y30344D01*
X798996Y30426D01*
X798969Y30511D01*
X798931Y30570D01*
X798903Y30634D01*
X798847Y30704D01*
X798798Y30780D01*
X798748Y30828D01*
X798704Y30882D01*
X798632Y30937D01*
X798567Y30998D01*
X798506Y31032D01*
X798450Y31074D01*
X798305Y31145D01*
X796071Y32070D01*
X794070Y34071D01*
X792987Y36685D01*
X792987Y39515D01*
X794070Y42129D01*
X796071Y44130D01*
X798305Y45055D01*
X798366Y45090D01*
X798431Y45116D01*
X798503Y45168D01*
X798582Y45213D01*
X798632Y45261D01*
X798688Y45302D01*
X798746Y45372D01*
X798810Y45434D01*
X798846Y45494D01*
X798891Y45547D01*
X798929Y45629D01*
X798976Y45705D01*
X798997Y45772D01*
X799027Y45835D01*
X799043Y45923D01*
X799070Y46009D01*
X799073Y46079D01*
X799086Y46148D01*
X799081Y46237D01*
X799085Y46327D01*
X799071Y46395D01*
X799067Y46465D01*
X799039Y46550D01*
X799021Y46638D01*
X798990Y46701D01*
X798969Y46767D01*
X798921Y46843D01*
X798881Y46924D01*
X798836Y46977D01*
X798798Y47036D01*
X798733Y47098D01*
X798675Y47166D01*
X798618Y47206D01*
X798567Y47254D01*
X798488Y47297D01*
X798415Y47349D01*
X798349Y47374D01*
X798288Y47408D01*
X798201Y47430D01*
X798117Y47462D01*
X798048Y47470D01*
X797980Y47487D01*
X797820Y47497D01*
X89948Y47497D01*
X89850Y47485D01*
X89751Y47482D01*
X89692Y47465D01*
X89632Y47457D01*
X89540Y47421D01*
X89445Y47393D01*
X89393Y47363D01*
X89337Y47340D01*
X89257Y47282D01*
X89171Y47232D01*
X89096Y47166D01*
X89079Y47154D01*
X89071Y47144D01*
X89050Y47126D01*
X80922Y38997D01*
X80849Y38903D01*
X80771Y38814D01*
X80752Y38778D01*
X80727Y38746D01*
X80680Y38637D01*
X80626Y38531D01*
X80617Y38492D01*
X80601Y38454D01*
X80582Y38337D01*
X80556Y38221D01*
X80557Y38180D01*
X80551Y38140D01*
X80562Y38022D01*
X80566Y37903D01*
X80577Y37864D01*
X80581Y37824D01*
X80621Y37711D01*
X80654Y37597D01*
X80675Y37562D01*
X80689Y37524D01*
X80756Y37426D01*
X80816Y37323D01*
X80856Y37278D01*
X80867Y37261D01*
X80882Y37248D01*
X80922Y37202D01*
X89050Y29074D01*
X89129Y29014D01*
X89201Y28946D01*
X89254Y28917D01*
X89302Y28880D01*
X89393Y28840D01*
X89479Y28792D01*
X89538Y28777D01*
X89593Y28753D01*
X89691Y28738D01*
X89787Y28713D01*
X89887Y28707D01*
X89908Y28703D01*
X89920Y28705D01*
X89948Y28703D01*
X797820Y28703D01*
X797889Y28711D01*
G37*
G36*
X1039189Y28711D02*
X1039189Y28711D01*
X1039259Y28710D01*
X1039346Y28731D01*
X1039435Y28743D01*
X1039500Y28768D01*
X1039568Y28785D01*
X1039647Y28827D01*
X1039731Y28860D01*
X1039787Y28901D01*
X1039849Y28933D01*
X1039916Y28994D01*
X1039988Y29046D01*
X1040033Y29100D01*
X1040084Y29147D01*
X1040134Y29222D01*
X1040191Y29291D01*
X1040221Y29355D01*
X1040259Y29413D01*
X1040288Y29498D01*
X1040327Y29579D01*
X1040340Y29648D01*
X1040362Y29714D01*
X1040369Y29803D01*
X1040386Y29891D01*
X1040382Y29961D01*
X1040388Y30031D01*
X1040372Y30119D01*
X1040367Y30209D01*
X1040345Y30275D01*
X1040333Y30344D01*
X1040296Y30426D01*
X1040269Y30511D01*
X1040231Y30570D01*
X1040203Y30634D01*
X1040147Y30704D01*
X1040098Y30780D01*
X1040048Y30828D01*
X1040004Y30882D01*
X1039932Y30937D01*
X1039867Y30998D01*
X1039806Y31032D01*
X1039750Y31074D01*
X1039605Y31145D01*
X1037371Y32070D01*
X1035370Y34071D01*
X1034287Y36685D01*
X1034287Y39515D01*
X1035370Y42129D01*
X1037371Y44130D01*
X1039605Y45055D01*
X1039666Y45090D01*
X1039731Y45116D01*
X1039803Y45168D01*
X1039882Y45213D01*
X1039932Y45261D01*
X1039988Y45302D01*
X1040046Y45372D01*
X1040110Y45434D01*
X1040146Y45494D01*
X1040191Y45547D01*
X1040229Y45629D01*
X1040276Y45705D01*
X1040297Y45772D01*
X1040327Y45835D01*
X1040343Y45923D01*
X1040370Y46009D01*
X1040373Y46079D01*
X1040386Y46148D01*
X1040381Y46237D01*
X1040385Y46327D01*
X1040371Y46395D01*
X1040367Y46465D01*
X1040339Y46550D01*
X1040321Y46638D01*
X1040290Y46701D01*
X1040269Y46767D01*
X1040221Y46843D01*
X1040181Y46924D01*
X1040136Y46977D01*
X1040098Y47036D01*
X1040033Y47098D01*
X1039975Y47166D01*
X1039918Y47206D01*
X1039867Y47254D01*
X1039788Y47297D01*
X1039715Y47349D01*
X1039649Y47374D01*
X1039588Y47408D01*
X1039501Y47430D01*
X1039417Y47462D01*
X1039348Y47470D01*
X1039280Y47487D01*
X1039120Y47497D01*
X802380Y47497D01*
X802311Y47489D01*
X802241Y47490D01*
X802154Y47469D01*
X802065Y47457D01*
X802000Y47432D01*
X801932Y47415D01*
X801853Y47373D01*
X801769Y47340D01*
X801713Y47299D01*
X801651Y47267D01*
X801585Y47206D01*
X801512Y47154D01*
X801467Y47100D01*
X801416Y47053D01*
X801366Y46978D01*
X801309Y46909D01*
X801279Y46845D01*
X801241Y46787D01*
X801212Y46702D01*
X801173Y46621D01*
X801160Y46552D01*
X801138Y46486D01*
X801131Y46397D01*
X801114Y46309D01*
X801118Y46239D01*
X801112Y46169D01*
X801128Y46081D01*
X801133Y45991D01*
X801155Y45925D01*
X801167Y45856D01*
X801204Y45774D01*
X801231Y45689D01*
X801269Y45630D01*
X801297Y45566D01*
X801353Y45496D01*
X801402Y45420D01*
X801452Y45372D01*
X801496Y45318D01*
X801568Y45263D01*
X801633Y45202D01*
X801694Y45168D01*
X801750Y45126D01*
X801895Y45055D01*
X804129Y44130D01*
X806130Y42129D01*
X807213Y39515D01*
X807213Y36685D01*
X806130Y34071D01*
X804129Y32070D01*
X801895Y31145D01*
X801834Y31110D01*
X801769Y31084D01*
X801696Y31032D01*
X801618Y30987D01*
X801568Y30939D01*
X801512Y30898D01*
X801454Y30828D01*
X801390Y30766D01*
X801354Y30706D01*
X801309Y30653D01*
X801271Y30571D01*
X801224Y30495D01*
X801203Y30428D01*
X801173Y30365D01*
X801157Y30277D01*
X801130Y30191D01*
X801127Y30121D01*
X801114Y30052D01*
X801119Y29963D01*
X801115Y29873D01*
X801129Y29805D01*
X801133Y29735D01*
X801161Y29650D01*
X801179Y29562D01*
X801210Y29499D01*
X801231Y29433D01*
X801279Y29357D01*
X801319Y29276D01*
X801364Y29223D01*
X801402Y29164D01*
X801467Y29102D01*
X801525Y29034D01*
X801582Y28994D01*
X801633Y28946D01*
X801712Y28903D01*
X801785Y28851D01*
X801851Y28826D01*
X801912Y28792D01*
X801999Y28770D01*
X802083Y28738D01*
X802152Y28730D01*
X802220Y28713D01*
X802380Y28703D01*
X1039120Y28703D01*
X1039189Y28711D01*
G37*
G36*
X1459550Y28715D02*
X1459550Y28715D01*
X1459649Y28718D01*
X1459708Y28735D01*
X1459768Y28743D01*
X1459860Y28779D01*
X1459955Y28807D01*
X1460007Y28837D01*
X1460063Y28860D01*
X1460143Y28918D01*
X1460229Y28968D01*
X1460304Y29034D01*
X1460321Y29046D01*
X1460329Y29056D01*
X1460350Y29074D01*
X1468360Y37085D01*
X1530826Y37085D01*
X1530964Y37102D01*
X1531103Y37115D01*
X1531122Y37122D01*
X1531142Y37125D01*
X1531271Y37176D01*
X1531402Y37223D01*
X1531419Y37234D01*
X1531437Y37242D01*
X1531550Y37323D01*
X1531665Y37401D01*
X1531678Y37417D01*
X1531695Y37428D01*
X1531783Y37536D01*
X1531876Y37640D01*
X1531885Y37658D01*
X1531898Y37673D01*
X1531957Y37799D01*
X1532020Y37923D01*
X1532025Y37943D01*
X1532033Y37961D01*
X1532059Y38097D01*
X1532090Y38233D01*
X1532089Y38254D01*
X1532093Y38273D01*
X1532084Y38412D01*
X1532080Y38551D01*
X1532074Y38571D01*
X1532073Y38591D01*
X1532030Y38723D01*
X1531992Y38857D01*
X1531981Y38874D01*
X1531975Y38893D01*
X1531901Y39011D01*
X1531830Y39131D01*
X1531812Y39152D01*
X1531805Y39162D01*
X1531790Y39176D01*
X1531724Y39251D01*
X1523850Y47126D01*
X1523771Y47186D01*
X1523699Y47254D01*
X1523646Y47283D01*
X1523598Y47320D01*
X1523507Y47360D01*
X1523421Y47408D01*
X1523362Y47423D01*
X1523307Y47447D01*
X1523209Y47462D01*
X1523113Y47487D01*
X1523013Y47493D01*
X1522992Y47497D01*
X1522980Y47495D01*
X1522952Y47497D01*
X1170680Y47497D01*
X1170611Y47489D01*
X1170541Y47490D01*
X1170454Y47469D01*
X1170365Y47457D01*
X1170300Y47432D01*
X1170232Y47415D01*
X1170153Y47373D01*
X1170069Y47340D01*
X1170013Y47299D01*
X1169951Y47267D01*
X1169885Y47206D01*
X1169812Y47154D01*
X1169767Y47100D01*
X1169716Y47053D01*
X1169666Y46978D01*
X1169609Y46909D01*
X1169579Y46845D01*
X1169541Y46787D01*
X1169512Y46702D01*
X1169473Y46621D01*
X1169460Y46552D01*
X1169438Y46486D01*
X1169431Y46397D01*
X1169414Y46309D01*
X1169418Y46239D01*
X1169412Y46169D01*
X1169428Y46081D01*
X1169433Y45991D01*
X1169455Y45925D01*
X1169467Y45856D01*
X1169504Y45774D01*
X1169531Y45689D01*
X1169569Y45630D01*
X1169597Y45566D01*
X1169653Y45496D01*
X1169702Y45420D01*
X1169752Y45372D01*
X1169796Y45318D01*
X1169868Y45263D01*
X1169933Y45202D01*
X1169994Y45168D01*
X1170050Y45126D01*
X1170195Y45055D01*
X1172429Y44130D01*
X1174436Y42123D01*
X1174499Y42023D01*
X1174564Y41910D01*
X1174584Y41889D01*
X1174600Y41864D01*
X1174694Y41775D01*
X1174785Y41682D01*
X1174810Y41666D01*
X1174832Y41646D01*
X1174945Y41583D01*
X1175056Y41515D01*
X1175084Y41507D01*
X1175110Y41492D01*
X1175236Y41460D01*
X1175360Y41422D01*
X1175390Y41420D01*
X1175418Y41413D01*
X1175579Y41403D01*
X1461868Y41403D01*
X1463803Y39468D01*
X1463803Y36732D01*
X1461868Y34797D01*
X1175579Y34797D01*
X1175549Y34794D01*
X1175520Y34796D01*
X1175392Y34774D01*
X1175263Y34757D01*
X1175236Y34747D01*
X1175207Y34741D01*
X1175088Y34688D01*
X1174968Y34640D01*
X1174944Y34623D01*
X1174917Y34611D01*
X1174815Y34530D01*
X1174710Y34454D01*
X1174691Y34431D01*
X1174668Y34412D01*
X1174590Y34308D01*
X1174507Y34209D01*
X1174495Y34182D01*
X1174477Y34158D01*
X1174438Y34080D01*
X1172429Y32070D01*
X1170195Y31145D01*
X1170134Y31110D01*
X1170069Y31084D01*
X1169996Y31032D01*
X1169918Y30987D01*
X1169868Y30939D01*
X1169812Y30898D01*
X1169754Y30828D01*
X1169690Y30766D01*
X1169654Y30706D01*
X1169609Y30653D01*
X1169571Y30571D01*
X1169524Y30495D01*
X1169503Y30428D01*
X1169473Y30365D01*
X1169457Y30277D01*
X1169430Y30191D01*
X1169427Y30121D01*
X1169414Y30052D01*
X1169419Y29963D01*
X1169415Y29873D01*
X1169429Y29805D01*
X1169433Y29735D01*
X1169461Y29650D01*
X1169479Y29562D01*
X1169510Y29499D01*
X1169531Y29433D01*
X1169579Y29357D01*
X1169619Y29276D01*
X1169664Y29223D01*
X1169702Y29164D01*
X1169767Y29102D01*
X1169825Y29034D01*
X1169882Y28994D01*
X1169933Y28946D01*
X1170012Y28903D01*
X1170085Y28851D01*
X1170151Y28826D01*
X1170212Y28792D01*
X1170299Y28770D01*
X1170383Y28738D01*
X1170452Y28730D01*
X1170520Y28713D01*
X1170680Y28703D01*
X1459452Y28703D01*
X1459550Y28715D01*
G37*
G36*
X1166189Y28711D02*
X1166189Y28711D01*
X1166259Y28710D01*
X1166346Y28731D01*
X1166435Y28743D01*
X1166500Y28768D01*
X1166568Y28785D01*
X1166647Y28827D01*
X1166731Y28860D01*
X1166787Y28901D01*
X1166849Y28933D01*
X1166916Y28994D01*
X1166988Y29046D01*
X1167033Y29100D01*
X1167084Y29147D01*
X1167134Y29222D01*
X1167191Y29291D01*
X1167221Y29355D01*
X1167259Y29413D01*
X1167288Y29498D01*
X1167327Y29579D01*
X1167340Y29648D01*
X1167362Y29714D01*
X1167369Y29803D01*
X1167386Y29891D01*
X1167382Y29961D01*
X1167388Y30031D01*
X1167372Y30119D01*
X1167367Y30209D01*
X1167345Y30275D01*
X1167333Y30344D01*
X1167296Y30426D01*
X1167269Y30511D01*
X1167231Y30570D01*
X1167203Y30634D01*
X1167147Y30704D01*
X1167098Y30780D01*
X1167048Y30828D01*
X1167004Y30882D01*
X1166932Y30937D01*
X1166867Y30998D01*
X1166806Y31032D01*
X1166750Y31074D01*
X1166605Y31145D01*
X1164371Y32070D01*
X1162370Y34071D01*
X1161287Y36685D01*
X1161287Y39515D01*
X1162370Y42129D01*
X1164371Y44130D01*
X1166605Y45055D01*
X1166666Y45090D01*
X1166731Y45116D01*
X1166803Y45168D01*
X1166882Y45213D01*
X1166932Y45261D01*
X1166988Y45302D01*
X1167046Y45372D01*
X1167110Y45434D01*
X1167146Y45494D01*
X1167191Y45547D01*
X1167229Y45629D01*
X1167276Y45705D01*
X1167297Y45772D01*
X1167327Y45835D01*
X1167343Y45923D01*
X1167370Y46009D01*
X1167373Y46079D01*
X1167386Y46148D01*
X1167381Y46237D01*
X1167385Y46327D01*
X1167371Y46395D01*
X1167367Y46465D01*
X1167339Y46550D01*
X1167321Y46638D01*
X1167290Y46701D01*
X1167269Y46767D01*
X1167221Y46843D01*
X1167181Y46924D01*
X1167136Y46977D01*
X1167098Y47036D01*
X1167033Y47098D01*
X1166975Y47166D01*
X1166918Y47206D01*
X1166867Y47254D01*
X1166788Y47297D01*
X1166715Y47349D01*
X1166649Y47374D01*
X1166588Y47408D01*
X1166501Y47430D01*
X1166417Y47462D01*
X1166348Y47470D01*
X1166280Y47487D01*
X1166120Y47497D01*
X1043680Y47497D01*
X1043611Y47489D01*
X1043541Y47490D01*
X1043454Y47469D01*
X1043365Y47457D01*
X1043300Y47432D01*
X1043232Y47415D01*
X1043153Y47373D01*
X1043069Y47340D01*
X1043013Y47299D01*
X1042951Y47267D01*
X1042885Y47206D01*
X1042812Y47154D01*
X1042767Y47100D01*
X1042716Y47053D01*
X1042666Y46978D01*
X1042609Y46909D01*
X1042579Y46845D01*
X1042541Y46787D01*
X1042512Y46702D01*
X1042473Y46621D01*
X1042460Y46552D01*
X1042438Y46486D01*
X1042431Y46397D01*
X1042414Y46309D01*
X1042418Y46239D01*
X1042412Y46169D01*
X1042428Y46081D01*
X1042433Y45991D01*
X1042455Y45925D01*
X1042467Y45856D01*
X1042504Y45774D01*
X1042531Y45689D01*
X1042569Y45630D01*
X1042597Y45566D01*
X1042653Y45496D01*
X1042702Y45420D01*
X1042752Y45372D01*
X1042796Y45318D01*
X1042868Y45263D01*
X1042933Y45202D01*
X1042994Y45168D01*
X1043050Y45126D01*
X1043195Y45055D01*
X1045429Y44130D01*
X1047430Y42129D01*
X1048513Y39515D01*
X1048513Y36685D01*
X1047430Y34071D01*
X1045429Y32070D01*
X1043195Y31145D01*
X1043134Y31110D01*
X1043069Y31084D01*
X1042996Y31032D01*
X1042918Y30987D01*
X1042868Y30939D01*
X1042812Y30898D01*
X1042754Y30828D01*
X1042690Y30766D01*
X1042654Y30706D01*
X1042609Y30653D01*
X1042571Y30571D01*
X1042524Y30495D01*
X1042503Y30428D01*
X1042473Y30365D01*
X1042457Y30277D01*
X1042430Y30191D01*
X1042427Y30121D01*
X1042414Y30052D01*
X1042419Y29963D01*
X1042415Y29873D01*
X1042429Y29805D01*
X1042433Y29735D01*
X1042461Y29650D01*
X1042479Y29562D01*
X1042510Y29499D01*
X1042531Y29433D01*
X1042579Y29357D01*
X1042619Y29276D01*
X1042664Y29223D01*
X1042702Y29164D01*
X1042767Y29102D01*
X1042825Y29034D01*
X1042882Y28994D01*
X1042933Y28946D01*
X1043012Y28903D01*
X1043085Y28851D01*
X1043151Y28826D01*
X1043212Y28792D01*
X1043299Y28770D01*
X1043383Y28738D01*
X1043452Y28730D01*
X1043520Y28713D01*
X1043680Y28703D01*
X1166120Y28703D01*
X1166189Y28711D01*
G37*
G36*
X1579236Y37100D02*
X1579236Y37100D01*
X1579355Y37107D01*
X1579393Y37120D01*
X1579434Y37125D01*
X1579544Y37168D01*
X1579657Y37205D01*
X1579692Y37227D01*
X1579729Y37242D01*
X1579825Y37311D01*
X1579926Y37375D01*
X1579954Y37405D01*
X1579987Y37428D01*
X1580063Y37520D01*
X1580144Y37607D01*
X1580164Y37642D01*
X1580189Y37673D01*
X1580240Y37781D01*
X1580298Y37885D01*
X1580308Y37925D01*
X1580325Y37961D01*
X1580347Y38078D01*
X1580377Y38193D01*
X1580381Y38253D01*
X1580385Y38273D01*
X1580383Y38294D01*
X1580387Y38354D01*
X1580387Y39515D01*
X1581470Y42129D01*
X1583471Y44130D01*
X1585705Y45055D01*
X1585766Y45090D01*
X1585831Y45116D01*
X1585903Y45168D01*
X1585982Y45213D01*
X1586032Y45261D01*
X1586088Y45302D01*
X1586146Y45372D01*
X1586210Y45434D01*
X1586246Y45494D01*
X1586291Y45547D01*
X1586329Y45629D01*
X1586376Y45705D01*
X1586397Y45772D01*
X1586427Y45835D01*
X1586443Y45923D01*
X1586470Y46009D01*
X1586473Y46079D01*
X1586486Y46148D01*
X1586481Y46237D01*
X1586485Y46327D01*
X1586471Y46395D01*
X1586467Y46465D01*
X1586439Y46550D01*
X1586421Y46638D01*
X1586390Y46701D01*
X1586369Y46767D01*
X1586321Y46843D01*
X1586281Y46924D01*
X1586236Y46977D01*
X1586198Y47036D01*
X1586133Y47098D01*
X1586075Y47166D01*
X1586018Y47206D01*
X1585967Y47254D01*
X1585888Y47297D01*
X1585815Y47349D01*
X1585749Y47374D01*
X1585688Y47408D01*
X1585601Y47430D01*
X1585517Y47462D01*
X1585448Y47470D01*
X1585380Y47487D01*
X1585220Y47497D01*
X1550448Y47497D01*
X1550350Y47485D01*
X1550251Y47482D01*
X1550192Y47465D01*
X1550132Y47457D01*
X1550040Y47421D01*
X1549945Y47393D01*
X1549893Y47363D01*
X1549837Y47340D01*
X1549757Y47282D01*
X1549671Y47232D01*
X1549596Y47166D01*
X1549579Y47154D01*
X1549571Y47144D01*
X1549550Y47126D01*
X1541676Y39251D01*
X1541591Y39142D01*
X1541502Y39035D01*
X1541494Y39016D01*
X1541481Y39000D01*
X1541426Y38872D01*
X1541367Y38747D01*
X1541363Y38727D01*
X1541355Y38708D01*
X1541333Y38570D01*
X1541307Y38434D01*
X1541308Y38414D01*
X1541305Y38394D01*
X1541318Y38255D01*
X1541327Y38117D01*
X1541333Y38098D01*
X1541335Y38078D01*
X1541382Y37946D01*
X1541425Y37815D01*
X1541436Y37797D01*
X1541443Y37778D01*
X1541521Y37663D01*
X1541595Y37546D01*
X1541610Y37532D01*
X1541621Y37515D01*
X1541725Y37423D01*
X1541827Y37328D01*
X1541844Y37318D01*
X1541860Y37305D01*
X1541984Y37241D01*
X1542105Y37174D01*
X1542125Y37169D01*
X1542143Y37160D01*
X1542279Y37130D01*
X1542413Y37095D01*
X1542441Y37093D01*
X1542453Y37090D01*
X1542474Y37091D01*
X1542574Y37085D01*
X1579118Y37085D01*
X1579236Y37100D01*
G37*
D10*
X25400Y50800D03*
X25400Y25400D03*
D11*
X72728Y33782D02*
X79672Y33782D01*
X64346Y25400D02*
X25400Y25400D01*
X88054Y25400D02*
X1461346Y25400D01*
X1586654Y25400D02*
X3252046Y25400D01*
X3301154Y25400D02*
X3302000Y25400D01*
X72728Y33782D02*
X64346Y25400D01*
X79672Y33782D02*
X88054Y25400D01*
X1461346Y25400D02*
X1469728Y33782D01*
X1578272Y33782D02*
X1586654Y25400D01*
X3252046Y25400D02*
X3260428Y33782D01*
X3292772Y33782D02*
X3301154Y25400D01*
X1578272Y33782D02*
X1469728Y33782D01*
X3260428Y33782D02*
X3292772Y33782D01*
D10*
X3289300Y50800D03*
D11*
X1540172Y42418D02*
X1533228Y42418D01*
X79672Y42418D02*
X72728Y42418D01*
X3275754Y50800D02*
X3289300Y50800D01*
X1715346Y50800D02*
X1548554Y50800D01*
X1524846Y50800D02*
X88054Y50800D01*
X64346Y50800D02*
X38100Y50800D01*
X3267372Y42418D02*
X3275754Y50800D01*
X1723728Y42418D02*
X1715346Y50800D01*
X1548554Y50800D02*
X1540172Y42418D01*
X1533228Y42418D02*
X1524846Y50800D01*
X88054Y50800D02*
X79672Y42418D01*
X72728Y42418D02*
X64346Y50800D01*
X1723728Y42418D02*
X3267372Y42418D01*
D10*
X3289300Y25400D03*
X3263900Y50800D03*
X3263900Y25400D03*
X76200Y50800D03*
X76200Y25400D03*
X800100Y38100D03*
X1041400Y38100D03*
X1168400Y38100D03*
D11*
X1460500Y38100D01*
D10*
X1473200Y25400D03*
X1727200Y50800D03*
X1587500Y38100D03*
D11*
X1714500Y38100D01*
D10*
X1574800Y25400D03*
X1536700Y50800D03*
M02*
