G04 EAGLE Gerber RS-274X export*
G75*
%MOMM*%
%FSLAX34Y34*%
%LPD*%
%INBottom Copper*%
%IPPOS*%
%AMOC8*
5,1,8,0,0,1.08239X$1,22.5*%
G01*
%ADD10C,1.016000*%
%ADD11C,0.254000*%

G36*
X3316054Y2810D02*
X3316054Y2810D01*
X3316173Y2817D01*
X3316211Y2830D01*
X3316252Y2835D01*
X3316362Y2878D01*
X3316475Y2915D01*
X3316510Y2937D01*
X3316547Y2952D01*
X3316643Y3021D01*
X3316744Y3085D01*
X3316772Y3115D01*
X3316805Y3138D01*
X3316881Y3230D01*
X3316962Y3317D01*
X3316982Y3352D01*
X3317007Y3383D01*
X3317058Y3491D01*
X3317116Y3595D01*
X3317126Y3635D01*
X3317143Y3671D01*
X3317165Y3788D01*
X3317195Y3903D01*
X3317199Y3963D01*
X3317203Y3983D01*
X3317201Y4004D01*
X3317205Y4064D01*
X3317205Y65936D01*
X3317190Y66054D01*
X3317183Y66173D01*
X3317170Y66211D01*
X3317165Y66252D01*
X3317122Y66362D01*
X3317085Y66475D01*
X3317063Y66510D01*
X3317048Y66547D01*
X3316979Y66643D01*
X3316915Y66744D01*
X3316885Y66772D01*
X3316862Y66805D01*
X3316770Y66881D01*
X3316683Y66962D01*
X3316648Y66982D01*
X3316617Y67007D01*
X3316509Y67058D01*
X3316405Y67116D01*
X3316365Y67126D01*
X3316329Y67143D01*
X3316212Y67165D01*
X3316097Y67195D01*
X3316037Y67199D01*
X3316017Y67203D01*
X3315996Y67201D01*
X3315936Y67205D01*
X3267930Y67205D01*
X3267792Y67188D01*
X3267653Y67175D01*
X3267634Y67168D01*
X3267614Y67165D01*
X3267485Y67114D01*
X3267354Y67067D01*
X3267337Y67056D01*
X3267319Y67048D01*
X3267206Y66967D01*
X3267091Y66889D01*
X3267078Y66873D01*
X3267061Y66862D01*
X3266972Y66754D01*
X3266880Y66650D01*
X3266871Y66632D01*
X3266858Y66617D01*
X3266799Y66491D01*
X3266736Y66367D01*
X3266731Y66347D01*
X3266723Y66329D01*
X3266697Y66193D01*
X3266666Y66057D01*
X3266667Y66036D01*
X3266663Y66017D01*
X3266672Y65878D01*
X3266676Y65739D01*
X3266682Y65719D01*
X3266683Y65699D01*
X3266726Y65567D01*
X3266764Y65433D01*
X3266775Y65416D01*
X3266781Y65397D01*
X3266855Y65279D01*
X3266926Y65159D01*
X3266944Y65138D01*
X3266951Y65128D01*
X3266966Y65114D01*
X3267032Y65038D01*
X3267203Y64868D01*
X3267203Y62132D01*
X3265010Y59939D01*
X3264979Y59899D01*
X3264942Y59866D01*
X3264882Y59774D01*
X3264815Y59687D01*
X3264795Y59642D01*
X3264768Y59600D01*
X3264732Y59497D01*
X3264688Y59396D01*
X3264680Y59347D01*
X3264664Y59300D01*
X3264656Y59190D01*
X3264638Y59082D01*
X3264643Y59032D01*
X3264639Y58983D01*
X3264658Y58874D01*
X3264668Y58765D01*
X3264685Y58718D01*
X3264694Y58669D01*
X3264739Y58569D01*
X3264776Y58466D01*
X3264804Y58424D01*
X3264824Y58379D01*
X3264893Y58294D01*
X3264954Y58203D01*
X3264992Y58170D01*
X3265023Y58131D01*
X3265110Y58065D01*
X3265193Y57992D01*
X3265237Y57969D01*
X3265277Y57940D01*
X3265421Y57869D01*
X3267929Y56830D01*
X3269930Y54829D01*
X3271013Y52215D01*
X3271013Y49385D01*
X3269930Y46771D01*
X3267929Y44770D01*
X3265315Y43687D01*
X3262485Y43687D01*
X3259871Y44770D01*
X3257870Y46771D01*
X3256831Y49279D01*
X3256807Y49322D01*
X3256790Y49369D01*
X3256728Y49460D01*
X3256674Y49555D01*
X3256639Y49591D01*
X3256611Y49632D01*
X3256529Y49705D01*
X3256453Y49783D01*
X3256410Y49809D01*
X3256373Y49842D01*
X3256275Y49892D01*
X3256181Y49950D01*
X3256134Y49964D01*
X3256090Y49987D01*
X3255982Y50011D01*
X3255877Y50043D01*
X3255828Y50046D01*
X3255779Y50056D01*
X3255669Y50053D01*
X3255560Y50058D01*
X3255511Y50048D01*
X3255461Y50047D01*
X3255356Y50016D01*
X3255248Y49994D01*
X3255204Y49972D01*
X3255156Y49958D01*
X3255062Y49903D01*
X3254963Y49854D01*
X3254925Y49822D01*
X3254882Y49797D01*
X3254761Y49690D01*
X3252568Y47497D01*
X1737686Y47497D01*
X1736091Y49092D01*
X1736052Y49123D01*
X1736018Y49159D01*
X1735927Y49220D01*
X1735840Y49287D01*
X1735794Y49307D01*
X1735753Y49334D01*
X1735649Y49370D01*
X1735548Y49414D01*
X1735499Y49421D01*
X1735452Y49437D01*
X1735342Y49446D01*
X1735234Y49463D01*
X1735184Y49459D01*
X1735135Y49463D01*
X1735026Y49444D01*
X1734917Y49434D01*
X1734870Y49417D01*
X1734821Y49408D01*
X1734721Y49363D01*
X1734618Y49326D01*
X1734577Y49298D01*
X1734531Y49278D01*
X1734446Y49209D01*
X1734355Y49147D01*
X1734322Y49110D01*
X1734283Y49079D01*
X1734217Y48991D01*
X1734144Y48909D01*
X1734122Y48865D01*
X1734092Y48825D01*
X1734021Y48680D01*
X1733230Y46771D01*
X1731229Y44770D01*
X1728615Y43687D01*
X1725785Y43687D01*
X1723171Y44770D01*
X1721170Y46771D01*
X1720131Y49279D01*
X1720107Y49322D01*
X1720090Y49369D01*
X1720028Y49460D01*
X1719974Y49555D01*
X1719939Y49591D01*
X1719911Y49632D01*
X1719829Y49705D01*
X1719753Y49783D01*
X1719710Y49809D01*
X1719673Y49842D01*
X1719575Y49892D01*
X1719481Y49950D01*
X1719434Y49964D01*
X1719390Y49987D01*
X1719282Y50011D01*
X1719177Y50043D01*
X1719128Y50046D01*
X1719079Y50056D01*
X1718969Y50053D01*
X1718860Y50058D01*
X1718811Y50048D01*
X1718762Y50047D01*
X1718656Y50016D01*
X1718548Y49994D01*
X1718504Y49972D01*
X1718456Y49958D01*
X1718362Y49903D01*
X1718263Y49854D01*
X1718225Y49822D01*
X1718182Y49797D01*
X1718061Y49690D01*
X1713856Y45486D01*
X1711550Y43179D01*
X1594994Y43179D01*
X1594945Y43173D01*
X1594895Y43175D01*
X1594788Y43153D01*
X1594679Y43139D01*
X1594633Y43121D01*
X1594584Y43111D01*
X1594485Y43063D01*
X1594383Y43022D01*
X1594343Y42993D01*
X1594298Y42971D01*
X1594215Y42900D01*
X1594126Y42836D01*
X1594094Y42797D01*
X1594056Y42765D01*
X1593993Y42675D01*
X1593923Y42591D01*
X1593902Y42546D01*
X1593873Y42505D01*
X1593834Y42402D01*
X1593788Y42303D01*
X1593778Y42254D01*
X1593761Y42208D01*
X1593748Y42098D01*
X1593728Y41991D01*
X1593731Y41941D01*
X1593725Y41892D01*
X1593741Y41783D01*
X1593747Y41673D01*
X1593763Y41626D01*
X1593770Y41577D01*
X1593822Y41424D01*
X1594613Y39515D01*
X1594613Y36685D01*
X1593530Y34071D01*
X1591529Y32070D01*
X1589295Y31145D01*
X1589234Y31110D01*
X1589169Y31084D01*
X1589097Y31032D01*
X1589018Y30987D01*
X1588968Y30939D01*
X1588912Y30898D01*
X1588854Y30828D01*
X1588790Y30766D01*
X1588754Y30706D01*
X1588709Y30653D01*
X1588671Y30571D01*
X1588624Y30495D01*
X1588603Y30428D01*
X1588573Y30365D01*
X1588557Y30277D01*
X1588530Y30191D01*
X1588527Y30121D01*
X1588514Y30052D01*
X1588519Y29963D01*
X1588515Y29873D01*
X1588529Y29805D01*
X1588533Y29735D01*
X1588561Y29650D01*
X1588579Y29562D01*
X1588610Y29499D01*
X1588631Y29433D01*
X1588679Y29357D01*
X1588719Y29276D01*
X1588764Y29223D01*
X1588802Y29164D01*
X1588867Y29102D01*
X1588925Y29034D01*
X1588982Y28994D01*
X1589033Y28946D01*
X1589112Y28903D01*
X1589185Y28851D01*
X1589251Y28826D01*
X1589312Y28792D01*
X1589399Y28770D01*
X1589483Y28738D01*
X1589552Y28730D01*
X1589620Y28713D01*
X1589780Y28703D01*
X3256721Y28703D01*
X3256751Y28706D01*
X3256780Y28704D01*
X3256908Y28726D01*
X3257037Y28743D01*
X3257064Y28753D01*
X3257093Y28759D01*
X3257212Y28812D01*
X3257332Y28860D01*
X3257356Y28877D01*
X3257383Y28889D01*
X3257485Y28970D01*
X3257590Y29046D01*
X3257609Y29069D01*
X3257632Y29088D01*
X3257710Y29192D01*
X3257793Y29291D01*
X3257805Y29318D01*
X3257823Y29342D01*
X3257862Y29420D01*
X3259871Y31430D01*
X3262485Y32513D01*
X3265315Y32513D01*
X3267929Y31430D01*
X3269930Y29429D01*
X3271013Y26815D01*
X3271013Y23985D01*
X3269930Y21371D01*
X3267929Y19370D01*
X3265315Y18287D01*
X3262485Y18287D01*
X3259871Y19370D01*
X3257864Y21377D01*
X3257801Y21477D01*
X3257736Y21590D01*
X3257716Y21611D01*
X3257700Y21636D01*
X3257606Y21725D01*
X3257515Y21818D01*
X3257490Y21834D01*
X3257468Y21854D01*
X3257355Y21917D01*
X3257244Y21985D01*
X3257216Y21993D01*
X3257190Y22008D01*
X3257064Y22040D01*
X3256940Y22078D01*
X3256910Y22080D01*
X3256882Y22087D01*
X3256721Y22097D01*
X1588548Y22097D01*
X1588450Y22085D01*
X1588351Y22082D01*
X1588292Y22065D01*
X1588232Y22057D01*
X1588140Y22021D01*
X1588045Y21993D01*
X1587993Y21963D01*
X1587937Y21940D01*
X1587857Y21882D01*
X1587771Y21832D01*
X1587696Y21766D01*
X1587679Y21754D01*
X1587671Y21744D01*
X1587650Y21726D01*
X1579640Y13715D01*
X71360Y13715D01*
X63350Y21726D01*
X63271Y21786D01*
X63199Y21854D01*
X63146Y21883D01*
X63098Y21920D01*
X63007Y21960D01*
X62921Y22008D01*
X62862Y22023D01*
X62807Y22047D01*
X62709Y22062D01*
X62613Y22087D01*
X62513Y22093D01*
X62492Y22097D01*
X62480Y22095D01*
X62452Y22097D01*
X52694Y22097D01*
X52596Y22085D01*
X52497Y22082D01*
X52438Y22065D01*
X52378Y22057D01*
X52286Y22021D01*
X52191Y21993D01*
X52139Y21963D01*
X52083Y21940D01*
X52003Y21882D01*
X51917Y21832D01*
X51842Y21766D01*
X51825Y21754D01*
X51817Y21744D01*
X51796Y21726D01*
X39468Y9397D01*
X36732Y9397D01*
X34797Y11332D01*
X34797Y14068D01*
X49432Y28703D01*
X65714Y28703D01*
X67309Y27108D01*
X67348Y27077D01*
X67382Y27041D01*
X67473Y26980D01*
X67560Y26913D01*
X67606Y26893D01*
X67647Y26866D01*
X67751Y26830D01*
X67852Y26786D01*
X67901Y26779D01*
X67948Y26763D01*
X68058Y26754D01*
X68166Y26737D01*
X68216Y26741D01*
X68265Y26737D01*
X68374Y26756D01*
X68483Y26766D01*
X68530Y26783D01*
X68579Y26792D01*
X68679Y26837D01*
X68782Y26874D01*
X68823Y26902D01*
X68869Y26922D01*
X68954Y26991D01*
X69045Y27053D01*
X69078Y27090D01*
X69117Y27121D01*
X69183Y27209D01*
X69256Y27291D01*
X69278Y27335D01*
X69308Y27375D01*
X69379Y27520D01*
X70170Y29429D01*
X72171Y31430D01*
X74785Y32513D01*
X77615Y32513D01*
X80229Y31430D01*
X82230Y29429D01*
X83313Y26815D01*
X83313Y23985D01*
X82522Y22076D01*
X82509Y22028D01*
X82488Y21983D01*
X82467Y21875D01*
X82438Y21769D01*
X82437Y21719D01*
X82428Y21670D01*
X82435Y21561D01*
X82433Y21451D01*
X82444Y21403D01*
X82447Y21353D01*
X82481Y21249D01*
X82507Y21142D01*
X82530Y21098D01*
X82546Y21051D01*
X82604Y20958D01*
X82656Y20861D01*
X82689Y20824D01*
X82716Y20782D01*
X82796Y20707D01*
X82870Y20625D01*
X82911Y20598D01*
X82947Y20564D01*
X83043Y20511D01*
X83135Y20451D01*
X83182Y20434D01*
X83226Y20410D01*
X83332Y20383D01*
X83436Y20347D01*
X83486Y20343D01*
X83534Y20331D01*
X83694Y20321D01*
X1407044Y20321D01*
X1407182Y20338D01*
X1407321Y20351D01*
X1407340Y20358D01*
X1407360Y20361D01*
X1407489Y20412D01*
X1407620Y20459D01*
X1407637Y20470D01*
X1407655Y20478D01*
X1407768Y20559D01*
X1407883Y20637D01*
X1407896Y20653D01*
X1407913Y20664D01*
X1408001Y20772D01*
X1408094Y20876D01*
X1408103Y20894D01*
X1408116Y20909D01*
X1408175Y21035D01*
X1408238Y21159D01*
X1408243Y21179D01*
X1408251Y21197D01*
X1408277Y21333D01*
X1408308Y21469D01*
X1408307Y21490D01*
X1408311Y21509D01*
X1408302Y21648D01*
X1408298Y21787D01*
X1408292Y21807D01*
X1408291Y21827D01*
X1408248Y21959D01*
X1408210Y22093D01*
X1408199Y22110D01*
X1408193Y22129D01*
X1408119Y22247D01*
X1408048Y22367D01*
X1408030Y22388D01*
X1408023Y22398D01*
X1408008Y22412D01*
X1407942Y22487D01*
X1396004Y34426D01*
X1395925Y34486D01*
X1395853Y34554D01*
X1395800Y34583D01*
X1395752Y34620D01*
X1395661Y34660D01*
X1395575Y34708D01*
X1395516Y34723D01*
X1395461Y34747D01*
X1395363Y34762D01*
X1395267Y34787D01*
X1395167Y34793D01*
X1395146Y34797D01*
X1395134Y34795D01*
X1395106Y34797D01*
X1175579Y34797D01*
X1175549Y34794D01*
X1175520Y34796D01*
X1175392Y34774D01*
X1175263Y34757D01*
X1175236Y34747D01*
X1175207Y34741D01*
X1175088Y34688D01*
X1174968Y34640D01*
X1174944Y34623D01*
X1174917Y34611D01*
X1174815Y34530D01*
X1174710Y34454D01*
X1174691Y34431D01*
X1174668Y34412D01*
X1174590Y34308D01*
X1174507Y34209D01*
X1174495Y34182D01*
X1174477Y34158D01*
X1174438Y34080D01*
X1172429Y32070D01*
X1169815Y30987D01*
X1166985Y30987D01*
X1164371Y32070D01*
X1162364Y34077D01*
X1162301Y34177D01*
X1162236Y34290D01*
X1162216Y34311D01*
X1162200Y34336D01*
X1162106Y34425D01*
X1162015Y34518D01*
X1161990Y34534D01*
X1161968Y34554D01*
X1161855Y34617D01*
X1161744Y34685D01*
X1161716Y34693D01*
X1161690Y34708D01*
X1161564Y34740D01*
X1161440Y34778D01*
X1161410Y34780D01*
X1161382Y34787D01*
X1161221Y34797D01*
X1048579Y34797D01*
X1048549Y34794D01*
X1048520Y34796D01*
X1048392Y34774D01*
X1048263Y34757D01*
X1048236Y34747D01*
X1048207Y34741D01*
X1048088Y34688D01*
X1047968Y34640D01*
X1047944Y34623D01*
X1047917Y34611D01*
X1047815Y34530D01*
X1047710Y34454D01*
X1047691Y34431D01*
X1047668Y34412D01*
X1047590Y34308D01*
X1047507Y34209D01*
X1047495Y34182D01*
X1047477Y34158D01*
X1047438Y34080D01*
X1045429Y32070D01*
X1042815Y30987D01*
X1039985Y30987D01*
X1037371Y32070D01*
X1035370Y34071D01*
X1034287Y36685D01*
X1034287Y39515D01*
X1035370Y42129D01*
X1037371Y44130D01*
X1039605Y45055D01*
X1039666Y45090D01*
X1039731Y45116D01*
X1039803Y45168D01*
X1039882Y45213D01*
X1039932Y45261D01*
X1039988Y45302D01*
X1040046Y45372D01*
X1040110Y45434D01*
X1040146Y45494D01*
X1040191Y45547D01*
X1040229Y45629D01*
X1040276Y45705D01*
X1040297Y45772D01*
X1040327Y45835D01*
X1040343Y45923D01*
X1040370Y46009D01*
X1040373Y46079D01*
X1040386Y46148D01*
X1040381Y46237D01*
X1040385Y46327D01*
X1040371Y46395D01*
X1040367Y46465D01*
X1040339Y46550D01*
X1040321Y46638D01*
X1040290Y46701D01*
X1040269Y46767D01*
X1040221Y46843D01*
X1040181Y46924D01*
X1040136Y46977D01*
X1040098Y47036D01*
X1040033Y47098D01*
X1039975Y47166D01*
X1039918Y47206D01*
X1039867Y47254D01*
X1039788Y47297D01*
X1039715Y47349D01*
X1039649Y47374D01*
X1039588Y47408D01*
X1039501Y47430D01*
X1039417Y47462D01*
X1039348Y47470D01*
X1039280Y47487D01*
X1039120Y47497D01*
X802380Y47497D01*
X802311Y47489D01*
X802241Y47490D01*
X802154Y47469D01*
X802065Y47457D01*
X802000Y47432D01*
X801932Y47415D01*
X801853Y47373D01*
X801769Y47340D01*
X801713Y47299D01*
X801651Y47267D01*
X801585Y47206D01*
X801512Y47154D01*
X801467Y47100D01*
X801416Y47053D01*
X801366Y46978D01*
X801309Y46909D01*
X801279Y46845D01*
X801241Y46787D01*
X801212Y46702D01*
X801173Y46621D01*
X801160Y46552D01*
X801138Y46486D01*
X801131Y46397D01*
X801114Y46309D01*
X801118Y46239D01*
X801112Y46169D01*
X801128Y46081D01*
X801133Y45991D01*
X801155Y45925D01*
X801167Y45856D01*
X801204Y45774D01*
X801231Y45689D01*
X801269Y45630D01*
X801297Y45566D01*
X801353Y45496D01*
X801402Y45420D01*
X801452Y45372D01*
X801496Y45318D01*
X801568Y45263D01*
X801633Y45202D01*
X801694Y45168D01*
X801750Y45126D01*
X801895Y45055D01*
X804129Y44130D01*
X806130Y42129D01*
X807213Y39515D01*
X807213Y36685D01*
X806130Y34071D01*
X804129Y32070D01*
X801515Y30987D01*
X798685Y30987D01*
X796071Y32070D01*
X794070Y34071D01*
X792987Y36685D01*
X792987Y39515D01*
X794070Y42129D01*
X796071Y44130D01*
X798305Y45055D01*
X798366Y45090D01*
X798431Y45116D01*
X798503Y45168D01*
X798582Y45213D01*
X798632Y45261D01*
X798688Y45302D01*
X798746Y45372D01*
X798810Y45434D01*
X798846Y45494D01*
X798891Y45547D01*
X798929Y45629D01*
X798976Y45705D01*
X798997Y45772D01*
X799027Y45835D01*
X799043Y45923D01*
X799070Y46009D01*
X799073Y46079D01*
X799086Y46148D01*
X799081Y46237D01*
X799085Y46327D01*
X799071Y46395D01*
X799067Y46465D01*
X799039Y46550D01*
X799021Y46638D01*
X798990Y46701D01*
X798969Y46767D01*
X798921Y46843D01*
X798881Y46924D01*
X798836Y46977D01*
X798798Y47036D01*
X798733Y47098D01*
X798675Y47166D01*
X798618Y47206D01*
X798567Y47254D01*
X798488Y47297D01*
X798415Y47349D01*
X798349Y47374D01*
X798288Y47408D01*
X798201Y47430D01*
X798117Y47462D01*
X798048Y47470D01*
X797980Y47487D01*
X797820Y47497D01*
X83379Y47497D01*
X83349Y47494D01*
X83320Y47496D01*
X83192Y47474D01*
X83063Y47457D01*
X83036Y47447D01*
X83007Y47441D01*
X82888Y47388D01*
X82768Y47340D01*
X82744Y47323D01*
X82717Y47311D01*
X82615Y47230D01*
X82510Y47154D01*
X82491Y47131D01*
X82468Y47112D01*
X82390Y47008D01*
X82307Y46909D01*
X82295Y46882D01*
X82277Y46858D01*
X82238Y46780D01*
X80229Y44770D01*
X77615Y43687D01*
X74785Y43687D01*
X72171Y44770D01*
X70170Y46771D01*
X69087Y49385D01*
X69087Y52215D01*
X70170Y54829D01*
X72171Y56830D01*
X74785Y57913D01*
X77615Y57913D01*
X80229Y56830D01*
X82236Y54823D01*
X82299Y54723D01*
X82364Y54610D01*
X82384Y54589D01*
X82400Y54564D01*
X82494Y54475D01*
X82585Y54382D01*
X82610Y54366D01*
X82632Y54346D01*
X82745Y54283D01*
X82856Y54215D01*
X82884Y54207D01*
X82910Y54192D01*
X83036Y54160D01*
X83160Y54122D01*
X83190Y54120D01*
X83218Y54113D01*
X83379Y54103D01*
X1522952Y54103D01*
X1523050Y54115D01*
X1523149Y54118D01*
X1523208Y54135D01*
X1523268Y54143D01*
X1523360Y54179D01*
X1523455Y54207D01*
X1523507Y54237D01*
X1523563Y54260D01*
X1523643Y54318D01*
X1523729Y54368D01*
X1523804Y54434D01*
X1523821Y54446D01*
X1523829Y54456D01*
X1523850Y54474D01*
X1531860Y62485D01*
X1732040Y62485D01*
X1740050Y54474D01*
X1740129Y54414D01*
X1740201Y54346D01*
X1740254Y54317D01*
X1740302Y54280D01*
X1740393Y54240D01*
X1740479Y54192D01*
X1740538Y54177D01*
X1740593Y54153D01*
X1740691Y54138D01*
X1740787Y54113D01*
X1740887Y54107D01*
X1740908Y54103D01*
X1740920Y54105D01*
X1740948Y54103D01*
X3249306Y54103D01*
X3249404Y54115D01*
X3249503Y54118D01*
X3249562Y54135D01*
X3249622Y54143D01*
X3249714Y54179D01*
X3249809Y54207D01*
X3249861Y54237D01*
X3249917Y54260D01*
X3249997Y54318D01*
X3250083Y54368D01*
X3250158Y54434D01*
X3250175Y54446D01*
X3250183Y54456D01*
X3250204Y54474D01*
X3260768Y65039D01*
X3260853Y65148D01*
X3260942Y65255D01*
X3260950Y65274D01*
X3260963Y65290D01*
X3261018Y65418D01*
X3261077Y65543D01*
X3261081Y65563D01*
X3261089Y65582D01*
X3261111Y65720D01*
X3261137Y65856D01*
X3261136Y65876D01*
X3261139Y65896D01*
X3261126Y66035D01*
X3261117Y66173D01*
X3261111Y66192D01*
X3261109Y66212D01*
X3261062Y66344D01*
X3261019Y66475D01*
X3261008Y66493D01*
X3261001Y66512D01*
X3260923Y66627D01*
X3260849Y66744D01*
X3260834Y66758D01*
X3260823Y66775D01*
X3260719Y66867D01*
X3260617Y66962D01*
X3260600Y66972D01*
X3260584Y66985D01*
X3260460Y67049D01*
X3260339Y67116D01*
X3260319Y67121D01*
X3260301Y67130D01*
X3260165Y67160D01*
X3260031Y67195D01*
X3260003Y67197D01*
X3259991Y67200D01*
X3259970Y67199D01*
X3259870Y67205D01*
X4064Y67205D01*
X3946Y67190D01*
X3827Y67183D01*
X3789Y67170D01*
X3748Y67165D01*
X3638Y67122D01*
X3525Y67085D01*
X3490Y67063D01*
X3453Y67048D01*
X3357Y66979D01*
X3256Y66915D01*
X3228Y66885D01*
X3195Y66862D01*
X3119Y66770D01*
X3038Y66683D01*
X3018Y66648D01*
X2993Y66617D01*
X2942Y66509D01*
X2884Y66405D01*
X2874Y66365D01*
X2857Y66329D01*
X2835Y66212D01*
X2805Y66097D01*
X2801Y66037D01*
X2797Y66017D01*
X2799Y65996D01*
X2795Y65936D01*
X2795Y4064D01*
X2810Y3946D01*
X2817Y3827D01*
X2830Y3789D01*
X2835Y3748D01*
X2878Y3638D01*
X2915Y3525D01*
X2937Y3490D01*
X2952Y3453D01*
X3021Y3357D01*
X3085Y3256D01*
X3115Y3228D01*
X3138Y3195D01*
X3230Y3119D01*
X3317Y3038D01*
X3352Y3018D01*
X3383Y2993D01*
X3491Y2942D01*
X3595Y2884D01*
X3635Y2874D01*
X3671Y2857D01*
X3788Y2835D01*
X3903Y2805D01*
X3963Y2801D01*
X3983Y2797D01*
X4004Y2799D01*
X4064Y2795D01*
X3315936Y2795D01*
X3316054Y2810D01*
G37*
G36*
X3365618Y-1254D02*
X3365618Y-1254D01*
X3365737Y-1247D01*
X3365775Y-1234D01*
X3365816Y-1229D01*
X3365926Y-1186D01*
X3366039Y-1149D01*
X3366074Y-1127D01*
X3366111Y-1112D01*
X3366207Y-1043D01*
X3366308Y-979D01*
X3366336Y-949D01*
X3366369Y-926D01*
X3366445Y-834D01*
X3366526Y-747D01*
X3366546Y-712D01*
X3366571Y-681D01*
X3366622Y-573D01*
X3366680Y-469D01*
X3366690Y-429D01*
X3366707Y-393D01*
X3366729Y-276D01*
X3366759Y-161D01*
X3366763Y-101D01*
X3366767Y-81D01*
X3366765Y-60D01*
X3366769Y0D01*
X3366769Y101600D01*
X3366754Y101718D01*
X3366747Y101837D01*
X3366734Y101875D01*
X3366729Y101916D01*
X3366686Y102026D01*
X3366649Y102139D01*
X3366627Y102174D01*
X3366612Y102211D01*
X3366543Y102307D01*
X3366479Y102408D01*
X3366449Y102436D01*
X3366426Y102469D01*
X3366334Y102545D01*
X3366247Y102626D01*
X3366212Y102646D01*
X3366181Y102671D01*
X3366073Y102722D01*
X3365969Y102780D01*
X3365929Y102790D01*
X3365893Y102807D01*
X3365776Y102829D01*
X3365661Y102859D01*
X3365601Y102863D01*
X3365581Y102867D01*
X3365560Y102865D01*
X3365500Y102869D01*
X0Y102869D01*
X-118Y102854D01*
X-237Y102847D01*
X-275Y102834D01*
X-316Y102829D01*
X-426Y102786D01*
X-539Y102749D01*
X-574Y102727D01*
X-611Y102712D01*
X-707Y102643D01*
X-808Y102579D01*
X-836Y102549D01*
X-869Y102526D01*
X-945Y102434D01*
X-1026Y102347D01*
X-1046Y102312D01*
X-1071Y102281D01*
X-1122Y102173D01*
X-1180Y102069D01*
X-1190Y102029D01*
X-1207Y101993D01*
X-1229Y101876D01*
X-1259Y101761D01*
X-1263Y101701D01*
X-1267Y101681D01*
X-1265Y101660D01*
X-1269Y101600D01*
X-1269Y74064D01*
X-1254Y73946D01*
X-1247Y73827D01*
X-1234Y73789D01*
X-1229Y73748D01*
X-1186Y73638D01*
X-1149Y73525D01*
X-1127Y73490D01*
X-1112Y73453D01*
X-1043Y73357D01*
X-979Y73256D01*
X-949Y73228D01*
X-926Y73195D01*
X-834Y73119D01*
X-747Y73038D01*
X-712Y73018D01*
X-681Y72993D01*
X-573Y72942D01*
X-469Y72884D01*
X-429Y72874D01*
X-393Y72857D01*
X-276Y72835D01*
X-161Y72805D01*
X-101Y72801D01*
X-81Y72797D01*
X-60Y72799D01*
X0Y72795D01*
X3321158Y72795D01*
X3322795Y71158D01*
X3322795Y0D01*
X3322810Y-118D01*
X3322817Y-237D01*
X3322830Y-275D01*
X3322835Y-316D01*
X3322878Y-426D01*
X3322915Y-539D01*
X3322937Y-574D01*
X3322952Y-611D01*
X3323021Y-707D01*
X3323085Y-808D01*
X3323115Y-836D01*
X3323138Y-869D01*
X3323230Y-945D01*
X3323317Y-1026D01*
X3323352Y-1046D01*
X3323383Y-1071D01*
X3323491Y-1122D01*
X3323595Y-1180D01*
X3323635Y-1190D01*
X3323671Y-1207D01*
X3323788Y-1229D01*
X3323903Y-1259D01*
X3323963Y-1263D01*
X3323983Y-1267D01*
X3324004Y-1265D01*
X3324064Y-1269D01*
X3365500Y-1269D01*
X3365618Y-1254D01*
G37*
G36*
X1457982Y20338D02*
X1457982Y20338D01*
X1458121Y20351D01*
X1458140Y20358D01*
X1458160Y20361D01*
X1458289Y20412D01*
X1458420Y20459D01*
X1458437Y20470D01*
X1458455Y20478D01*
X1458568Y20559D01*
X1458683Y20637D01*
X1458696Y20653D01*
X1458713Y20664D01*
X1458802Y20772D01*
X1458894Y20876D01*
X1458903Y20894D01*
X1458916Y20909D01*
X1458975Y21035D01*
X1459038Y21159D01*
X1459043Y21179D01*
X1459051Y21197D01*
X1459077Y21334D01*
X1459108Y21469D01*
X1459107Y21490D01*
X1459111Y21509D01*
X1459102Y21648D01*
X1459098Y21787D01*
X1459092Y21807D01*
X1459091Y21827D01*
X1459048Y21959D01*
X1459010Y22093D01*
X1458999Y22110D01*
X1458993Y22129D01*
X1458919Y22247D01*
X1458848Y22367D01*
X1458830Y22388D01*
X1458823Y22398D01*
X1458808Y22412D01*
X1458742Y22487D01*
X1457197Y24032D01*
X1457197Y26768D01*
X1459503Y29074D01*
X1459504Y29074D01*
X1475760Y45331D01*
X1475845Y45440D01*
X1475934Y45547D01*
X1475942Y45566D01*
X1475955Y45582D01*
X1476010Y45710D01*
X1476069Y45835D01*
X1476073Y45855D01*
X1476081Y45874D01*
X1476103Y46012D01*
X1476129Y46148D01*
X1476128Y46168D01*
X1476131Y46188D01*
X1476118Y46327D01*
X1476109Y46465D01*
X1476103Y46484D01*
X1476101Y46504D01*
X1476054Y46636D01*
X1476011Y46767D01*
X1476000Y46785D01*
X1475993Y46804D01*
X1475915Y46919D01*
X1475841Y47036D01*
X1475826Y47050D01*
X1475815Y47067D01*
X1475711Y47159D01*
X1475609Y47254D01*
X1475592Y47264D01*
X1475576Y47277D01*
X1475453Y47340D01*
X1475331Y47408D01*
X1475311Y47413D01*
X1475293Y47422D01*
X1475157Y47452D01*
X1475023Y47487D01*
X1474995Y47489D01*
X1474983Y47492D01*
X1474962Y47491D01*
X1474862Y47497D01*
X1170680Y47497D01*
X1170611Y47489D01*
X1170541Y47490D01*
X1170454Y47469D01*
X1170365Y47457D01*
X1170300Y47432D01*
X1170232Y47415D01*
X1170153Y47373D01*
X1170069Y47340D01*
X1170013Y47299D01*
X1169951Y47267D01*
X1169885Y47206D01*
X1169812Y47154D01*
X1169767Y47100D01*
X1169716Y47053D01*
X1169666Y46978D01*
X1169609Y46909D01*
X1169579Y46845D01*
X1169541Y46787D01*
X1169512Y46702D01*
X1169473Y46621D01*
X1169460Y46552D01*
X1169438Y46486D01*
X1169431Y46397D01*
X1169414Y46309D01*
X1169418Y46239D01*
X1169412Y46169D01*
X1169428Y46081D01*
X1169433Y45991D01*
X1169455Y45925D01*
X1169467Y45856D01*
X1169504Y45774D01*
X1169531Y45689D01*
X1169569Y45630D01*
X1169597Y45566D01*
X1169653Y45496D01*
X1169702Y45420D01*
X1169752Y45372D01*
X1169796Y45318D01*
X1169868Y45263D01*
X1169933Y45202D01*
X1169994Y45168D01*
X1170050Y45126D01*
X1170195Y45055D01*
X1172429Y44130D01*
X1174436Y42123D01*
X1174499Y42023D01*
X1174564Y41910D01*
X1174584Y41889D01*
X1174600Y41864D01*
X1174694Y41775D01*
X1174785Y41682D01*
X1174810Y41666D01*
X1174832Y41646D01*
X1174945Y41583D01*
X1175056Y41515D01*
X1175084Y41507D01*
X1175110Y41492D01*
X1175236Y41460D01*
X1175360Y41422D01*
X1175390Y41420D01*
X1175418Y41413D01*
X1175579Y41403D01*
X1398368Y41403D01*
X1413003Y26768D01*
X1413003Y24032D01*
X1411458Y22487D01*
X1411373Y22378D01*
X1411284Y22271D01*
X1411276Y22252D01*
X1411263Y22236D01*
X1411208Y22108D01*
X1411149Y21983D01*
X1411145Y21963D01*
X1411137Y21944D01*
X1411115Y21806D01*
X1411089Y21670D01*
X1411090Y21650D01*
X1411087Y21630D01*
X1411100Y21491D01*
X1411109Y21353D01*
X1411115Y21334D01*
X1411117Y21314D01*
X1411164Y21182D01*
X1411207Y21051D01*
X1411218Y21033D01*
X1411225Y21014D01*
X1411303Y20899D01*
X1411377Y20782D01*
X1411392Y20768D01*
X1411403Y20751D01*
X1411507Y20659D01*
X1411609Y20564D01*
X1411626Y20554D01*
X1411642Y20541D01*
X1411766Y20477D01*
X1411887Y20410D01*
X1411907Y20405D01*
X1411925Y20396D01*
X1412061Y20366D01*
X1412195Y20331D01*
X1412223Y20329D01*
X1412235Y20326D01*
X1412256Y20327D01*
X1412356Y20321D01*
X1457844Y20321D01*
X1457982Y20338D01*
G37*
G36*
X1561964Y28718D02*
X1561964Y28718D01*
X1562083Y28725D01*
X1562121Y28738D01*
X1562162Y28743D01*
X1562272Y28786D01*
X1562385Y28823D01*
X1562420Y28845D01*
X1562457Y28860D01*
X1562553Y28929D01*
X1562654Y28993D01*
X1562682Y29023D01*
X1562715Y29046D01*
X1562791Y29138D01*
X1562872Y29225D01*
X1562892Y29260D01*
X1562917Y29291D01*
X1562968Y29399D01*
X1563026Y29503D01*
X1563036Y29543D01*
X1563053Y29579D01*
X1563075Y29696D01*
X1563105Y29811D01*
X1563109Y29871D01*
X1563113Y29891D01*
X1563111Y29912D01*
X1563115Y29972D01*
X1563115Y30240D01*
X1582660Y49785D01*
X1708288Y49785D01*
X1708386Y49797D01*
X1708485Y49800D01*
X1708544Y49817D01*
X1708604Y49825D01*
X1708696Y49861D01*
X1708791Y49889D01*
X1708843Y49919D01*
X1708899Y49942D01*
X1708979Y50000D01*
X1709065Y50050D01*
X1709140Y50116D01*
X1709157Y50128D01*
X1709165Y50138D01*
X1709186Y50156D01*
X1712742Y53713D01*
X1712827Y53822D01*
X1712916Y53929D01*
X1712924Y53948D01*
X1712937Y53964D01*
X1712992Y54092D01*
X1713051Y54217D01*
X1713055Y54237D01*
X1713063Y54256D01*
X1713085Y54394D01*
X1713111Y54530D01*
X1713110Y54550D01*
X1713113Y54570D01*
X1713100Y54709D01*
X1713091Y54847D01*
X1713085Y54866D01*
X1713083Y54886D01*
X1713036Y55018D01*
X1712993Y55149D01*
X1712982Y55166D01*
X1712975Y55186D01*
X1712897Y55301D01*
X1712823Y55418D01*
X1712808Y55432D01*
X1712797Y55449D01*
X1712693Y55541D01*
X1712591Y55636D01*
X1712574Y55646D01*
X1712558Y55659D01*
X1712434Y55723D01*
X1712313Y55790D01*
X1712293Y55795D01*
X1712275Y55804D01*
X1712139Y55834D01*
X1712005Y55869D01*
X1711977Y55871D01*
X1711965Y55874D01*
X1711944Y55873D01*
X1711844Y55879D01*
X1544194Y55879D01*
X1544145Y55873D01*
X1544095Y55875D01*
X1543988Y55853D01*
X1543879Y55839D01*
X1543833Y55821D01*
X1543784Y55811D01*
X1543685Y55763D01*
X1543583Y55722D01*
X1543543Y55693D01*
X1543498Y55671D01*
X1543415Y55600D01*
X1543326Y55536D01*
X1543294Y55497D01*
X1543256Y55465D01*
X1543193Y55375D01*
X1543123Y55291D01*
X1543102Y55246D01*
X1543073Y55205D01*
X1543034Y55102D01*
X1542988Y55003D01*
X1542978Y54954D01*
X1542961Y54908D01*
X1542948Y54798D01*
X1542928Y54691D01*
X1542931Y54641D01*
X1542925Y54592D01*
X1542941Y54483D01*
X1542947Y54373D01*
X1542963Y54326D01*
X1542970Y54277D01*
X1543022Y54124D01*
X1543813Y52215D01*
X1543813Y49385D01*
X1542730Y46771D01*
X1540729Y44770D01*
X1538115Y43687D01*
X1535285Y43687D01*
X1532671Y44770D01*
X1532209Y45232D01*
X1532115Y45305D01*
X1532026Y45384D01*
X1531990Y45402D01*
X1531958Y45427D01*
X1531849Y45474D01*
X1531743Y45528D01*
X1531703Y45537D01*
X1531666Y45553D01*
X1531548Y45572D01*
X1531432Y45598D01*
X1531392Y45597D01*
X1531352Y45603D01*
X1531233Y45592D01*
X1531115Y45588D01*
X1531076Y45577D01*
X1531035Y45573D01*
X1530923Y45533D01*
X1530809Y45500D01*
X1530774Y45479D01*
X1530736Y45465D01*
X1530638Y45398D01*
X1530535Y45338D01*
X1530490Y45298D01*
X1530473Y45287D01*
X1530460Y45272D01*
X1530414Y45232D01*
X1528108Y42925D01*
X1483222Y42925D01*
X1483124Y42913D01*
X1483025Y42910D01*
X1482966Y42893D01*
X1482906Y42885D01*
X1482814Y42849D01*
X1482719Y42821D01*
X1482667Y42791D01*
X1482611Y42768D01*
X1482531Y42710D01*
X1482445Y42660D01*
X1482370Y42594D01*
X1482353Y42582D01*
X1482345Y42572D01*
X1482324Y42554D01*
X1478345Y38575D01*
X1478272Y38480D01*
X1478194Y38391D01*
X1478175Y38355D01*
X1478150Y38323D01*
X1478103Y38214D01*
X1478049Y38108D01*
X1478040Y38069D01*
X1478024Y38031D01*
X1478005Y37914D01*
X1477979Y37798D01*
X1477980Y37757D01*
X1477974Y37717D01*
X1477985Y37599D01*
X1477989Y37480D01*
X1478000Y37441D01*
X1478004Y37401D01*
X1478044Y37288D01*
X1478077Y37174D01*
X1478098Y37140D01*
X1478112Y37101D01*
X1478178Y37003D01*
X1478239Y36900D01*
X1478279Y36855D01*
X1478290Y36838D01*
X1478305Y36825D01*
X1478345Y36780D01*
X1486050Y29074D01*
X1486129Y29014D01*
X1486201Y28946D01*
X1486254Y28917D01*
X1486302Y28880D01*
X1486393Y28840D01*
X1486479Y28792D01*
X1486538Y28777D01*
X1486593Y28753D01*
X1486691Y28738D01*
X1486787Y28713D01*
X1486887Y28707D01*
X1486908Y28703D01*
X1486920Y28705D01*
X1486948Y28703D01*
X1561846Y28703D01*
X1561964Y28718D01*
G37*
G36*
X1161251Y41406D02*
X1161251Y41406D01*
X1161280Y41404D01*
X1161408Y41426D01*
X1161537Y41443D01*
X1161564Y41453D01*
X1161593Y41459D01*
X1161712Y41512D01*
X1161832Y41560D01*
X1161856Y41577D01*
X1161883Y41589D01*
X1161985Y41670D01*
X1162090Y41746D01*
X1162109Y41769D01*
X1162132Y41788D01*
X1162210Y41892D01*
X1162293Y41991D01*
X1162305Y42018D01*
X1162323Y42042D01*
X1162362Y42120D01*
X1164371Y44130D01*
X1166605Y45055D01*
X1166666Y45090D01*
X1166731Y45116D01*
X1166803Y45168D01*
X1166882Y45213D01*
X1166932Y45261D01*
X1166988Y45302D01*
X1167046Y45372D01*
X1167110Y45434D01*
X1167146Y45494D01*
X1167191Y45547D01*
X1167229Y45629D01*
X1167276Y45705D01*
X1167297Y45772D01*
X1167327Y45835D01*
X1167343Y45923D01*
X1167370Y46009D01*
X1167373Y46079D01*
X1167386Y46148D01*
X1167381Y46237D01*
X1167385Y46327D01*
X1167371Y46395D01*
X1167367Y46465D01*
X1167339Y46550D01*
X1167321Y46638D01*
X1167290Y46701D01*
X1167269Y46767D01*
X1167221Y46843D01*
X1167181Y46924D01*
X1167136Y46977D01*
X1167098Y47036D01*
X1167033Y47098D01*
X1166975Y47166D01*
X1166918Y47206D01*
X1166867Y47254D01*
X1166788Y47297D01*
X1166715Y47349D01*
X1166649Y47374D01*
X1166588Y47408D01*
X1166501Y47430D01*
X1166417Y47462D01*
X1166348Y47470D01*
X1166280Y47487D01*
X1166120Y47497D01*
X1043680Y47497D01*
X1043611Y47489D01*
X1043541Y47490D01*
X1043454Y47469D01*
X1043365Y47457D01*
X1043300Y47432D01*
X1043232Y47415D01*
X1043153Y47373D01*
X1043069Y47340D01*
X1043013Y47299D01*
X1042951Y47267D01*
X1042885Y47206D01*
X1042812Y47154D01*
X1042767Y47100D01*
X1042716Y47053D01*
X1042666Y46978D01*
X1042609Y46909D01*
X1042579Y46845D01*
X1042541Y46787D01*
X1042512Y46702D01*
X1042473Y46621D01*
X1042460Y46552D01*
X1042438Y46486D01*
X1042431Y46397D01*
X1042414Y46309D01*
X1042418Y46239D01*
X1042412Y46169D01*
X1042428Y46081D01*
X1042433Y45991D01*
X1042455Y45925D01*
X1042467Y45856D01*
X1042504Y45774D01*
X1042531Y45689D01*
X1042569Y45630D01*
X1042597Y45566D01*
X1042653Y45496D01*
X1042702Y45420D01*
X1042752Y45372D01*
X1042796Y45318D01*
X1042868Y45263D01*
X1042933Y45202D01*
X1042994Y45168D01*
X1043050Y45126D01*
X1043195Y45055D01*
X1045429Y44130D01*
X1047436Y42123D01*
X1047499Y42023D01*
X1047564Y41910D01*
X1047584Y41889D01*
X1047600Y41864D01*
X1047694Y41775D01*
X1047785Y41682D01*
X1047810Y41666D01*
X1047832Y41646D01*
X1047945Y41583D01*
X1048056Y41515D01*
X1048084Y41507D01*
X1048110Y41492D01*
X1048236Y41460D01*
X1048360Y41422D01*
X1048390Y41420D01*
X1048418Y41413D01*
X1048579Y41403D01*
X1161221Y41403D01*
X1161251Y41406D01*
G37*
%LPC*%
G36*
X23985Y43687D02*
X23985Y43687D01*
X21371Y44770D01*
X19370Y46771D01*
X18287Y49385D01*
X18287Y52215D01*
X19370Y54829D01*
X21371Y56830D01*
X23985Y57913D01*
X26815Y57913D01*
X29429Y56830D01*
X31430Y54829D01*
X32513Y52215D01*
X32513Y49385D01*
X31430Y46771D01*
X29429Y44770D01*
X26815Y43687D01*
X23985Y43687D01*
G37*
%LPD*%
%LPC*%
G36*
X3287885Y43687D02*
X3287885Y43687D01*
X3285271Y44770D01*
X3283270Y46771D01*
X3282187Y49385D01*
X3282187Y52215D01*
X3283270Y54829D01*
X3285271Y56830D01*
X3287885Y57913D01*
X3290715Y57913D01*
X3293329Y56830D01*
X3295330Y54829D01*
X3296413Y52215D01*
X3296413Y49385D01*
X3295330Y46771D01*
X3293329Y44770D01*
X3290715Y43687D01*
X3287885Y43687D01*
G37*
%LPD*%
%LPC*%
G36*
X3287885Y18287D02*
X3287885Y18287D01*
X3285271Y19370D01*
X3283270Y21371D01*
X3282187Y23985D01*
X3282187Y26815D01*
X3283270Y29429D01*
X3285271Y31430D01*
X3287885Y32513D01*
X3290715Y32513D01*
X3293329Y31430D01*
X3295330Y29429D01*
X3296413Y26815D01*
X3296413Y23985D01*
X3295330Y21371D01*
X3293329Y19370D01*
X3290715Y18287D01*
X3287885Y18287D01*
G37*
%LPD*%
%LPC*%
G36*
X23985Y18287D02*
X23985Y18287D01*
X21371Y19370D01*
X19370Y21371D01*
X18287Y23985D01*
X18287Y26815D01*
X19370Y29429D01*
X21371Y31430D01*
X23985Y32513D01*
X26815Y32513D01*
X29429Y31430D01*
X31430Y29429D01*
X32513Y26815D01*
X32513Y23985D01*
X31430Y21371D01*
X29429Y19370D01*
X26815Y18287D01*
X23985Y18287D01*
G37*
%LPD*%
G36*
X1582941Y26750D02*
X1582941Y26750D01*
X1582991Y26751D01*
X1583096Y26782D01*
X1583204Y26804D01*
X1583249Y26826D01*
X1583296Y26840D01*
X1583391Y26896D01*
X1583490Y26944D01*
X1583527Y26976D01*
X1583570Y27001D01*
X1583691Y27108D01*
X1585295Y28711D01*
X1585359Y28710D01*
X1585446Y28731D01*
X1585535Y28743D01*
X1585600Y28768D01*
X1585668Y28785D01*
X1585747Y28827D01*
X1585831Y28860D01*
X1585887Y28901D01*
X1585949Y28933D01*
X1586015Y28994D01*
X1586088Y29046D01*
X1586133Y29100D01*
X1586184Y29147D01*
X1586234Y29222D01*
X1586291Y29291D01*
X1586321Y29355D01*
X1586359Y29413D01*
X1586388Y29498D01*
X1586427Y29579D01*
X1586440Y29648D01*
X1586462Y29714D01*
X1586469Y29803D01*
X1586486Y29891D01*
X1586482Y29961D01*
X1586488Y30031D01*
X1586472Y30119D01*
X1586467Y30209D01*
X1586445Y30275D01*
X1586433Y30344D01*
X1586396Y30426D01*
X1586369Y30511D01*
X1586331Y30570D01*
X1586303Y30634D01*
X1586247Y30704D01*
X1586198Y30780D01*
X1586148Y30828D01*
X1586104Y30882D01*
X1586032Y30937D01*
X1585967Y30998D01*
X1585906Y31032D01*
X1585850Y31074D01*
X1585705Y31145D01*
X1583471Y32070D01*
X1581470Y34071D01*
X1580679Y35980D01*
X1580655Y36024D01*
X1580638Y36070D01*
X1580576Y36161D01*
X1580522Y36257D01*
X1580487Y36292D01*
X1580459Y36334D01*
X1580377Y36406D01*
X1580300Y36485D01*
X1580258Y36511D01*
X1580221Y36544D01*
X1580123Y36594D01*
X1580029Y36651D01*
X1579982Y36666D01*
X1579938Y36689D01*
X1579830Y36713D01*
X1579725Y36745D01*
X1579676Y36747D01*
X1579627Y36758D01*
X1579517Y36755D01*
X1579408Y36760D01*
X1579359Y36750D01*
X1579309Y36749D01*
X1579204Y36718D01*
X1579096Y36696D01*
X1579051Y36674D01*
X1579004Y36660D01*
X1578909Y36604D01*
X1578810Y36556D01*
X1578773Y36524D01*
X1578730Y36499D01*
X1578609Y36392D01*
X1576508Y34291D01*
X1576477Y34252D01*
X1576441Y34218D01*
X1576380Y34127D01*
X1576313Y34040D01*
X1576293Y33994D01*
X1576266Y33953D01*
X1576230Y33849D01*
X1576186Y33748D01*
X1576179Y33699D01*
X1576163Y33652D01*
X1576154Y33542D01*
X1576137Y33434D01*
X1576141Y33384D01*
X1576137Y33335D01*
X1576156Y33226D01*
X1576166Y33117D01*
X1576183Y33070D01*
X1576192Y33021D01*
X1576237Y32921D01*
X1576274Y32818D01*
X1576302Y32777D01*
X1576322Y32731D01*
X1576391Y32646D01*
X1576453Y32555D01*
X1576490Y32522D01*
X1576521Y32483D01*
X1576609Y32417D01*
X1576691Y32344D01*
X1576735Y32322D01*
X1576775Y32292D01*
X1576920Y32221D01*
X1578829Y31430D01*
X1580830Y29429D01*
X1581621Y27520D01*
X1581645Y27476D01*
X1581662Y27430D01*
X1581724Y27339D01*
X1581778Y27243D01*
X1581813Y27208D01*
X1581841Y27166D01*
X1581923Y27094D01*
X1582000Y27015D01*
X1582042Y26989D01*
X1582079Y26956D01*
X1582177Y26906D01*
X1582271Y26849D01*
X1582318Y26834D01*
X1582362Y26811D01*
X1582470Y26787D01*
X1582575Y26755D01*
X1582624Y26753D01*
X1582673Y26742D01*
X1582783Y26745D01*
X1582892Y26740D01*
X1582941Y26750D01*
G37*
G36*
X1718968Y51543D02*
X1718968Y51543D01*
X1719017Y51539D01*
X1719126Y51558D01*
X1719235Y51568D01*
X1719282Y51585D01*
X1719331Y51594D01*
X1719431Y51639D01*
X1719534Y51676D01*
X1719576Y51704D01*
X1719621Y51724D01*
X1719706Y51793D01*
X1719797Y51854D01*
X1719830Y51892D01*
X1719869Y51923D01*
X1719935Y52010D01*
X1720008Y52093D01*
X1720031Y52137D01*
X1720060Y52177D01*
X1720131Y52321D01*
X1720878Y54124D01*
X1720889Y54163D01*
X1720899Y54185D01*
X1720900Y54192D01*
X1720912Y54217D01*
X1720933Y54325D01*
X1720962Y54431D01*
X1720963Y54481D01*
X1720972Y54530D01*
X1720965Y54639D01*
X1720967Y54749D01*
X1720956Y54797D01*
X1720953Y54847D01*
X1720919Y54951D01*
X1720893Y55058D01*
X1720870Y55102D01*
X1720854Y55149D01*
X1720796Y55242D01*
X1720744Y55339D01*
X1720711Y55376D01*
X1720684Y55418D01*
X1720604Y55493D01*
X1720530Y55575D01*
X1720489Y55602D01*
X1720453Y55636D01*
X1720357Y55689D01*
X1720265Y55749D01*
X1720218Y55766D01*
X1720174Y55790D01*
X1720068Y55817D01*
X1719964Y55853D01*
X1719914Y55857D01*
X1719866Y55869D01*
X1719706Y55879D01*
X1717156Y55879D01*
X1717018Y55862D01*
X1716879Y55849D01*
X1716860Y55842D01*
X1716840Y55839D01*
X1716711Y55788D01*
X1716580Y55741D01*
X1716563Y55730D01*
X1716545Y55722D01*
X1716432Y55641D01*
X1716317Y55563D01*
X1716304Y55547D01*
X1716287Y55536D01*
X1716198Y55428D01*
X1716106Y55324D01*
X1716097Y55306D01*
X1716084Y55291D01*
X1716025Y55165D01*
X1715962Y55041D01*
X1715957Y55021D01*
X1715949Y55003D01*
X1715923Y54867D01*
X1715892Y54731D01*
X1715893Y54710D01*
X1715889Y54691D01*
X1715898Y54552D01*
X1715902Y54413D01*
X1715908Y54393D01*
X1715909Y54373D01*
X1715952Y54241D01*
X1715990Y54107D01*
X1716001Y54090D01*
X1716007Y54071D01*
X1716081Y53953D01*
X1716152Y53833D01*
X1716170Y53812D01*
X1716177Y53802D01*
X1716192Y53788D01*
X1716258Y53713D01*
X1718061Y51910D01*
X1718101Y51879D01*
X1718134Y51842D01*
X1718226Y51782D01*
X1718313Y51715D01*
X1718358Y51695D01*
X1718400Y51668D01*
X1718503Y51632D01*
X1718604Y51588D01*
X1718653Y51580D01*
X1718700Y51564D01*
X1718810Y51556D01*
X1718918Y51538D01*
X1718968Y51543D01*
G37*
G36*
X1465755Y20327D02*
X1465755Y20327D01*
X1465804Y20325D01*
X1465912Y20347D01*
X1466021Y20361D01*
X1466067Y20379D01*
X1466116Y20389D01*
X1466215Y20437D01*
X1466317Y20478D01*
X1466357Y20507D01*
X1466402Y20529D01*
X1466485Y20600D01*
X1466574Y20664D01*
X1466606Y20703D01*
X1466644Y20735D01*
X1466707Y20825D01*
X1466777Y20909D01*
X1466798Y20954D01*
X1466827Y20995D01*
X1466866Y21098D01*
X1466912Y21197D01*
X1466922Y21246D01*
X1466939Y21292D01*
X1466952Y21402D01*
X1466972Y21509D01*
X1466969Y21559D01*
X1466975Y21608D01*
X1466959Y21717D01*
X1466953Y21827D01*
X1466937Y21874D01*
X1466930Y21923D01*
X1466878Y22076D01*
X1466379Y23280D01*
X1466355Y23324D01*
X1466338Y23370D01*
X1466276Y23461D01*
X1466222Y23557D01*
X1466187Y23592D01*
X1466159Y23634D01*
X1466077Y23706D01*
X1466000Y23785D01*
X1465958Y23811D01*
X1465921Y23844D01*
X1465823Y23894D01*
X1465729Y23951D01*
X1465682Y23966D01*
X1465638Y23989D01*
X1465530Y24013D01*
X1465425Y24045D01*
X1465376Y24047D01*
X1465327Y24058D01*
X1465217Y24055D01*
X1465108Y24060D01*
X1465059Y24050D01*
X1465009Y24049D01*
X1464904Y24018D01*
X1464796Y23996D01*
X1464751Y23974D01*
X1464704Y23960D01*
X1464609Y23904D01*
X1464510Y23856D01*
X1464473Y23824D01*
X1464430Y23799D01*
X1464309Y23692D01*
X1463104Y22487D01*
X1463019Y22378D01*
X1462930Y22271D01*
X1462922Y22252D01*
X1462909Y22236D01*
X1462854Y22109D01*
X1462795Y21983D01*
X1462791Y21963D01*
X1462783Y21944D01*
X1462761Y21806D01*
X1462735Y21670D01*
X1462736Y21650D01*
X1462733Y21630D01*
X1462746Y21491D01*
X1462755Y21353D01*
X1462761Y21334D01*
X1462763Y21314D01*
X1462810Y21182D01*
X1462853Y21051D01*
X1462864Y21033D01*
X1462871Y21014D01*
X1462949Y20899D01*
X1463023Y20782D01*
X1463038Y20768D01*
X1463049Y20751D01*
X1463153Y20659D01*
X1463255Y20564D01*
X1463272Y20554D01*
X1463288Y20541D01*
X1463411Y20478D01*
X1463533Y20410D01*
X1463553Y20405D01*
X1463571Y20396D01*
X1463707Y20366D01*
X1463841Y20331D01*
X1463869Y20329D01*
X1463881Y20326D01*
X1463902Y20327D01*
X1464002Y20321D01*
X1465706Y20321D01*
X1465755Y20327D01*
G37*
G36*
X1482536Y20338D02*
X1482536Y20338D01*
X1482675Y20351D01*
X1482694Y20358D01*
X1482714Y20361D01*
X1482843Y20412D01*
X1482974Y20459D01*
X1482991Y20470D01*
X1483009Y20478D01*
X1483122Y20559D01*
X1483237Y20637D01*
X1483250Y20653D01*
X1483267Y20664D01*
X1483356Y20772D01*
X1483448Y20876D01*
X1483457Y20894D01*
X1483470Y20909D01*
X1483529Y21035D01*
X1483592Y21159D01*
X1483597Y21179D01*
X1483605Y21197D01*
X1483631Y21334D01*
X1483662Y21469D01*
X1483661Y21490D01*
X1483665Y21509D01*
X1483656Y21648D01*
X1483652Y21787D01*
X1483646Y21807D01*
X1483645Y21827D01*
X1483602Y21959D01*
X1483564Y22093D01*
X1483553Y22110D01*
X1483547Y22129D01*
X1483473Y22247D01*
X1483402Y22367D01*
X1483384Y22388D01*
X1483377Y22398D01*
X1483362Y22412D01*
X1483296Y22487D01*
X1482091Y23692D01*
X1482052Y23723D01*
X1482018Y23759D01*
X1481926Y23820D01*
X1481840Y23887D01*
X1481794Y23907D01*
X1481753Y23934D01*
X1481649Y23970D01*
X1481548Y24014D01*
X1481499Y24021D01*
X1481452Y24037D01*
X1481342Y24046D01*
X1481234Y24063D01*
X1481184Y24059D01*
X1481135Y24063D01*
X1481026Y24044D01*
X1480917Y24034D01*
X1480870Y24017D01*
X1480821Y24008D01*
X1480721Y23963D01*
X1480618Y23926D01*
X1480577Y23898D01*
X1480531Y23878D01*
X1480446Y23809D01*
X1480355Y23747D01*
X1480322Y23710D01*
X1480283Y23679D01*
X1480217Y23591D01*
X1480144Y23509D01*
X1480122Y23465D01*
X1480092Y23425D01*
X1480021Y23280D01*
X1479522Y22076D01*
X1479509Y22028D01*
X1479488Y21983D01*
X1479467Y21875D01*
X1479438Y21769D01*
X1479437Y21719D01*
X1479428Y21670D01*
X1479435Y21561D01*
X1479433Y21451D01*
X1479444Y21403D01*
X1479447Y21353D01*
X1479481Y21249D01*
X1479507Y21142D01*
X1479530Y21098D01*
X1479546Y21051D01*
X1479604Y20958D01*
X1479656Y20861D01*
X1479689Y20824D01*
X1479716Y20782D01*
X1479796Y20707D01*
X1479870Y20625D01*
X1479911Y20598D01*
X1479947Y20564D01*
X1480043Y20511D01*
X1480135Y20451D01*
X1480182Y20434D01*
X1480226Y20410D01*
X1480332Y20383D01*
X1480436Y20347D01*
X1480486Y20343D01*
X1480534Y20331D01*
X1480694Y20321D01*
X1482398Y20321D01*
X1482536Y20338D01*
G37*
D10*
X25400Y50800D03*
X25400Y25400D03*
X3289300Y50800D03*
X3289300Y25400D03*
X3263900Y50800D03*
X3263900Y25400D03*
D11*
X50800Y25400D02*
X38100Y12700D01*
X1586654Y25400D02*
X3263900Y25400D01*
X64346Y25400D02*
X50800Y25400D01*
X1578272Y17018D02*
X1586654Y25400D01*
X72728Y17018D02*
X64346Y25400D01*
X72728Y17018D02*
X1578272Y17018D01*
D10*
X76200Y50800D03*
D11*
X3251200Y50800D02*
X3263900Y63500D01*
X1524846Y50800D02*
X76200Y50800D01*
X1739054Y50800D02*
X3251200Y50800D01*
X1533228Y59182D02*
X1524846Y50800D01*
X1730672Y59182D02*
X1739054Y50800D01*
X1730672Y59182D02*
X1533228Y59182D01*
D10*
X76200Y25400D03*
X800100Y38100D03*
X1041400Y38100D03*
D11*
X1160018Y38100D01*
D10*
X1168400Y38100D03*
D11*
X1397000Y38100D01*
X1409700Y25400D01*
D10*
X1473200Y25400D03*
X1727200Y50800D03*
X1587500Y38100D03*
X1574800Y25400D03*
X1536700Y50800D03*
D11*
X1531312Y50800D01*
X1526740Y46228D01*
X1481328Y46228D02*
X1460500Y25400D01*
X1481328Y46228D02*
X1526740Y46228D01*
X1476672Y33782D02*
X1469728Y33782D01*
X1461346Y25400D02*
X1460500Y25400D01*
X1485054Y25400D02*
X1566418Y25400D01*
X1469728Y33782D02*
X1461346Y25400D01*
X1476672Y33782D02*
X1485054Y25400D01*
X1566418Y25400D02*
X1566418Y28872D01*
X1710182Y46482D02*
X1714500Y50800D01*
X1710182Y46482D02*
X1584028Y46482D01*
X1566418Y28872D01*
M02*
