G04 EAGLE Gerber RS-274X export*
G75*
%MOMM*%
%FSLAX34Y34*%
%LPD*%
%INEAGLE Copper Layer 2*%
%IPPOS*%
%AMOC8*
5,1,8,0,0,1.08239X$1,22.5*%
G01*
%ADD10C,0.956400*%
%ADD11C,1.206400*%

G36*
X68336Y10926D02*
X68336Y10926D01*
X68355Y10924D01*
X68457Y10946D01*
X68559Y10962D01*
X68576Y10972D01*
X68596Y10976D01*
X68685Y11029D01*
X68776Y11078D01*
X68790Y11092D01*
X68807Y11102D01*
X68874Y11181D01*
X68946Y11256D01*
X68954Y11274D01*
X68967Y11289D01*
X69006Y11385D01*
X69049Y11479D01*
X69051Y11499D01*
X69059Y11517D01*
X69077Y11684D01*
X69077Y750316D01*
X69074Y750336D01*
X69076Y750355D01*
X69054Y750457D01*
X69038Y750559D01*
X69028Y750576D01*
X69024Y750596D01*
X68971Y750685D01*
X68922Y750776D01*
X68908Y750790D01*
X68898Y750807D01*
X68819Y750874D01*
X68744Y750946D01*
X68726Y750954D01*
X68711Y750967D01*
X68615Y751006D01*
X68521Y751049D01*
X68501Y751051D01*
X68483Y751059D01*
X68316Y751077D01*
X11684Y751077D01*
X11664Y751074D01*
X11645Y751076D01*
X11543Y751054D01*
X11441Y751038D01*
X11424Y751028D01*
X11404Y751024D01*
X11315Y750971D01*
X11224Y750922D01*
X11210Y750908D01*
X11193Y750898D01*
X11126Y750819D01*
X11054Y750744D01*
X11046Y750726D01*
X11033Y750711D01*
X10994Y750615D01*
X10951Y750521D01*
X10949Y750501D01*
X10941Y750483D01*
X10923Y750316D01*
X10923Y11684D01*
X10926Y11664D01*
X10924Y11645D01*
X10946Y11543D01*
X10962Y11441D01*
X10972Y11424D01*
X10976Y11404D01*
X11029Y11315D01*
X11078Y11224D01*
X11092Y11210D01*
X11102Y11193D01*
X11181Y11126D01*
X11256Y11054D01*
X11274Y11046D01*
X11289Y11033D01*
X11385Y10994D01*
X11479Y10951D01*
X11499Y10949D01*
X11517Y10941D01*
X11684Y10923D01*
X68316Y10923D01*
X68336Y10926D01*
G37*
%LPC*%
G36*
X23897Y297243D02*
X23897Y297243D01*
X21119Y298394D01*
X18994Y300519D01*
X17843Y303297D01*
X17843Y306303D01*
X18994Y309081D01*
X21119Y311206D01*
X23897Y312357D01*
X26903Y312357D01*
X29681Y311206D01*
X31806Y309081D01*
X32957Y306303D01*
X32957Y303297D01*
X31806Y300519D01*
X29681Y298394D01*
X26903Y297243D01*
X23897Y297243D01*
G37*
%LPD*%
%LPC*%
G36*
X23897Y271843D02*
X23897Y271843D01*
X21119Y272994D01*
X18994Y275119D01*
X17843Y277897D01*
X17843Y280903D01*
X18994Y283681D01*
X21119Y285806D01*
X23897Y286957D01*
X26903Y286957D01*
X29681Y285806D01*
X31806Y283681D01*
X32957Y280903D01*
X32957Y277897D01*
X31806Y275119D01*
X29681Y272994D01*
X26903Y271843D01*
X23897Y271843D01*
G37*
%LPD*%
%LPC*%
G36*
X24146Y666793D02*
X24146Y666793D01*
X21827Y667753D01*
X20053Y669527D01*
X19093Y671846D01*
X19093Y674354D01*
X20053Y676673D01*
X21827Y678447D01*
X24146Y679407D01*
X26654Y679407D01*
X28973Y678447D01*
X30747Y676673D01*
X31707Y674354D01*
X31707Y671846D01*
X30747Y669527D01*
X28973Y667753D01*
X26654Y666793D01*
X24146Y666793D01*
G37*
%LPD*%
%LPC*%
G36*
X47006Y353103D02*
X47006Y353103D01*
X44687Y354063D01*
X42913Y355837D01*
X41953Y358156D01*
X41953Y360664D01*
X42913Y362983D01*
X44687Y364757D01*
X47006Y365717D01*
X49514Y365717D01*
X51833Y364757D01*
X53607Y362983D01*
X54567Y360664D01*
X54567Y358156D01*
X53607Y355837D01*
X51833Y354063D01*
X49514Y353103D01*
X47006Y353103D01*
G37*
%LPD*%
%LPC*%
G36*
X49546Y273093D02*
X49546Y273093D01*
X47227Y274053D01*
X45453Y275827D01*
X44493Y278146D01*
X44493Y280654D01*
X45453Y282973D01*
X47227Y284747D01*
X49546Y285707D01*
X52054Y285707D01*
X54373Y284747D01*
X56147Y282973D01*
X57107Y280654D01*
X57107Y278146D01*
X56147Y275827D01*
X54373Y274053D01*
X52054Y273093D01*
X49546Y273093D01*
G37*
%LPD*%
%LPC*%
G36*
X24146Y95293D02*
X24146Y95293D01*
X21827Y96253D01*
X20053Y98027D01*
X19093Y100346D01*
X19093Y102854D01*
X20053Y105173D01*
X21827Y106947D01*
X24146Y107907D01*
X26654Y107907D01*
X28973Y106947D01*
X30747Y105173D01*
X31707Y102854D01*
X31707Y100346D01*
X30747Y98027D01*
X28973Y96253D01*
X26654Y95293D01*
X24146Y95293D01*
G37*
%LPD*%
D10*
X50800Y419100D03*
X50800Y609600D03*
X50800Y165100D03*
X50800Y660400D03*
X50800Y88900D03*
X25400Y673100D03*
X25400Y101600D03*
X50800Y279400D03*
X48260Y359410D03*
D11*
X25400Y304800D03*
X25400Y279400D03*
M02*
