G04 EAGLE Gerber RS-274X export*
G75*
%MOMM*%
%FSLAX34Y34*%
%LPD*%
%INTop Copper*%
%IPPOS*%
%AMOC8*
5,1,8,0,0,1.08239X$1,22.5*%
G01*
%ADD10R,0.800100X1.259841*%
%ADD11R,5.000000X6.000000*%
%ADD12C,0.956400*%
%ADD13C,1.016000*%
%ADD14C,0.254000*%
%ADD15C,0.508000*%
%ADD16C,1.206400*%

G36*
X12358Y10926D02*
X12358Y10926D01*
X12377Y10924D01*
X12479Y10946D01*
X12581Y10962D01*
X12598Y10972D01*
X12618Y10976D01*
X12707Y11029D01*
X12798Y11078D01*
X12812Y11092D01*
X12829Y11102D01*
X12896Y11181D01*
X12968Y11256D01*
X12976Y11274D01*
X12989Y11289D01*
X13028Y11385D01*
X13071Y11479D01*
X13073Y11499D01*
X13081Y11517D01*
X13099Y11684D01*
X13099Y40387D01*
X39878Y40387D01*
X39898Y40390D01*
X39917Y40388D01*
X40019Y40410D01*
X40121Y40427D01*
X40138Y40436D01*
X40158Y40440D01*
X40247Y40493D01*
X40338Y40542D01*
X40352Y40556D01*
X40369Y40566D01*
X40436Y40645D01*
X40507Y40720D01*
X40516Y40738D01*
X40529Y40753D01*
X40568Y40849D01*
X40611Y40943D01*
X40613Y40963D01*
X40621Y40981D01*
X40639Y41148D01*
X40639Y41911D01*
X41402Y41911D01*
X41422Y41914D01*
X41441Y41912D01*
X41543Y41934D01*
X41645Y41951D01*
X41662Y41960D01*
X41682Y41964D01*
X41771Y42017D01*
X41862Y42066D01*
X41876Y42080D01*
X41893Y42090D01*
X41960Y42169D01*
X42031Y42244D01*
X42040Y42262D01*
X42053Y42277D01*
X42092Y42373D01*
X42135Y42467D01*
X42137Y42487D01*
X42145Y42505D01*
X42163Y42672D01*
X42163Y74451D01*
X65974Y74451D01*
X66621Y74278D01*
X67200Y73943D01*
X67693Y73450D01*
X67710Y73419D01*
X67764Y73367D01*
X67812Y73308D01*
X67853Y73283D01*
X67888Y73249D01*
X67957Y73218D01*
X68021Y73177D01*
X68067Y73166D01*
X68111Y73146D01*
X68186Y73137D01*
X68260Y73120D01*
X68308Y73124D01*
X68355Y73119D01*
X68429Y73135D01*
X68505Y73141D01*
X68549Y73161D01*
X68596Y73171D01*
X68661Y73210D01*
X68730Y73240D01*
X68766Y73272D01*
X68807Y73297D01*
X68856Y73355D01*
X68912Y73405D01*
X68936Y73447D01*
X68967Y73484D01*
X68995Y73554D01*
X69032Y73620D01*
X69041Y73668D01*
X69059Y73712D01*
X69073Y73840D01*
X69077Y73862D01*
X69076Y73869D01*
X69077Y73879D01*
X69077Y750316D01*
X69074Y750336D01*
X69076Y750355D01*
X69054Y750457D01*
X69038Y750559D01*
X69028Y750576D01*
X69024Y750596D01*
X68971Y750685D01*
X68922Y750776D01*
X68908Y750790D01*
X68898Y750807D01*
X68819Y750874D01*
X68744Y750946D01*
X68726Y750954D01*
X68711Y750967D01*
X68615Y751006D01*
X68521Y751049D01*
X68501Y751051D01*
X68483Y751059D01*
X68316Y751077D01*
X67672Y751077D01*
X67652Y751074D01*
X67633Y751076D01*
X67531Y751054D01*
X67429Y751038D01*
X67412Y751028D01*
X67392Y751024D01*
X67303Y750971D01*
X67212Y750922D01*
X67198Y750908D01*
X67181Y750898D01*
X67114Y750819D01*
X67042Y750744D01*
X67034Y750726D01*
X67021Y750711D01*
X66982Y750615D01*
X66939Y750521D01*
X66937Y750501D01*
X66929Y750483D01*
X66911Y750316D01*
X66911Y721613D01*
X40132Y721613D01*
X40112Y721610D01*
X40093Y721612D01*
X39991Y721590D01*
X39889Y721573D01*
X39872Y721564D01*
X39852Y721560D01*
X39763Y721507D01*
X39672Y721458D01*
X39658Y721444D01*
X39641Y721434D01*
X39574Y721355D01*
X39503Y721280D01*
X39494Y721262D01*
X39481Y721247D01*
X39442Y721151D01*
X39399Y721057D01*
X39397Y721037D01*
X39389Y721019D01*
X39371Y720852D01*
X39371Y720089D01*
X38608Y720089D01*
X38588Y720086D01*
X38569Y720088D01*
X38467Y720066D01*
X38365Y720049D01*
X38348Y720040D01*
X38328Y720036D01*
X38239Y719983D01*
X38148Y719934D01*
X38134Y719920D01*
X38117Y719910D01*
X38050Y719831D01*
X37979Y719756D01*
X37970Y719738D01*
X37957Y719723D01*
X37918Y719627D01*
X37875Y719533D01*
X37873Y719513D01*
X37865Y719495D01*
X37847Y719328D01*
X37847Y687549D01*
X14036Y687549D01*
X13389Y687722D01*
X12810Y688057D01*
X12322Y688544D01*
X12313Y688556D01*
X12290Y688599D01*
X12236Y688651D01*
X12188Y688709D01*
X12147Y688735D01*
X12112Y688768D01*
X12043Y688800D01*
X11979Y688840D01*
X11933Y688851D01*
X11889Y688872D01*
X11814Y688880D01*
X11740Y688898D01*
X11692Y688893D01*
X11645Y688899D01*
X11571Y688883D01*
X11495Y688876D01*
X11451Y688857D01*
X11404Y688846D01*
X11339Y688808D01*
X11270Y688777D01*
X11234Y688745D01*
X11193Y688720D01*
X11144Y688663D01*
X11088Y688612D01*
X11064Y688570D01*
X11033Y688533D01*
X11005Y688463D01*
X10968Y688397D01*
X10959Y688350D01*
X10941Y688305D01*
X10927Y688177D01*
X10923Y688155D01*
X10924Y688149D01*
X10923Y688138D01*
X10923Y11684D01*
X10926Y11664D01*
X10924Y11645D01*
X10946Y11543D01*
X10962Y11441D01*
X10972Y11424D01*
X10976Y11404D01*
X11029Y11315D01*
X11078Y11224D01*
X11092Y11210D01*
X11102Y11193D01*
X11181Y11126D01*
X11256Y11054D01*
X11274Y11046D01*
X11289Y11033D01*
X11385Y10994D01*
X11479Y10951D01*
X11499Y10949D01*
X11517Y10941D01*
X11684Y10923D01*
X12338Y10923D01*
X12358Y10926D01*
G37*
%LPC*%
G36*
X47006Y353103D02*
X47006Y353103D01*
X44687Y354063D01*
X42913Y355837D01*
X41953Y358156D01*
X41953Y360664D01*
X42390Y361718D01*
X42416Y361832D01*
X42445Y361945D01*
X42444Y361951D01*
X42446Y361957D01*
X42435Y362074D01*
X42426Y362190D01*
X42423Y362196D01*
X42423Y362202D01*
X42375Y362310D01*
X42329Y362417D01*
X42325Y362422D01*
X42323Y362427D01*
X42310Y362441D01*
X42225Y362548D01*
X33438Y371334D01*
X33438Y372415D01*
X33435Y372435D01*
X33437Y372454D01*
X33415Y372556D01*
X33399Y372658D01*
X33389Y372675D01*
X33385Y372695D01*
X33332Y372784D01*
X33284Y372875D01*
X33269Y372889D01*
X33259Y372906D01*
X33180Y372973D01*
X33105Y373044D01*
X33087Y373053D01*
X33072Y373066D01*
X32976Y373104D01*
X32882Y373148D01*
X32862Y373150D01*
X32844Y373158D01*
X32677Y373176D01*
X30928Y373176D01*
X30035Y374069D01*
X30035Y387931D01*
X30928Y388824D01*
X32004Y388824D01*
X32024Y388827D01*
X32043Y388825D01*
X32145Y388847D01*
X32247Y388864D01*
X32264Y388873D01*
X32284Y388877D01*
X32373Y388930D01*
X32464Y388979D01*
X32478Y388993D01*
X32495Y389003D01*
X32562Y389082D01*
X32634Y389157D01*
X32642Y389175D01*
X32655Y389190D01*
X32694Y389287D01*
X32737Y389380D01*
X32739Y389400D01*
X32747Y389418D01*
X32765Y389585D01*
X32765Y626415D01*
X32762Y626435D01*
X32764Y626454D01*
X32742Y626556D01*
X32726Y626658D01*
X32716Y626675D01*
X32712Y626695D01*
X32659Y626784D01*
X32610Y626875D01*
X32596Y626889D01*
X32586Y626906D01*
X32507Y626973D01*
X32432Y627044D01*
X32414Y627053D01*
X32399Y627066D01*
X32303Y627104D01*
X32209Y627148D01*
X32189Y627150D01*
X32171Y627158D01*
X32004Y627176D01*
X30928Y627176D01*
X30035Y628069D01*
X30035Y641931D01*
X30928Y642824D01*
X39183Y642824D01*
X39273Y642839D01*
X39364Y642846D01*
X39394Y642858D01*
X39426Y642864D01*
X39507Y642906D01*
X39591Y642942D01*
X39623Y642968D01*
X39643Y642979D01*
X39666Y643002D01*
X39722Y643047D01*
X40007Y643332D01*
X40586Y643667D01*
X41233Y643840D01*
X44044Y643840D01*
X44044Y635762D01*
X44048Y635742D01*
X44045Y635723D01*
X44067Y635621D01*
X44084Y635519D01*
X44093Y635502D01*
X44098Y635482D01*
X44151Y635393D01*
X44199Y635302D01*
X44214Y635288D01*
X44224Y635271D01*
X44303Y635204D01*
X44378Y635133D01*
X44396Y635124D01*
X44411Y635111D01*
X44507Y635072D01*
X44601Y635029D01*
X44620Y635027D01*
X44639Y635019D01*
X44806Y635001D01*
X45568Y635001D01*
X45568Y634999D01*
X44806Y634999D01*
X44786Y634996D01*
X44766Y634998D01*
X44665Y634976D01*
X44563Y634959D01*
X44545Y634950D01*
X44526Y634946D01*
X44437Y634893D01*
X44346Y634844D01*
X44332Y634830D01*
X44315Y634820D01*
X44247Y634741D01*
X44176Y634666D01*
X44168Y634648D01*
X44155Y634633D01*
X44116Y634537D01*
X44073Y634443D01*
X44070Y634423D01*
X44063Y634405D01*
X44044Y634238D01*
X44044Y626160D01*
X41233Y626160D01*
X40586Y626333D01*
X40007Y626668D01*
X39722Y626953D01*
X39648Y627006D01*
X39578Y627066D01*
X39548Y627078D01*
X39522Y627097D01*
X39435Y627123D01*
X39350Y627158D01*
X39309Y627162D01*
X39287Y627169D01*
X39255Y627168D01*
X39183Y627176D01*
X39116Y627176D01*
X39096Y627173D01*
X39077Y627175D01*
X38975Y627153D01*
X38873Y627136D01*
X38856Y627127D01*
X38836Y627123D01*
X38747Y627070D01*
X38656Y627021D01*
X38642Y627007D01*
X38625Y626997D01*
X38558Y626918D01*
X38486Y626843D01*
X38478Y626825D01*
X38465Y626810D01*
X38426Y626713D01*
X38383Y626620D01*
X38381Y626600D01*
X38373Y626582D01*
X38355Y626415D01*
X38355Y389585D01*
X38358Y389565D01*
X38356Y389546D01*
X38378Y389444D01*
X38394Y389342D01*
X38404Y389325D01*
X38408Y389305D01*
X38461Y389216D01*
X38510Y389125D01*
X38524Y389111D01*
X38534Y389094D01*
X38613Y389027D01*
X38688Y388956D01*
X38706Y388947D01*
X38721Y388934D01*
X38817Y388896D01*
X38911Y388852D01*
X38931Y388850D01*
X38949Y388842D01*
X39116Y388824D01*
X39183Y388824D01*
X39273Y388839D01*
X39364Y388846D01*
X39394Y388858D01*
X39426Y388864D01*
X39507Y388906D01*
X39591Y388942D01*
X39623Y388968D01*
X39643Y388979D01*
X39666Y389002D01*
X39722Y389047D01*
X40007Y389332D01*
X40586Y389667D01*
X41233Y389840D01*
X44044Y389840D01*
X44044Y381762D01*
X44048Y381742D01*
X44045Y381723D01*
X44067Y381621D01*
X44084Y381519D01*
X44093Y381502D01*
X44098Y381482D01*
X44151Y381393D01*
X44199Y381302D01*
X44214Y381288D01*
X44224Y381271D01*
X44303Y381204D01*
X44378Y381133D01*
X44396Y381124D01*
X44411Y381111D01*
X44507Y381072D01*
X44601Y381029D01*
X44620Y381027D01*
X44639Y381019D01*
X44806Y381001D01*
X45568Y381001D01*
X45568Y380999D01*
X44806Y380999D01*
X44786Y380996D01*
X44766Y380998D01*
X44665Y380976D01*
X44563Y380959D01*
X44545Y380950D01*
X44526Y380946D01*
X44437Y380893D01*
X44346Y380844D01*
X44332Y380830D01*
X44315Y380820D01*
X44247Y380741D01*
X44176Y380666D01*
X44168Y380648D01*
X44155Y380633D01*
X44116Y380537D01*
X44073Y380443D01*
X44070Y380423D01*
X44063Y380405D01*
X44044Y380238D01*
X44044Y372540D01*
X44059Y372450D01*
X44066Y372359D01*
X44079Y372329D01*
X44084Y372297D01*
X44127Y372216D01*
X44163Y372133D01*
X44188Y372100D01*
X44199Y372080D01*
X44223Y372058D01*
X44245Y372030D01*
X44247Y372026D01*
X44250Y372023D01*
X44267Y372002D01*
X51179Y365090D01*
X51232Y365052D01*
X51279Y365006D01*
X51352Y364966D01*
X51379Y364946D01*
X51397Y364941D01*
X51426Y364925D01*
X51833Y364757D01*
X53607Y362983D01*
X54567Y360664D01*
X54567Y358156D01*
X53607Y355837D01*
X51833Y354063D01*
X49514Y353103D01*
X47006Y353103D01*
G37*
%LPD*%
%LPC*%
G36*
X41233Y118160D02*
X41233Y118160D01*
X40586Y118333D01*
X40007Y118668D01*
X39722Y118953D01*
X39648Y119006D01*
X39578Y119066D01*
X39548Y119078D01*
X39522Y119097D01*
X39435Y119123D01*
X39350Y119158D01*
X39309Y119162D01*
X39287Y119169D01*
X39255Y119168D01*
X39183Y119176D01*
X30928Y119176D01*
X30035Y120069D01*
X30035Y133931D01*
X30928Y134824D01*
X32004Y134824D01*
X32024Y134827D01*
X32043Y134825D01*
X32145Y134847D01*
X32247Y134864D01*
X32264Y134873D01*
X32284Y134877D01*
X32373Y134930D01*
X32464Y134979D01*
X32478Y134993D01*
X32495Y135003D01*
X32562Y135082D01*
X32634Y135157D01*
X32642Y135175D01*
X32655Y135190D01*
X32694Y135287D01*
X32737Y135380D01*
X32739Y135400D01*
X32747Y135418D01*
X32765Y135585D01*
X32765Y176418D01*
X34625Y178278D01*
X47782Y191435D01*
X47835Y191509D01*
X47895Y191578D01*
X47907Y191608D01*
X47926Y191634D01*
X47953Y191721D01*
X47987Y191806D01*
X47991Y191847D01*
X47998Y191869D01*
X47997Y191902D01*
X48005Y191973D01*
X48005Y273223D01*
X47987Y273337D01*
X47969Y273454D01*
X47967Y273459D01*
X47966Y273465D01*
X47911Y273568D01*
X47858Y273673D01*
X47853Y273677D01*
X47850Y273683D01*
X47765Y273764D01*
X47682Y273845D01*
X47676Y273849D01*
X47672Y273852D01*
X47655Y273860D01*
X47535Y273926D01*
X47227Y274053D01*
X45453Y275827D01*
X44493Y278146D01*
X44493Y280654D01*
X45453Y282973D01*
X47227Y284747D01*
X49546Y285707D01*
X52054Y285707D01*
X54373Y284747D01*
X56147Y282973D01*
X57107Y280654D01*
X57107Y278146D01*
X56147Y275827D01*
X54373Y274053D01*
X54065Y273926D01*
X53965Y273864D01*
X53865Y273804D01*
X53861Y273800D01*
X53856Y273796D01*
X53781Y273706D01*
X53705Y273617D01*
X53703Y273612D01*
X53699Y273607D01*
X53657Y273498D01*
X53613Y273389D01*
X53612Y273382D01*
X53611Y273377D01*
X53610Y273359D01*
X53595Y273223D01*
X53595Y189342D01*
X51735Y187482D01*
X38578Y174325D01*
X38525Y174251D01*
X38465Y174182D01*
X38453Y174152D01*
X38434Y174126D01*
X38407Y174039D01*
X38373Y173954D01*
X38369Y173913D01*
X38362Y173891D01*
X38363Y173858D01*
X38355Y173787D01*
X38355Y135585D01*
X38358Y135565D01*
X38356Y135546D01*
X38378Y135444D01*
X38394Y135342D01*
X38404Y135325D01*
X38408Y135305D01*
X38461Y135216D01*
X38510Y135125D01*
X38524Y135111D01*
X38534Y135094D01*
X38613Y135027D01*
X38688Y134956D01*
X38706Y134947D01*
X38721Y134934D01*
X38817Y134896D01*
X38911Y134852D01*
X38931Y134850D01*
X38949Y134842D01*
X39116Y134824D01*
X39183Y134824D01*
X39273Y134839D01*
X39364Y134846D01*
X39394Y134858D01*
X39426Y134864D01*
X39507Y134906D01*
X39591Y134942D01*
X39623Y134968D01*
X39643Y134979D01*
X39666Y135002D01*
X39722Y135047D01*
X40007Y135332D01*
X40586Y135667D01*
X41233Y135840D01*
X44044Y135840D01*
X44044Y127762D01*
X44048Y127742D01*
X44045Y127723D01*
X44067Y127621D01*
X44084Y127519D01*
X44093Y127502D01*
X44098Y127482D01*
X44151Y127393D01*
X44199Y127302D01*
X44214Y127288D01*
X44224Y127271D01*
X44303Y127204D01*
X44378Y127133D01*
X44396Y127124D01*
X44411Y127111D01*
X44507Y127072D01*
X44601Y127029D01*
X44620Y127027D01*
X44639Y127019D01*
X44806Y127001D01*
X45568Y127001D01*
X45568Y126999D01*
X44806Y126999D01*
X44786Y126996D01*
X44766Y126998D01*
X44665Y126976D01*
X44563Y126959D01*
X44545Y126950D01*
X44526Y126946D01*
X44437Y126893D01*
X44346Y126844D01*
X44332Y126830D01*
X44315Y126820D01*
X44247Y126741D01*
X44176Y126666D01*
X44168Y126648D01*
X44155Y126633D01*
X44116Y126537D01*
X44073Y126443D01*
X44070Y126423D01*
X44063Y126405D01*
X44044Y126238D01*
X44044Y118160D01*
X41233Y118160D01*
G37*
%LPD*%
%LPC*%
G36*
X40893Y687549D02*
X40893Y687549D01*
X40893Y718567D01*
X66911Y718567D01*
X66911Y689756D01*
X66738Y689109D01*
X66403Y688530D01*
X65930Y688057D01*
X65351Y687722D01*
X64704Y687549D01*
X40893Y687549D01*
G37*
%LPD*%
%LPC*%
G36*
X13099Y43433D02*
X13099Y43433D01*
X13099Y72244D01*
X13272Y72891D01*
X13607Y73470D01*
X14080Y73943D01*
X14659Y74278D01*
X15306Y74451D01*
X39117Y74451D01*
X39117Y43433D01*
X13099Y43433D01*
G37*
%LPD*%
%LPC*%
G36*
X23897Y297243D02*
X23897Y297243D01*
X21119Y298394D01*
X18994Y300519D01*
X17843Y303297D01*
X17843Y306303D01*
X18994Y309081D01*
X21119Y311206D01*
X23897Y312357D01*
X26903Y312357D01*
X29681Y311206D01*
X31806Y309081D01*
X32957Y306303D01*
X32957Y303297D01*
X31806Y300519D01*
X29681Y298394D01*
X26903Y297243D01*
X23897Y297243D01*
G37*
%LPD*%
%LPC*%
G36*
X23897Y271843D02*
X23897Y271843D01*
X21119Y272994D01*
X18994Y275119D01*
X17843Y277897D01*
X17843Y280903D01*
X18994Y283681D01*
X21119Y285806D01*
X23897Y286957D01*
X26903Y286957D01*
X29681Y285806D01*
X31806Y283681D01*
X32957Y280903D01*
X32957Y277897D01*
X31806Y275119D01*
X29681Y272994D01*
X26903Y271843D01*
X23897Y271843D01*
G37*
%LPD*%
%LPC*%
G36*
X24146Y666793D02*
X24146Y666793D01*
X21827Y667753D01*
X20053Y669527D01*
X19093Y671846D01*
X19093Y674354D01*
X20053Y676673D01*
X21827Y678447D01*
X24146Y679407D01*
X26654Y679407D01*
X28973Y678447D01*
X30747Y676673D01*
X31707Y674354D01*
X31707Y671846D01*
X30747Y669527D01*
X28973Y667753D01*
X26654Y666793D01*
X24146Y666793D01*
G37*
%LPD*%
%LPC*%
G36*
X24146Y95293D02*
X24146Y95293D01*
X21827Y96253D01*
X20053Y98027D01*
X19093Y100346D01*
X19093Y102854D01*
X20053Y105173D01*
X21827Y106947D01*
X24146Y107907D01*
X26654Y107907D01*
X28973Y106947D01*
X30747Y105173D01*
X31707Y102854D01*
X31707Y100346D01*
X30747Y98027D01*
X28973Y96253D01*
X26654Y95293D01*
X24146Y95293D01*
G37*
%LPD*%
%LPC*%
G36*
X47091Y636523D02*
X47091Y636523D01*
X47091Y643840D01*
X49903Y643840D01*
X50549Y643667D01*
X51128Y643332D01*
X51601Y642859D01*
X51936Y642280D01*
X52109Y641634D01*
X52109Y636523D01*
X47091Y636523D01*
G37*
%LPD*%
%LPC*%
G36*
X47091Y382523D02*
X47091Y382523D01*
X47091Y389840D01*
X49903Y389840D01*
X50549Y389667D01*
X51128Y389332D01*
X51601Y388859D01*
X51936Y388280D01*
X52109Y387634D01*
X52109Y382523D01*
X47091Y382523D01*
G37*
%LPD*%
%LPC*%
G36*
X47091Y128523D02*
X47091Y128523D01*
X47091Y135840D01*
X49903Y135840D01*
X50549Y135667D01*
X51128Y135332D01*
X51601Y134859D01*
X51936Y134280D01*
X52109Y133634D01*
X52109Y128523D01*
X47091Y128523D01*
G37*
%LPD*%
%LPC*%
G36*
X47091Y626160D02*
X47091Y626160D01*
X47091Y633477D01*
X52109Y633477D01*
X52109Y628366D01*
X51936Y627720D01*
X51601Y627141D01*
X51128Y626668D01*
X50549Y626333D01*
X49903Y626160D01*
X47091Y626160D01*
G37*
%LPD*%
%LPC*%
G36*
X47091Y372160D02*
X47091Y372160D01*
X47091Y379477D01*
X52109Y379477D01*
X52109Y374366D01*
X51936Y373720D01*
X51601Y373141D01*
X51128Y372668D01*
X50549Y372333D01*
X49903Y372160D01*
X47091Y372160D01*
G37*
%LPD*%
%LPC*%
G36*
X47091Y118160D02*
X47091Y118160D01*
X47091Y125477D01*
X52109Y125477D01*
X52109Y120366D01*
X51936Y119720D01*
X51601Y119141D01*
X51128Y118668D01*
X50549Y118333D01*
X49903Y118160D01*
X47091Y118160D01*
G37*
%LPD*%
D10*
X35560Y127000D03*
X45568Y127000D03*
X35560Y381000D03*
X45568Y381000D03*
X35560Y635000D03*
X45568Y635000D03*
D11*
X40640Y41910D03*
X39370Y720090D03*
D12*
X50800Y419100D03*
X50800Y609600D03*
X50800Y165100D03*
X50800Y660400D03*
X50800Y88900D03*
D13*
X40640Y78740D02*
X40640Y41910D01*
X40640Y78740D02*
X50800Y88900D01*
X50800Y660400D02*
X50800Y708660D01*
X39370Y720090D01*
D12*
X25400Y673100D03*
X25400Y101600D03*
X50800Y279400D03*
D14*
X50800Y190500D01*
X35560Y175260D02*
X35560Y127000D01*
X35560Y175260D02*
X50800Y190500D01*
D15*
X48260Y359410D02*
X48260Y362261D01*
D12*
X48260Y359410D03*
D15*
X37503Y379057D02*
X35560Y381000D01*
X37503Y379057D02*
X37503Y373017D01*
X48260Y362261D01*
D14*
X35560Y381000D02*
X35560Y635000D01*
D16*
X25400Y304800D03*
X25400Y279400D03*
M02*
