G04 EAGLE Gerber RS-274X export*
G75*
%MOMM*%
%FSLAX34Y34*%
%LPD*%
%INSilkscreen Top*%
%IPPOS*%
%AMOC8*
5,1,8,0,0,1.08239X$1,22.5*%
G01*
%ADD10C,0.127000*%
%ADD11C,0.050800*%


D10*
X30048Y116510D02*
X30048Y137490D01*
X51054Y137490D01*
X51054Y116510D01*
X30048Y116510D01*
D11*
X52324Y127254D02*
X54187Y132842D01*
X56049Y127254D01*
X55584Y128651D02*
X52790Y128651D01*
X52324Y124347D02*
X56049Y124347D01*
X54187Y122484D02*
X54187Y126210D01*
X26924Y139954D02*
X26924Y145542D01*
X28476Y145542D01*
X28552Y145540D01*
X28628Y145535D01*
X28704Y145525D01*
X28779Y145512D01*
X28853Y145495D01*
X28927Y145475D01*
X28999Y145451D01*
X29070Y145424D01*
X29140Y145393D01*
X29208Y145359D01*
X29274Y145321D01*
X29338Y145280D01*
X29401Y145237D01*
X29461Y145190D01*
X29518Y145140D01*
X29573Y145087D01*
X29626Y145032D01*
X29676Y144975D01*
X29723Y144915D01*
X29766Y144852D01*
X29807Y144788D01*
X29845Y144722D01*
X29879Y144654D01*
X29910Y144584D01*
X29937Y144513D01*
X29961Y144440D01*
X29981Y144367D01*
X29998Y144293D01*
X30011Y144218D01*
X30021Y144142D01*
X30026Y144066D01*
X30028Y143990D01*
X30028Y141506D01*
X30026Y141427D01*
X30020Y141349D01*
X30010Y141271D01*
X29996Y141194D01*
X29978Y141117D01*
X29957Y141041D01*
X29931Y140967D01*
X29902Y140894D01*
X29869Y140823D01*
X29833Y140753D01*
X29793Y140685D01*
X29750Y140619D01*
X29703Y140556D01*
X29654Y140495D01*
X29601Y140437D01*
X29545Y140381D01*
X29487Y140328D01*
X29426Y140279D01*
X29363Y140232D01*
X29297Y140189D01*
X29229Y140149D01*
X29160Y140113D01*
X29088Y140080D01*
X29015Y140051D01*
X28941Y140025D01*
X28865Y140004D01*
X28788Y139986D01*
X28711Y139972D01*
X28633Y139962D01*
X28555Y139956D01*
X28476Y139954D01*
X26924Y139954D01*
X32593Y144300D02*
X34145Y145542D01*
X34145Y139954D01*
X32593Y139954D02*
X35698Y139954D01*
D10*
X30048Y370510D02*
X30048Y391490D01*
X51054Y391490D01*
X51054Y370510D01*
X30048Y370510D01*
D11*
X52324Y381254D02*
X54187Y386842D01*
X56049Y381254D01*
X55584Y382651D02*
X52790Y382651D01*
X52324Y378347D02*
X56049Y378347D01*
X54187Y376484D02*
X54187Y380210D01*
X26924Y393954D02*
X26924Y399542D01*
X28476Y399542D01*
X28552Y399540D01*
X28628Y399535D01*
X28704Y399525D01*
X28779Y399512D01*
X28853Y399495D01*
X28927Y399475D01*
X28999Y399451D01*
X29070Y399424D01*
X29140Y399393D01*
X29208Y399359D01*
X29274Y399321D01*
X29338Y399280D01*
X29401Y399237D01*
X29461Y399190D01*
X29518Y399140D01*
X29573Y399087D01*
X29626Y399032D01*
X29676Y398975D01*
X29723Y398915D01*
X29766Y398852D01*
X29807Y398788D01*
X29845Y398722D01*
X29879Y398654D01*
X29910Y398584D01*
X29937Y398513D01*
X29961Y398440D01*
X29981Y398367D01*
X29998Y398293D01*
X30011Y398218D01*
X30021Y398142D01*
X30026Y398066D01*
X30028Y397990D01*
X30028Y395506D01*
X30026Y395427D01*
X30020Y395349D01*
X30010Y395271D01*
X29996Y395194D01*
X29978Y395117D01*
X29957Y395041D01*
X29931Y394967D01*
X29902Y394894D01*
X29869Y394823D01*
X29833Y394753D01*
X29793Y394685D01*
X29750Y394619D01*
X29703Y394556D01*
X29654Y394495D01*
X29601Y394437D01*
X29545Y394381D01*
X29487Y394328D01*
X29426Y394279D01*
X29363Y394232D01*
X29297Y394189D01*
X29229Y394149D01*
X29160Y394113D01*
X29088Y394080D01*
X29015Y394051D01*
X28941Y394025D01*
X28865Y394004D01*
X28788Y393986D01*
X28711Y393972D01*
X28633Y393962D01*
X28555Y393956D01*
X28476Y393954D01*
X26924Y393954D01*
X34301Y399542D02*
X34374Y399540D01*
X34447Y399534D01*
X34520Y399525D01*
X34591Y399511D01*
X34663Y399494D01*
X34733Y399474D01*
X34802Y399449D01*
X34869Y399421D01*
X34935Y399390D01*
X35000Y399355D01*
X35062Y399317D01*
X35122Y399275D01*
X35180Y399231D01*
X35236Y399183D01*
X35289Y399133D01*
X35339Y399080D01*
X35387Y399024D01*
X35431Y398966D01*
X35473Y398906D01*
X35511Y398844D01*
X35546Y398779D01*
X35577Y398713D01*
X35605Y398646D01*
X35630Y398577D01*
X35650Y398507D01*
X35667Y398435D01*
X35681Y398364D01*
X35690Y398291D01*
X35696Y398218D01*
X35698Y398145D01*
X34301Y399542D02*
X34217Y399540D01*
X34134Y399534D01*
X34051Y399525D01*
X33969Y399511D01*
X33887Y399494D01*
X33806Y399472D01*
X33726Y399447D01*
X33648Y399419D01*
X33570Y399387D01*
X33495Y399351D01*
X33421Y399312D01*
X33349Y399269D01*
X33279Y399223D01*
X33212Y399174D01*
X33146Y399121D01*
X33084Y399066D01*
X33024Y399008D01*
X32966Y398947D01*
X32912Y398884D01*
X32860Y398818D01*
X32812Y398750D01*
X32767Y398679D01*
X32725Y398607D01*
X32687Y398532D01*
X32652Y398456D01*
X32621Y398379D01*
X32593Y398300D01*
X35231Y397059D02*
X35285Y397112D01*
X35336Y397169D01*
X35384Y397228D01*
X35429Y397289D01*
X35470Y397352D01*
X35509Y397418D01*
X35544Y397485D01*
X35576Y397554D01*
X35604Y397625D01*
X35628Y397696D01*
X35649Y397769D01*
X35666Y397843D01*
X35680Y397918D01*
X35689Y397993D01*
X35695Y398069D01*
X35697Y398145D01*
X35232Y397058D02*
X32593Y393954D01*
X35698Y393954D01*
D10*
X30048Y624510D02*
X30048Y645490D01*
X51054Y645490D01*
X51054Y624510D01*
X30048Y624510D01*
D11*
X52324Y635254D02*
X54187Y640842D01*
X56049Y635254D01*
X55584Y636651D02*
X52790Y636651D01*
X52324Y632347D02*
X56049Y632347D01*
X54187Y630484D02*
X54187Y634210D01*
X26924Y647954D02*
X26924Y653542D01*
X28476Y653542D01*
X28552Y653540D01*
X28628Y653535D01*
X28704Y653525D01*
X28779Y653512D01*
X28853Y653495D01*
X28927Y653475D01*
X28999Y653451D01*
X29070Y653424D01*
X29140Y653393D01*
X29208Y653359D01*
X29274Y653321D01*
X29338Y653280D01*
X29401Y653237D01*
X29461Y653190D01*
X29518Y653140D01*
X29573Y653087D01*
X29626Y653032D01*
X29676Y652975D01*
X29723Y652915D01*
X29766Y652852D01*
X29807Y652788D01*
X29845Y652722D01*
X29879Y652654D01*
X29910Y652584D01*
X29937Y652513D01*
X29961Y652440D01*
X29981Y652367D01*
X29998Y652293D01*
X30011Y652218D01*
X30021Y652142D01*
X30026Y652066D01*
X30028Y651990D01*
X30028Y649506D01*
X30026Y649427D01*
X30020Y649349D01*
X30010Y649271D01*
X29996Y649194D01*
X29978Y649117D01*
X29957Y649041D01*
X29931Y648967D01*
X29902Y648894D01*
X29869Y648823D01*
X29833Y648753D01*
X29793Y648685D01*
X29750Y648619D01*
X29703Y648556D01*
X29654Y648495D01*
X29601Y648437D01*
X29545Y648381D01*
X29487Y648328D01*
X29426Y648279D01*
X29363Y648232D01*
X29297Y648189D01*
X29229Y648149D01*
X29160Y648113D01*
X29088Y648080D01*
X29015Y648051D01*
X28941Y648025D01*
X28865Y648004D01*
X28788Y647986D01*
X28711Y647972D01*
X28633Y647962D01*
X28555Y647956D01*
X28476Y647954D01*
X26924Y647954D01*
X32593Y647954D02*
X34145Y647954D01*
X34222Y647956D01*
X34300Y647962D01*
X34376Y647971D01*
X34453Y647985D01*
X34528Y648002D01*
X34602Y648023D01*
X34676Y648048D01*
X34748Y648076D01*
X34818Y648108D01*
X34887Y648143D01*
X34954Y648182D01*
X35019Y648224D01*
X35082Y648269D01*
X35143Y648317D01*
X35201Y648368D01*
X35256Y648422D01*
X35309Y648479D01*
X35358Y648538D01*
X35405Y648600D01*
X35449Y648664D01*
X35489Y648730D01*
X35526Y648798D01*
X35560Y648868D01*
X35590Y648939D01*
X35616Y649012D01*
X35639Y649086D01*
X35658Y649161D01*
X35673Y649236D01*
X35685Y649313D01*
X35693Y649390D01*
X35697Y649467D01*
X35697Y649545D01*
X35693Y649622D01*
X35685Y649699D01*
X35673Y649776D01*
X35658Y649851D01*
X35639Y649926D01*
X35616Y650000D01*
X35590Y650073D01*
X35560Y650144D01*
X35526Y650214D01*
X35489Y650282D01*
X35449Y650348D01*
X35405Y650412D01*
X35358Y650474D01*
X35309Y650533D01*
X35256Y650590D01*
X35201Y650644D01*
X35143Y650695D01*
X35082Y650743D01*
X35019Y650788D01*
X34954Y650830D01*
X34887Y650869D01*
X34818Y650904D01*
X34748Y650936D01*
X34676Y650964D01*
X34602Y650989D01*
X34528Y651010D01*
X34453Y651027D01*
X34376Y651041D01*
X34300Y651050D01*
X34222Y651056D01*
X34145Y651058D01*
X34456Y653542D02*
X32593Y653542D01*
X34456Y653542D02*
X34526Y653540D01*
X34595Y653534D01*
X34664Y653524D01*
X34732Y653511D01*
X34800Y653493D01*
X34866Y653472D01*
X34931Y653447D01*
X34995Y653419D01*
X35057Y653387D01*
X35117Y653352D01*
X35175Y653313D01*
X35230Y653271D01*
X35284Y653226D01*
X35334Y653178D01*
X35382Y653128D01*
X35427Y653074D01*
X35469Y653019D01*
X35508Y652961D01*
X35543Y652901D01*
X35575Y652839D01*
X35603Y652775D01*
X35628Y652710D01*
X35649Y652644D01*
X35667Y652576D01*
X35680Y652508D01*
X35690Y652439D01*
X35696Y652370D01*
X35698Y652300D01*
X35696Y652230D01*
X35690Y652161D01*
X35680Y652092D01*
X35667Y652024D01*
X35649Y651956D01*
X35628Y651890D01*
X35603Y651825D01*
X35575Y651761D01*
X35543Y651699D01*
X35508Y651639D01*
X35469Y651581D01*
X35427Y651526D01*
X35382Y651472D01*
X35334Y651422D01*
X35284Y651374D01*
X35230Y651329D01*
X35175Y651287D01*
X35117Y651248D01*
X35057Y651213D01*
X34995Y651181D01*
X34931Y651153D01*
X34866Y651128D01*
X34800Y651107D01*
X34732Y651089D01*
X34664Y651076D01*
X34595Y651066D01*
X34526Y651060D01*
X34456Y651058D01*
X33214Y651058D01*
M02*
