M48
;GenerationSoftware,Autodesk,EAGLE,9.3.0*%
;CreationDate,2019-10-19T03:26:30Z*%
FMAT,2
ICI,OFF
METRIC,TZ,000.000
T4C0.550
T3C0.800
T2C1.016
%
G90
M71
T2
X7400Y25430
X4860Y25430
X2320Y25430
X-220Y25430
X7400Y27970
X4860Y27970
X2320Y27970
X-220Y27970
T3
X3556Y46482
T4
X2540Y33020
X2540Y66040
X2032Y17526
X2540Y44450
X4191Y16764
X6350Y17780
X5080Y21590
X2540Y52070
X5080Y63500
X5588Y36830
X5080Y8890
X2540Y8890
M30