G04 EAGLE Gerber RS-274X export*
G75*
%MOMM*%
%FSLAX34Y34*%
%LPD*%
%INTop Copper*%
%IPPOS*%
%AMOC8*
5,1,8,0,0,1.08239X$1,22.5*%
G01*
%ADD10R,1.259841X0.800100*%
%ADD11C,5.461000*%
%ADD12C,1.625600*%
%ADD13C,1.016000*%
%ADD14C,0.812800*%

G36*
X2218964Y2798D02*
X2218964Y2798D01*
X2218983Y2796D01*
X2219085Y2818D01*
X2219187Y2834D01*
X2219204Y2844D01*
X2219224Y2848D01*
X2219313Y2901D01*
X2219404Y2950D01*
X2219418Y2964D01*
X2219435Y2974D01*
X2219502Y3053D01*
X2219574Y3128D01*
X2219582Y3146D01*
X2219595Y3161D01*
X2219634Y3257D01*
X2219677Y3351D01*
X2219679Y3371D01*
X2219687Y3389D01*
X2219705Y3556D01*
X2219705Y85344D01*
X2219702Y85364D01*
X2219704Y85383D01*
X2219682Y85485D01*
X2219666Y85587D01*
X2219656Y85604D01*
X2219652Y85624D01*
X2219599Y85713D01*
X2219550Y85804D01*
X2219536Y85818D01*
X2219526Y85835D01*
X2219447Y85902D01*
X2219372Y85974D01*
X2219354Y85982D01*
X2219339Y85995D01*
X2219243Y86034D01*
X2219149Y86077D01*
X2219129Y86079D01*
X2219111Y86087D01*
X2218944Y86105D01*
X417942Y86105D01*
X416305Y87742D01*
X416305Y127000D01*
X416302Y127020D01*
X416304Y127039D01*
X416282Y127141D01*
X416266Y127243D01*
X416256Y127260D01*
X416252Y127280D01*
X416199Y127369D01*
X416150Y127460D01*
X416136Y127474D01*
X416126Y127491D01*
X416047Y127558D01*
X415972Y127630D01*
X415954Y127638D01*
X415939Y127651D01*
X415843Y127690D01*
X415749Y127733D01*
X415729Y127735D01*
X415711Y127743D01*
X415544Y127761D01*
X385160Y127761D01*
X385090Y127750D01*
X385018Y127748D01*
X384969Y127730D01*
X384918Y127722D01*
X384854Y127688D01*
X384787Y127663D01*
X384746Y127631D01*
X384700Y127606D01*
X384651Y127555D01*
X384595Y127510D01*
X384567Y127466D01*
X384531Y127428D01*
X384501Y127363D01*
X384462Y127303D01*
X384449Y127252D01*
X384427Y127205D01*
X384419Y127134D01*
X384402Y127064D01*
X384406Y127012D01*
X384400Y126961D01*
X384415Y126890D01*
X384421Y126819D01*
X384441Y126771D01*
X384452Y126720D01*
X384489Y126659D01*
X384517Y126593D01*
X384562Y126537D01*
X384579Y126509D01*
X384596Y126494D01*
X384622Y126462D01*
X397599Y113485D01*
X398527Y111245D01*
X398527Y93011D01*
X398541Y92921D01*
X398549Y92830D01*
X398561Y92800D01*
X398566Y92768D01*
X398609Y92687D01*
X398645Y92603D01*
X398671Y92571D01*
X398682Y92551D01*
X398705Y92528D01*
X398750Y92472D01*
X408702Y82520D01*
X408776Y82467D01*
X408846Y82407D01*
X408876Y82395D01*
X408902Y82376D01*
X408989Y82349D01*
X409074Y82315D01*
X409115Y82311D01*
X409137Y82304D01*
X409169Y82305D01*
X409241Y82297D01*
X1233113Y82297D01*
X1233126Y82291D01*
X1233190Y82276D01*
X1233251Y82252D01*
X1233334Y82243D01*
X1233366Y82235D01*
X1233385Y82237D01*
X1233417Y82233D01*
X1239041Y82233D01*
X1240232Y81043D01*
X1240232Y71958D01*
X1240250Y71844D01*
X1240267Y71731D01*
X1240271Y71721D01*
X1240272Y71715D01*
X1240282Y71695D01*
X1240334Y71577D01*
X1240567Y71174D01*
X1240740Y70527D01*
X1240740Y67716D01*
X1232662Y67716D01*
X1232642Y67712D01*
X1232623Y67715D01*
X1232521Y67693D01*
X1232419Y67676D01*
X1232402Y67667D01*
X1232382Y67662D01*
X1232293Y67609D01*
X1232202Y67561D01*
X1232188Y67546D01*
X1232171Y67536D01*
X1232104Y67457D01*
X1232033Y67382D01*
X1232024Y67364D01*
X1232011Y67349D01*
X1231972Y67253D01*
X1231929Y67159D01*
X1231927Y67140D01*
X1231919Y67121D01*
X1231901Y66954D01*
X1231901Y66192D01*
X1231899Y66192D01*
X1231899Y66954D01*
X1231896Y66974D01*
X1231898Y66994D01*
X1231876Y67095D01*
X1231859Y67197D01*
X1231850Y67215D01*
X1231846Y67234D01*
X1231793Y67323D01*
X1231744Y67414D01*
X1231730Y67428D01*
X1231720Y67445D01*
X1231641Y67513D01*
X1231566Y67584D01*
X1231548Y67592D01*
X1231533Y67605D01*
X1231437Y67644D01*
X1231343Y67687D01*
X1231323Y67690D01*
X1231305Y67697D01*
X1231138Y67716D01*
X1223060Y67716D01*
X1223060Y69342D01*
X1223057Y69362D01*
X1223059Y69381D01*
X1223037Y69483D01*
X1223020Y69585D01*
X1223011Y69602D01*
X1223007Y69622D01*
X1222954Y69711D01*
X1222905Y69802D01*
X1222891Y69816D01*
X1222881Y69833D01*
X1222802Y69900D01*
X1222727Y69972D01*
X1222709Y69980D01*
X1222694Y69993D01*
X1222597Y70032D01*
X1222504Y70075D01*
X1222484Y70077D01*
X1222466Y70085D01*
X1222299Y70103D01*
X1051001Y70103D01*
X1050981Y70100D01*
X1050962Y70102D01*
X1050860Y70080D01*
X1050758Y70064D01*
X1050741Y70054D01*
X1050721Y70050D01*
X1050632Y69997D01*
X1050541Y69948D01*
X1050527Y69934D01*
X1050510Y69924D01*
X1050443Y69845D01*
X1050372Y69770D01*
X1050363Y69752D01*
X1050350Y69737D01*
X1050312Y69641D01*
X1050268Y69547D01*
X1050266Y69527D01*
X1050258Y69509D01*
X1050240Y69342D01*
X1050240Y67716D01*
X1042162Y67716D01*
X1042142Y67712D01*
X1042123Y67715D01*
X1042021Y67693D01*
X1041919Y67676D01*
X1041902Y67667D01*
X1041882Y67662D01*
X1041793Y67609D01*
X1041702Y67561D01*
X1041688Y67546D01*
X1041671Y67536D01*
X1041604Y67457D01*
X1041533Y67382D01*
X1041524Y67364D01*
X1041511Y67349D01*
X1041472Y67253D01*
X1041429Y67159D01*
X1041427Y67140D01*
X1041419Y67121D01*
X1041401Y66954D01*
X1041401Y66192D01*
X1041399Y66192D01*
X1041399Y66954D01*
X1041396Y66974D01*
X1041398Y66994D01*
X1041376Y67095D01*
X1041359Y67197D01*
X1041350Y67215D01*
X1041346Y67234D01*
X1041293Y67323D01*
X1041244Y67414D01*
X1041230Y67428D01*
X1041220Y67445D01*
X1041141Y67513D01*
X1041066Y67584D01*
X1041048Y67592D01*
X1041033Y67605D01*
X1040937Y67644D01*
X1040843Y67687D01*
X1040823Y67690D01*
X1040805Y67697D01*
X1040638Y67716D01*
X1032560Y67716D01*
X1032560Y69342D01*
X1032557Y69362D01*
X1032559Y69381D01*
X1032537Y69483D01*
X1032520Y69585D01*
X1032511Y69602D01*
X1032507Y69622D01*
X1032454Y69711D01*
X1032405Y69802D01*
X1032391Y69816D01*
X1032381Y69833D01*
X1032302Y69900D01*
X1032227Y69972D01*
X1032209Y69980D01*
X1032194Y69993D01*
X1032097Y70032D01*
X1032004Y70075D01*
X1031984Y70077D01*
X1031966Y70085D01*
X1031799Y70103D01*
X860501Y70103D01*
X860481Y70100D01*
X860462Y70102D01*
X860360Y70080D01*
X860258Y70064D01*
X860241Y70054D01*
X860221Y70050D01*
X860132Y69997D01*
X860041Y69948D01*
X860027Y69934D01*
X860010Y69924D01*
X859943Y69845D01*
X859872Y69770D01*
X859863Y69752D01*
X859850Y69737D01*
X859812Y69641D01*
X859768Y69547D01*
X859766Y69527D01*
X859758Y69509D01*
X859740Y69342D01*
X859740Y67716D01*
X851662Y67716D01*
X851642Y67712D01*
X851623Y67715D01*
X851521Y67693D01*
X851419Y67676D01*
X851402Y67667D01*
X851382Y67662D01*
X851293Y67609D01*
X851202Y67561D01*
X851188Y67546D01*
X851171Y67536D01*
X851104Y67457D01*
X851033Y67382D01*
X851024Y67364D01*
X851011Y67349D01*
X850972Y67253D01*
X850929Y67159D01*
X850927Y67140D01*
X850919Y67121D01*
X850901Y66954D01*
X850901Y66192D01*
X850899Y66192D01*
X850899Y66954D01*
X850896Y66974D01*
X850898Y66994D01*
X850876Y67095D01*
X850859Y67197D01*
X850850Y67215D01*
X850846Y67234D01*
X850793Y67323D01*
X850744Y67414D01*
X850730Y67428D01*
X850720Y67445D01*
X850641Y67513D01*
X850566Y67584D01*
X850548Y67592D01*
X850533Y67605D01*
X850437Y67644D01*
X850343Y67687D01*
X850323Y67690D01*
X850305Y67697D01*
X850138Y67716D01*
X842060Y67716D01*
X842060Y69342D01*
X842057Y69362D01*
X842059Y69381D01*
X842037Y69483D01*
X842020Y69585D01*
X842011Y69602D01*
X842007Y69622D01*
X841954Y69711D01*
X841905Y69802D01*
X841891Y69816D01*
X841881Y69833D01*
X841802Y69900D01*
X841727Y69972D01*
X841709Y69980D01*
X841694Y69993D01*
X841597Y70032D01*
X841504Y70075D01*
X841484Y70077D01*
X841466Y70085D01*
X841299Y70103D01*
X670001Y70103D01*
X669981Y70100D01*
X669962Y70102D01*
X669860Y70080D01*
X669758Y70064D01*
X669741Y70054D01*
X669721Y70050D01*
X669632Y69997D01*
X669541Y69948D01*
X669527Y69934D01*
X669510Y69924D01*
X669443Y69845D01*
X669372Y69770D01*
X669363Y69752D01*
X669350Y69737D01*
X669312Y69641D01*
X669268Y69547D01*
X669266Y69527D01*
X669258Y69509D01*
X669240Y69342D01*
X669240Y67716D01*
X661162Y67716D01*
X661142Y67712D01*
X661123Y67715D01*
X661021Y67693D01*
X660919Y67676D01*
X660902Y67667D01*
X660882Y67662D01*
X660793Y67609D01*
X660702Y67561D01*
X660688Y67546D01*
X660671Y67536D01*
X660604Y67457D01*
X660533Y67382D01*
X660524Y67364D01*
X660511Y67349D01*
X660472Y67253D01*
X660429Y67159D01*
X660427Y67140D01*
X660419Y67121D01*
X660401Y66954D01*
X660401Y66192D01*
X660399Y66192D01*
X660399Y66954D01*
X660396Y66974D01*
X660398Y66994D01*
X660376Y67095D01*
X660359Y67197D01*
X660350Y67215D01*
X660346Y67234D01*
X660293Y67323D01*
X660244Y67414D01*
X660230Y67428D01*
X660220Y67445D01*
X660141Y67513D01*
X660066Y67584D01*
X660048Y67592D01*
X660033Y67605D01*
X659937Y67644D01*
X659843Y67687D01*
X659823Y67690D01*
X659805Y67697D01*
X659638Y67716D01*
X651560Y67716D01*
X651560Y69342D01*
X651557Y69362D01*
X651559Y69381D01*
X651537Y69483D01*
X651520Y69585D01*
X651511Y69602D01*
X651507Y69622D01*
X651454Y69711D01*
X651405Y69802D01*
X651391Y69816D01*
X651381Y69833D01*
X651302Y69900D01*
X651227Y69972D01*
X651209Y69980D01*
X651194Y69993D01*
X651097Y70032D01*
X651004Y70075D01*
X650984Y70077D01*
X650966Y70085D01*
X650799Y70103D01*
X405187Y70103D01*
X402946Y71031D01*
X389099Y84879D01*
X389061Y84906D01*
X389030Y84940D01*
X388962Y84978D01*
X388899Y85023D01*
X388855Y85036D01*
X388815Y85059D01*
X388738Y85072D01*
X388664Y85095D01*
X388618Y85094D01*
X388573Y85102D01*
X388496Y85091D01*
X388418Y85089D01*
X388375Y85073D01*
X388329Y85066D01*
X388260Y85031D01*
X388187Y85004D01*
X388151Y84976D01*
X388110Y84955D01*
X388056Y84899D01*
X387995Y84851D01*
X387970Y84812D01*
X387938Y84779D01*
X387872Y84659D01*
X387862Y84644D01*
X387861Y84639D01*
X387857Y84632D01*
X386820Y82128D01*
X383962Y79270D01*
X380227Y77723D01*
X376185Y77723D01*
X372450Y79270D01*
X369592Y82128D01*
X368045Y85863D01*
X368045Y106161D01*
X369592Y109896D01*
X372450Y112754D01*
X376185Y114301D01*
X377701Y114301D01*
X377772Y114312D01*
X377844Y114314D01*
X377893Y114332D01*
X377944Y114340D01*
X378007Y114374D01*
X378075Y114399D01*
X378115Y114431D01*
X378161Y114456D01*
X378211Y114507D01*
X378267Y114552D01*
X378295Y114596D01*
X378331Y114634D01*
X378361Y114699D01*
X378400Y114759D01*
X378412Y114810D01*
X378434Y114857D01*
X378442Y114928D01*
X378460Y114998D01*
X378456Y115050D01*
X378461Y115101D01*
X378446Y115172D01*
X378441Y115243D01*
X378420Y115291D01*
X378409Y115342D01*
X378372Y115403D01*
X378344Y115469D01*
X378300Y115525D01*
X378283Y115553D01*
X378265Y115568D01*
X378239Y115600D01*
X366301Y127538D01*
X366228Y127591D01*
X366158Y127651D01*
X366128Y127663D01*
X366102Y127682D01*
X366015Y127709D01*
X365930Y127743D01*
X365889Y127747D01*
X365867Y127754D01*
X365834Y127753D01*
X365763Y127761D01*
X236474Y127761D01*
X236454Y127758D01*
X236435Y127760D01*
X236333Y127738D01*
X236231Y127722D01*
X236214Y127712D01*
X236194Y127708D01*
X236105Y127655D01*
X236014Y127606D01*
X236000Y127592D01*
X235983Y127582D01*
X235916Y127503D01*
X235844Y127428D01*
X235836Y127410D01*
X235823Y127395D01*
X235784Y127299D01*
X235741Y127205D01*
X235739Y127185D01*
X235731Y127167D01*
X235713Y127000D01*
X235713Y125585D01*
X234630Y122971D01*
X232629Y120970D01*
X230316Y120012D01*
X230260Y119977D01*
X230200Y119952D01*
X230135Y119900D01*
X230107Y119882D01*
X230095Y119867D01*
X230069Y119847D01*
X208476Y98254D01*
X195550Y85328D01*
X195497Y85254D01*
X195437Y85184D01*
X195425Y85154D01*
X195406Y85128D01*
X195379Y85041D01*
X195345Y84956D01*
X195341Y84915D01*
X195334Y84893D01*
X195335Y84861D01*
X195327Y84789D01*
X195327Y80779D01*
X194399Y78539D01*
X184351Y68491D01*
X182111Y67563D01*
X181864Y67563D01*
X181844Y67560D01*
X181825Y67562D01*
X181723Y67540D01*
X181621Y67524D01*
X181604Y67514D01*
X181584Y67510D01*
X181495Y67457D01*
X181404Y67408D01*
X181390Y67394D01*
X181373Y67384D01*
X181306Y67305D01*
X181234Y67230D01*
X181226Y67212D01*
X181213Y67197D01*
X181174Y67101D01*
X181131Y67007D01*
X181129Y66987D01*
X181121Y66969D01*
X181103Y66802D01*
X181103Y47704D01*
X181106Y47686D01*
X181104Y47669D01*
X181118Y47601D01*
X181125Y47523D01*
X181137Y47493D01*
X181142Y47461D01*
X181153Y47441D01*
X181156Y47429D01*
X181186Y47378D01*
X181221Y47297D01*
X181247Y47265D01*
X181258Y47244D01*
X181278Y47224D01*
X181282Y47218D01*
X181289Y47212D01*
X181326Y47166D01*
X183620Y44872D01*
X185167Y41137D01*
X185167Y20839D01*
X183620Y17104D01*
X180762Y14246D01*
X177027Y12699D01*
X172985Y12699D01*
X169250Y14246D01*
X166392Y17104D01*
X164845Y20839D01*
X164845Y41137D01*
X166392Y44872D01*
X168686Y47166D01*
X168739Y47240D01*
X168744Y47245D01*
X168778Y47280D01*
X168781Y47289D01*
X168799Y47309D01*
X168811Y47339D01*
X168830Y47366D01*
X168855Y47447D01*
X168881Y47503D01*
X168883Y47517D01*
X168891Y47537D01*
X168895Y47578D01*
X168902Y47601D01*
X168901Y47633D01*
X168909Y47704D01*
X168909Y74619D01*
X169837Y76860D01*
X170564Y77587D01*
X170591Y77624D01*
X170625Y77655D01*
X170663Y77723D01*
X170708Y77786D01*
X170722Y77830D01*
X170744Y77870D01*
X170758Y77947D01*
X170780Y78021D01*
X170779Y78067D01*
X170787Y78112D01*
X170776Y78189D01*
X170774Y78267D01*
X170758Y78310D01*
X170752Y78356D01*
X170716Y78425D01*
X170690Y78498D01*
X170661Y78534D01*
X170640Y78575D01*
X170584Y78630D01*
X170536Y78690D01*
X170497Y78715D01*
X170464Y78747D01*
X170345Y78813D01*
X170329Y78823D01*
X170324Y78825D01*
X170318Y78828D01*
X169250Y79270D01*
X166392Y82128D01*
X164845Y85863D01*
X164845Y106161D01*
X166392Y109896D01*
X169250Y112754D01*
X172985Y114301D01*
X177027Y114301D01*
X180762Y112754D01*
X183620Y109896D01*
X185167Y106161D01*
X185167Y94027D01*
X185178Y93956D01*
X185180Y93884D01*
X185198Y93835D01*
X185206Y93784D01*
X185240Y93721D01*
X185265Y93653D01*
X185297Y93613D01*
X185322Y93566D01*
X185374Y93517D01*
X185418Y93461D01*
X185462Y93433D01*
X185500Y93397D01*
X185565Y93367D01*
X185625Y93328D01*
X185676Y93315D01*
X185723Y93293D01*
X185794Y93286D01*
X185864Y93268D01*
X185916Y93272D01*
X185967Y93266D01*
X186038Y93282D01*
X186109Y93287D01*
X186157Y93308D01*
X186208Y93319D01*
X186269Y93355D01*
X186335Y93384D01*
X186391Y93428D01*
X186419Y93445D01*
X186434Y93463D01*
X186466Y93488D01*
X194266Y101288D01*
X219440Y126462D01*
X219481Y126520D01*
X219531Y126572D01*
X219553Y126619D01*
X219583Y126661D01*
X219604Y126730D01*
X219634Y126795D01*
X219640Y126847D01*
X219656Y126897D01*
X219654Y126968D01*
X219662Y127039D01*
X219651Y127090D01*
X219649Y127142D01*
X219625Y127210D01*
X219609Y127280D01*
X219583Y127324D01*
X219565Y127373D01*
X219520Y127429D01*
X219483Y127491D01*
X219444Y127525D01*
X219411Y127565D01*
X219351Y127604D01*
X219296Y127651D01*
X219248Y127670D01*
X219204Y127698D01*
X219135Y127716D01*
X219068Y127743D01*
X218997Y127751D01*
X218966Y127759D01*
X218942Y127757D01*
X218901Y127761D01*
X3556Y127761D01*
X3536Y127758D01*
X3517Y127760D01*
X3415Y127738D01*
X3313Y127722D01*
X3296Y127712D01*
X3276Y127708D01*
X3187Y127655D01*
X3096Y127606D01*
X3082Y127592D01*
X3065Y127582D01*
X2998Y127503D01*
X2926Y127428D01*
X2918Y127410D01*
X2905Y127395D01*
X2866Y127299D01*
X2823Y127205D01*
X2821Y127185D01*
X2813Y127167D01*
X2795Y127000D01*
X2795Y3556D01*
X2798Y3536D01*
X2796Y3517D01*
X2818Y3415D01*
X2834Y3313D01*
X2844Y3296D01*
X2848Y3276D01*
X2901Y3187D01*
X2950Y3096D01*
X2964Y3082D01*
X2974Y3065D01*
X3053Y2998D01*
X3128Y2926D01*
X3146Y2918D01*
X3161Y2905D01*
X3257Y2866D01*
X3351Y2823D01*
X3371Y2821D01*
X3389Y2813D01*
X3556Y2795D01*
X2218944Y2795D01*
X2218964Y2798D01*
G37*
%LPC*%
G36*
X376185Y12699D02*
X376185Y12699D01*
X372450Y14246D01*
X369592Y17104D01*
X368045Y20839D01*
X368045Y41137D01*
X369592Y44872D01*
X372450Y47730D01*
X376185Y49277D01*
X380227Y49277D01*
X383962Y47730D01*
X386820Y44872D01*
X388367Y41137D01*
X388367Y32258D01*
X388370Y32238D01*
X388368Y32219D01*
X388390Y32117D01*
X388406Y32015D01*
X388416Y31998D01*
X388420Y31978D01*
X388473Y31889D01*
X388522Y31798D01*
X388536Y31784D01*
X388546Y31767D01*
X388625Y31700D01*
X388700Y31628D01*
X388718Y31620D01*
X388733Y31607D01*
X388829Y31568D01*
X388923Y31525D01*
X388943Y31523D01*
X388961Y31515D01*
X389128Y31497D01*
X2185613Y31497D01*
X2185626Y31491D01*
X2185690Y31476D01*
X2185751Y31452D01*
X2185834Y31443D01*
X2185866Y31435D01*
X2185885Y31437D01*
X2185917Y31433D01*
X2191541Y31433D01*
X2192732Y30243D01*
X2192732Y21158D01*
X2192750Y21044D01*
X2192767Y20931D01*
X2192771Y20921D01*
X2192772Y20915D01*
X2192782Y20895D01*
X2192834Y20777D01*
X2193067Y20374D01*
X2193240Y19727D01*
X2193240Y16916D01*
X2185162Y16916D01*
X2185142Y16912D01*
X2185123Y16915D01*
X2185021Y16893D01*
X2184919Y16876D01*
X2184902Y16867D01*
X2184882Y16862D01*
X2184793Y16809D01*
X2184702Y16761D01*
X2184688Y16746D01*
X2184671Y16736D01*
X2184604Y16657D01*
X2184533Y16582D01*
X2184524Y16564D01*
X2184511Y16549D01*
X2184472Y16453D01*
X2184429Y16359D01*
X2184427Y16340D01*
X2184419Y16321D01*
X2184401Y16154D01*
X2184401Y15392D01*
X2184399Y15392D01*
X2184399Y16154D01*
X2184396Y16174D01*
X2184398Y16194D01*
X2184376Y16295D01*
X2184359Y16397D01*
X2184350Y16415D01*
X2184346Y16434D01*
X2184293Y16523D01*
X2184244Y16614D01*
X2184230Y16628D01*
X2184220Y16645D01*
X2184141Y16713D01*
X2184066Y16784D01*
X2184048Y16792D01*
X2184033Y16805D01*
X2183937Y16844D01*
X2183843Y16887D01*
X2183823Y16890D01*
X2183805Y16897D01*
X2183638Y16916D01*
X2175560Y16916D01*
X2175560Y18542D01*
X2175557Y18562D01*
X2175559Y18581D01*
X2175537Y18683D01*
X2175520Y18785D01*
X2175511Y18802D01*
X2175507Y18822D01*
X2175454Y18911D01*
X2175405Y19002D01*
X2175391Y19016D01*
X2175381Y19033D01*
X2175302Y19100D01*
X2175227Y19172D01*
X2175209Y19180D01*
X2175194Y19193D01*
X2175097Y19232D01*
X2175004Y19275D01*
X2174984Y19277D01*
X2174966Y19285D01*
X2174799Y19303D01*
X1686001Y19303D01*
X1685981Y19300D01*
X1685962Y19302D01*
X1685860Y19280D01*
X1685758Y19264D01*
X1685741Y19254D01*
X1685721Y19250D01*
X1685632Y19197D01*
X1685541Y19148D01*
X1685527Y19134D01*
X1685510Y19124D01*
X1685443Y19045D01*
X1685372Y18970D01*
X1685363Y18952D01*
X1685350Y18937D01*
X1685312Y18841D01*
X1685268Y18747D01*
X1685266Y18727D01*
X1685258Y18709D01*
X1685240Y18542D01*
X1685240Y16916D01*
X1677162Y16916D01*
X1677142Y16912D01*
X1677123Y16915D01*
X1677021Y16893D01*
X1676919Y16876D01*
X1676902Y16867D01*
X1676882Y16862D01*
X1676793Y16809D01*
X1676702Y16761D01*
X1676688Y16746D01*
X1676671Y16736D01*
X1676604Y16657D01*
X1676533Y16582D01*
X1676524Y16564D01*
X1676511Y16549D01*
X1676472Y16453D01*
X1676429Y16359D01*
X1676427Y16340D01*
X1676419Y16321D01*
X1676401Y16154D01*
X1676401Y15392D01*
X1676399Y15392D01*
X1676399Y16154D01*
X1676396Y16174D01*
X1676398Y16194D01*
X1676376Y16295D01*
X1676359Y16397D01*
X1676350Y16415D01*
X1676346Y16434D01*
X1676293Y16523D01*
X1676244Y16614D01*
X1676230Y16628D01*
X1676220Y16645D01*
X1676141Y16713D01*
X1676066Y16784D01*
X1676048Y16792D01*
X1676033Y16805D01*
X1675937Y16844D01*
X1675843Y16887D01*
X1675823Y16890D01*
X1675805Y16897D01*
X1675638Y16916D01*
X1667560Y16916D01*
X1667560Y18542D01*
X1667557Y18562D01*
X1667559Y18581D01*
X1667537Y18683D01*
X1667520Y18785D01*
X1667511Y18802D01*
X1667507Y18822D01*
X1667454Y18911D01*
X1667405Y19002D01*
X1667391Y19016D01*
X1667381Y19033D01*
X1667302Y19100D01*
X1667227Y19172D01*
X1667209Y19180D01*
X1667194Y19193D01*
X1667097Y19232D01*
X1667004Y19275D01*
X1666984Y19277D01*
X1666966Y19285D01*
X1666799Y19303D01*
X1178001Y19303D01*
X1177981Y19300D01*
X1177962Y19302D01*
X1177860Y19280D01*
X1177758Y19264D01*
X1177741Y19254D01*
X1177721Y19250D01*
X1177632Y19197D01*
X1177541Y19148D01*
X1177527Y19134D01*
X1177510Y19124D01*
X1177443Y19045D01*
X1177372Y18970D01*
X1177363Y18952D01*
X1177350Y18937D01*
X1177312Y18841D01*
X1177268Y18747D01*
X1177266Y18727D01*
X1177258Y18709D01*
X1177240Y18542D01*
X1177240Y16916D01*
X1169162Y16916D01*
X1169142Y16912D01*
X1169123Y16915D01*
X1169021Y16893D01*
X1168919Y16876D01*
X1168902Y16867D01*
X1168882Y16862D01*
X1168793Y16809D01*
X1168702Y16761D01*
X1168688Y16746D01*
X1168671Y16736D01*
X1168604Y16657D01*
X1168533Y16582D01*
X1168524Y16564D01*
X1168511Y16549D01*
X1168472Y16453D01*
X1168429Y16359D01*
X1168427Y16340D01*
X1168419Y16321D01*
X1168401Y16154D01*
X1168401Y15392D01*
X1168399Y15392D01*
X1168399Y16154D01*
X1168396Y16174D01*
X1168398Y16194D01*
X1168376Y16295D01*
X1168359Y16397D01*
X1168350Y16415D01*
X1168346Y16434D01*
X1168293Y16523D01*
X1168244Y16614D01*
X1168230Y16628D01*
X1168220Y16645D01*
X1168141Y16713D01*
X1168066Y16784D01*
X1168048Y16792D01*
X1168033Y16805D01*
X1167937Y16844D01*
X1167843Y16887D01*
X1167823Y16890D01*
X1167805Y16897D01*
X1167638Y16916D01*
X1159560Y16916D01*
X1159560Y18542D01*
X1159557Y18562D01*
X1159559Y18581D01*
X1159537Y18683D01*
X1159520Y18785D01*
X1159511Y18802D01*
X1159507Y18822D01*
X1159454Y18911D01*
X1159405Y19002D01*
X1159391Y19016D01*
X1159381Y19033D01*
X1159302Y19100D01*
X1159227Y19172D01*
X1159209Y19180D01*
X1159194Y19193D01*
X1159097Y19232D01*
X1159004Y19275D01*
X1158984Y19277D01*
X1158966Y19285D01*
X1158799Y19303D01*
X670001Y19303D01*
X669981Y19300D01*
X669962Y19302D01*
X669860Y19280D01*
X669758Y19264D01*
X669741Y19254D01*
X669721Y19250D01*
X669632Y19197D01*
X669541Y19148D01*
X669527Y19134D01*
X669510Y19124D01*
X669443Y19045D01*
X669372Y18970D01*
X669363Y18952D01*
X669350Y18937D01*
X669312Y18841D01*
X669268Y18747D01*
X669266Y18727D01*
X669258Y18709D01*
X669240Y18542D01*
X669240Y16916D01*
X661162Y16916D01*
X661142Y16912D01*
X661123Y16915D01*
X661021Y16893D01*
X660919Y16876D01*
X660902Y16867D01*
X660882Y16862D01*
X660793Y16809D01*
X660702Y16761D01*
X660688Y16746D01*
X660671Y16736D01*
X660604Y16657D01*
X660533Y16582D01*
X660524Y16564D01*
X660511Y16549D01*
X660472Y16453D01*
X660429Y16359D01*
X660427Y16340D01*
X660419Y16321D01*
X660401Y16154D01*
X660401Y15392D01*
X660399Y15392D01*
X660399Y16154D01*
X660396Y16174D01*
X660398Y16194D01*
X660376Y16295D01*
X660359Y16397D01*
X660350Y16415D01*
X660346Y16434D01*
X660293Y16523D01*
X660244Y16614D01*
X660230Y16628D01*
X660220Y16645D01*
X660141Y16713D01*
X660066Y16784D01*
X660048Y16792D01*
X660033Y16805D01*
X659937Y16844D01*
X659843Y16887D01*
X659823Y16890D01*
X659805Y16897D01*
X659638Y16916D01*
X651560Y16916D01*
X651560Y18542D01*
X651557Y18562D01*
X651559Y18581D01*
X651537Y18683D01*
X651520Y18785D01*
X651511Y18802D01*
X651507Y18822D01*
X651454Y18911D01*
X651405Y19002D01*
X651391Y19016D01*
X651381Y19033D01*
X651302Y19100D01*
X651227Y19172D01*
X651209Y19180D01*
X651194Y19193D01*
X651097Y19232D01*
X651004Y19275D01*
X650984Y19277D01*
X650966Y19285D01*
X650799Y19303D01*
X388239Y19303D01*
X388125Y19284D01*
X388008Y19267D01*
X388003Y19265D01*
X387997Y19264D01*
X387894Y19209D01*
X387789Y19156D01*
X387785Y19151D01*
X387779Y19148D01*
X387699Y19064D01*
X387617Y18980D01*
X387613Y18974D01*
X387610Y18970D01*
X387602Y18953D01*
X387536Y18833D01*
X386820Y17104D01*
X383962Y14246D01*
X380227Y12699D01*
X376185Y12699D01*
G37*
%LPD*%
%LPC*%
G36*
X274585Y12699D02*
X274585Y12699D01*
X270850Y14246D01*
X267992Y17104D01*
X266445Y20839D01*
X266445Y41137D01*
X267992Y44872D01*
X270850Y47730D01*
X274585Y49277D01*
X278627Y49277D01*
X282362Y47730D01*
X283005Y47086D01*
X283022Y47074D01*
X283034Y47059D01*
X283121Y47003D01*
X283205Y46943D01*
X283224Y46937D01*
X283241Y46926D01*
X283341Y46901D01*
X283440Y46870D01*
X283460Y46871D01*
X283479Y46866D01*
X283582Y46874D01*
X283686Y46877D01*
X283705Y46883D01*
X283725Y46885D01*
X283819Y46925D01*
X283917Y46961D01*
X283933Y46973D01*
X283951Y46981D01*
X284082Y47086D01*
X305664Y68669D01*
X307905Y69597D01*
X394913Y69597D01*
X397154Y68669D01*
X408702Y57120D01*
X408776Y57067D01*
X408846Y57007D01*
X408876Y56995D01*
X408902Y56976D01*
X408989Y56949D01*
X409074Y56915D01*
X409115Y56911D01*
X409137Y56904D01*
X409169Y56905D01*
X409241Y56897D01*
X1055313Y56897D01*
X1055326Y56891D01*
X1055390Y56876D01*
X1055451Y56852D01*
X1055534Y56843D01*
X1055566Y56835D01*
X1055585Y56837D01*
X1055617Y56833D01*
X1061241Y56833D01*
X1062432Y55643D01*
X1062432Y46558D01*
X1062450Y46444D01*
X1062467Y46331D01*
X1062471Y46321D01*
X1062472Y46315D01*
X1062482Y46295D01*
X1062534Y46177D01*
X1062767Y45774D01*
X1062940Y45127D01*
X1062940Y42316D01*
X1054862Y42316D01*
X1054842Y42312D01*
X1054823Y42315D01*
X1054721Y42293D01*
X1054619Y42276D01*
X1054602Y42267D01*
X1054582Y42262D01*
X1054493Y42209D01*
X1054402Y42161D01*
X1054388Y42146D01*
X1054371Y42136D01*
X1054304Y42057D01*
X1054233Y41982D01*
X1054224Y41964D01*
X1054211Y41949D01*
X1054172Y41853D01*
X1054129Y41759D01*
X1054127Y41740D01*
X1054119Y41721D01*
X1054101Y41554D01*
X1054101Y40792D01*
X1054099Y40792D01*
X1054099Y41554D01*
X1054096Y41574D01*
X1054098Y41594D01*
X1054076Y41695D01*
X1054059Y41797D01*
X1054050Y41815D01*
X1054046Y41834D01*
X1053993Y41923D01*
X1053944Y42014D01*
X1053930Y42028D01*
X1053920Y42045D01*
X1053841Y42113D01*
X1053766Y42184D01*
X1053748Y42192D01*
X1053733Y42205D01*
X1053637Y42244D01*
X1053543Y42287D01*
X1053523Y42290D01*
X1053505Y42297D01*
X1053338Y42316D01*
X1045260Y42316D01*
X1045260Y43942D01*
X1045257Y43962D01*
X1045259Y43981D01*
X1045237Y44083D01*
X1045220Y44185D01*
X1045211Y44202D01*
X1045207Y44222D01*
X1045154Y44311D01*
X1045105Y44402D01*
X1045091Y44416D01*
X1045081Y44433D01*
X1045002Y44500D01*
X1044927Y44572D01*
X1044909Y44580D01*
X1044894Y44593D01*
X1044797Y44632D01*
X1044704Y44675D01*
X1044684Y44677D01*
X1044666Y44685D01*
X1044499Y44703D01*
X936701Y44703D01*
X936681Y44700D01*
X936662Y44702D01*
X936560Y44680D01*
X936458Y44664D01*
X936441Y44654D01*
X936421Y44650D01*
X936332Y44597D01*
X936241Y44548D01*
X936227Y44534D01*
X936210Y44524D01*
X936143Y44445D01*
X936072Y44370D01*
X936063Y44352D01*
X936050Y44337D01*
X936012Y44241D01*
X935968Y44147D01*
X935966Y44127D01*
X935958Y44109D01*
X935940Y43942D01*
X935940Y42316D01*
X927862Y42316D01*
X927842Y42312D01*
X927823Y42315D01*
X927721Y42293D01*
X927619Y42276D01*
X927602Y42267D01*
X927582Y42262D01*
X927493Y42209D01*
X927402Y42161D01*
X927388Y42146D01*
X927371Y42136D01*
X927304Y42057D01*
X927233Y41982D01*
X927224Y41964D01*
X927211Y41949D01*
X927172Y41853D01*
X927129Y41759D01*
X927127Y41740D01*
X927119Y41721D01*
X927101Y41554D01*
X927101Y40792D01*
X927099Y40792D01*
X927099Y41554D01*
X927096Y41574D01*
X927098Y41594D01*
X927076Y41695D01*
X927059Y41797D01*
X927050Y41815D01*
X927046Y41834D01*
X926993Y41923D01*
X926944Y42014D01*
X926930Y42028D01*
X926920Y42045D01*
X926841Y42113D01*
X926766Y42184D01*
X926748Y42192D01*
X926733Y42205D01*
X926637Y42244D01*
X926543Y42287D01*
X926523Y42290D01*
X926505Y42297D01*
X926338Y42316D01*
X918260Y42316D01*
X918260Y43942D01*
X918257Y43962D01*
X918259Y43981D01*
X918237Y44083D01*
X918220Y44185D01*
X918211Y44202D01*
X918207Y44222D01*
X918154Y44311D01*
X918105Y44402D01*
X918091Y44416D01*
X918081Y44433D01*
X918002Y44500D01*
X917927Y44572D01*
X917909Y44580D01*
X917894Y44593D01*
X917797Y44632D01*
X917704Y44675D01*
X917684Y44677D01*
X917666Y44685D01*
X917499Y44703D01*
X809701Y44703D01*
X809681Y44700D01*
X809662Y44702D01*
X809560Y44680D01*
X809458Y44664D01*
X809441Y44654D01*
X809421Y44650D01*
X809332Y44597D01*
X809241Y44548D01*
X809227Y44534D01*
X809210Y44524D01*
X809143Y44445D01*
X809072Y44370D01*
X809063Y44352D01*
X809050Y44337D01*
X809012Y44241D01*
X808968Y44147D01*
X808966Y44127D01*
X808958Y44109D01*
X808940Y43942D01*
X808940Y42316D01*
X800862Y42316D01*
X800842Y42312D01*
X800823Y42315D01*
X800721Y42293D01*
X800619Y42276D01*
X800602Y42267D01*
X800582Y42262D01*
X800493Y42209D01*
X800402Y42161D01*
X800388Y42146D01*
X800371Y42136D01*
X800304Y42057D01*
X800233Y41982D01*
X800224Y41964D01*
X800211Y41949D01*
X800172Y41853D01*
X800129Y41759D01*
X800127Y41740D01*
X800119Y41721D01*
X800101Y41554D01*
X800101Y40792D01*
X800099Y40792D01*
X800099Y41554D01*
X800096Y41574D01*
X800098Y41594D01*
X800076Y41695D01*
X800059Y41797D01*
X800050Y41815D01*
X800046Y41834D01*
X799993Y41923D01*
X799944Y42014D01*
X799930Y42028D01*
X799920Y42045D01*
X799841Y42113D01*
X799766Y42184D01*
X799748Y42192D01*
X799733Y42205D01*
X799637Y42244D01*
X799543Y42287D01*
X799523Y42290D01*
X799505Y42297D01*
X799338Y42316D01*
X791260Y42316D01*
X791260Y43942D01*
X791257Y43962D01*
X791259Y43981D01*
X791237Y44083D01*
X791220Y44185D01*
X791211Y44202D01*
X791207Y44222D01*
X791154Y44311D01*
X791105Y44402D01*
X791091Y44416D01*
X791081Y44433D01*
X791002Y44500D01*
X790927Y44572D01*
X790909Y44580D01*
X790894Y44593D01*
X790797Y44632D01*
X790704Y44675D01*
X790684Y44677D01*
X790666Y44685D01*
X790499Y44703D01*
X682701Y44703D01*
X682681Y44700D01*
X682662Y44702D01*
X682560Y44680D01*
X682458Y44664D01*
X682441Y44654D01*
X682421Y44650D01*
X682332Y44597D01*
X682241Y44548D01*
X682227Y44534D01*
X682210Y44524D01*
X682143Y44445D01*
X682072Y44370D01*
X682063Y44352D01*
X682050Y44337D01*
X682012Y44241D01*
X681968Y44147D01*
X681966Y44127D01*
X681958Y44109D01*
X681940Y43942D01*
X681940Y42316D01*
X673862Y42316D01*
X673842Y42312D01*
X673823Y42315D01*
X673721Y42293D01*
X673619Y42276D01*
X673602Y42267D01*
X673582Y42262D01*
X673493Y42209D01*
X673402Y42161D01*
X673388Y42146D01*
X673371Y42136D01*
X673304Y42057D01*
X673233Y41982D01*
X673224Y41964D01*
X673211Y41949D01*
X673172Y41853D01*
X673129Y41759D01*
X673127Y41740D01*
X673119Y41721D01*
X673101Y41554D01*
X673101Y40792D01*
X673099Y40792D01*
X673099Y41554D01*
X673096Y41574D01*
X673098Y41594D01*
X673076Y41695D01*
X673059Y41797D01*
X673050Y41815D01*
X673046Y41834D01*
X672993Y41923D01*
X672944Y42014D01*
X672930Y42028D01*
X672920Y42045D01*
X672841Y42113D01*
X672766Y42184D01*
X672748Y42192D01*
X672733Y42205D01*
X672637Y42244D01*
X672543Y42287D01*
X672523Y42290D01*
X672505Y42297D01*
X672338Y42316D01*
X664260Y42316D01*
X664260Y43942D01*
X664257Y43962D01*
X664259Y43981D01*
X664237Y44083D01*
X664220Y44185D01*
X664211Y44202D01*
X664207Y44222D01*
X664154Y44311D01*
X664105Y44402D01*
X664091Y44416D01*
X664081Y44433D01*
X664002Y44500D01*
X663927Y44572D01*
X663909Y44580D01*
X663894Y44593D01*
X663797Y44632D01*
X663704Y44675D01*
X663684Y44677D01*
X663666Y44685D01*
X663499Y44703D01*
X405187Y44703D01*
X402946Y45631D01*
X391398Y57180D01*
X391324Y57233D01*
X391254Y57293D01*
X391224Y57305D01*
X391198Y57324D01*
X391111Y57351D01*
X391026Y57385D01*
X390985Y57389D01*
X390963Y57396D01*
X390931Y57395D01*
X390859Y57403D01*
X311959Y57403D01*
X311869Y57389D01*
X311778Y57381D01*
X311748Y57369D01*
X311716Y57364D01*
X311635Y57321D01*
X311551Y57285D01*
X311519Y57259D01*
X311499Y57248D01*
X311476Y57225D01*
X311420Y57180D01*
X286990Y32750D01*
X286937Y32676D01*
X286877Y32606D01*
X286865Y32576D01*
X286846Y32550D01*
X286819Y32463D01*
X286785Y32378D01*
X286781Y32337D01*
X286774Y32315D01*
X286775Y32283D01*
X286767Y32211D01*
X286767Y20839D01*
X285220Y17104D01*
X282362Y14246D01*
X278627Y12699D01*
X274585Y12699D01*
G37*
%LPD*%
%LPC*%
G36*
X330973Y77723D02*
X330973Y77723D01*
X327238Y79270D01*
X324380Y82128D01*
X322833Y85863D01*
X322833Y106161D01*
X324380Y109896D01*
X327238Y112754D01*
X330973Y114301D01*
X335015Y114301D01*
X338750Y112754D01*
X341608Y109896D01*
X343155Y106161D01*
X343155Y85863D01*
X341608Y82128D01*
X338750Y79270D01*
X335015Y77723D01*
X330973Y77723D01*
G37*
%LPD*%
%LPC*%
G36*
X127773Y12699D02*
X127773Y12699D01*
X124038Y14246D01*
X121180Y17104D01*
X119633Y20839D01*
X119633Y41137D01*
X121180Y44872D01*
X124038Y47730D01*
X127773Y49277D01*
X131815Y49277D01*
X135550Y47730D01*
X138408Y44872D01*
X139955Y41137D01*
X139955Y20839D01*
X138408Y17104D01*
X135550Y14246D01*
X131815Y12699D01*
X127773Y12699D01*
G37*
%LPD*%
%LPC*%
G36*
X229373Y12699D02*
X229373Y12699D01*
X225638Y14246D01*
X222780Y17104D01*
X221233Y20839D01*
X221233Y41137D01*
X222780Y44872D01*
X225638Y47730D01*
X229373Y49277D01*
X233415Y49277D01*
X237150Y47730D01*
X240008Y44872D01*
X241555Y41137D01*
X241555Y20839D01*
X240008Y17104D01*
X237150Y14246D01*
X233415Y12699D01*
X229373Y12699D01*
G37*
%LPD*%
%LPC*%
G36*
X330973Y12699D02*
X330973Y12699D01*
X327238Y14246D01*
X324380Y17104D01*
X322833Y20839D01*
X322833Y41137D01*
X324380Y44872D01*
X327238Y47730D01*
X330973Y49277D01*
X335015Y49277D01*
X338750Y47730D01*
X341608Y44872D01*
X343155Y41137D01*
X343155Y20839D01*
X341608Y17104D01*
X338750Y14246D01*
X335015Y12699D01*
X330973Y12699D01*
G37*
%LPD*%
%LPC*%
G36*
X274585Y77723D02*
X274585Y77723D01*
X270850Y79270D01*
X267992Y82128D01*
X266445Y85863D01*
X266445Y106161D01*
X267992Y109896D01*
X270850Y112754D01*
X274585Y114301D01*
X278627Y114301D01*
X282362Y112754D01*
X285220Y109896D01*
X286767Y106161D01*
X286767Y85863D01*
X285220Y82128D01*
X282362Y79270D01*
X278627Y77723D01*
X274585Y77723D01*
G37*
%LPD*%
%LPC*%
G36*
X229373Y77723D02*
X229373Y77723D01*
X225638Y79270D01*
X222780Y82128D01*
X221233Y85863D01*
X221233Y106161D01*
X222780Y109896D01*
X225638Y112754D01*
X229373Y114301D01*
X233415Y114301D01*
X237150Y112754D01*
X240008Y109896D01*
X241555Y106161D01*
X241555Y85863D01*
X240008Y82128D01*
X237150Y79270D01*
X233415Y77723D01*
X229373Y77723D01*
G37*
%LPD*%
%LPC*%
G36*
X127773Y77723D02*
X127773Y77723D01*
X124038Y79270D01*
X121180Y82128D01*
X119633Y85863D01*
X119633Y106161D01*
X121180Y109896D01*
X124038Y112754D01*
X127773Y114301D01*
X131815Y114301D01*
X135550Y112754D01*
X138408Y109896D01*
X139955Y106161D01*
X139955Y85863D01*
X138408Y82128D01*
X135550Y79270D01*
X131815Y77723D01*
X127773Y77723D01*
G37*
%LPD*%
%LPC*%
G36*
X52323Y65023D02*
X52323Y65023D01*
X52323Y93346D01*
X52476Y93346D01*
X55807Y92970D01*
X57252Y92641D01*
X59075Y92224D01*
X62239Y91117D01*
X65260Y89663D01*
X68098Y87879D01*
X70719Y85789D01*
X73089Y83419D01*
X75179Y80798D01*
X76963Y77960D01*
X78417Y74939D01*
X79524Y71775D01*
X80270Y68507D01*
X80646Y65176D01*
X80646Y65023D01*
X52323Y65023D01*
G37*
%LPD*%
%LPC*%
G36*
X52323Y33654D02*
X52323Y33654D01*
X52323Y61977D01*
X80646Y61977D01*
X80646Y61824D01*
X80270Y58493D01*
X79524Y55225D01*
X78417Y52061D01*
X76963Y49040D01*
X75179Y46202D01*
X73089Y43581D01*
X70719Y41211D01*
X68098Y39121D01*
X65260Y37337D01*
X62239Y35883D01*
X59075Y34776D01*
X55807Y34030D01*
X52476Y33654D01*
X52323Y33654D01*
G37*
%LPD*%
%LPC*%
G36*
X20954Y65023D02*
X20954Y65023D01*
X20954Y65176D01*
X21330Y68507D01*
X22076Y71775D01*
X23183Y74939D01*
X24637Y77960D01*
X26421Y80798D01*
X28511Y83419D01*
X30881Y85789D01*
X33502Y87879D01*
X36340Y89663D01*
X39361Y91117D01*
X42525Y92224D01*
X45793Y92970D01*
X49124Y93346D01*
X49277Y93346D01*
X49277Y65023D01*
X20954Y65023D01*
G37*
%LPD*%
%LPC*%
G36*
X49124Y33654D02*
X49124Y33654D01*
X45793Y34030D01*
X42642Y34749D01*
X42525Y34776D01*
X39361Y35883D01*
X36340Y37337D01*
X33502Y39121D01*
X30881Y41211D01*
X28511Y43581D01*
X26421Y46202D01*
X24637Y49040D01*
X23183Y52061D01*
X22076Y55225D01*
X21330Y58493D01*
X20954Y61824D01*
X20954Y61977D01*
X49277Y61977D01*
X49277Y33654D01*
X49124Y33654D01*
G37*
%LPD*%
%LPC*%
G36*
X1233423Y59651D02*
X1233423Y59651D01*
X1233423Y64669D01*
X1240740Y64669D01*
X1240740Y61857D01*
X1240567Y61211D01*
X1240232Y60632D01*
X1239759Y60159D01*
X1239180Y59824D01*
X1238534Y59651D01*
X1233423Y59651D01*
G37*
%LPD*%
%LPC*%
G36*
X1169923Y8851D02*
X1169923Y8851D01*
X1169923Y13869D01*
X1177240Y13869D01*
X1177240Y11057D01*
X1177067Y10411D01*
X1176732Y9832D01*
X1176259Y9359D01*
X1175680Y9024D01*
X1175034Y8851D01*
X1169923Y8851D01*
G37*
%LPD*%
%LPC*%
G36*
X2185923Y8851D02*
X2185923Y8851D01*
X2185923Y13869D01*
X2193240Y13869D01*
X2193240Y11057D01*
X2193067Y10411D01*
X2192732Y9832D01*
X2192259Y9359D01*
X2191680Y9024D01*
X2191034Y8851D01*
X2185923Y8851D01*
G37*
%LPD*%
%LPC*%
G36*
X1677923Y8851D02*
X1677923Y8851D01*
X1677923Y13869D01*
X1685240Y13869D01*
X1685240Y11057D01*
X1685067Y10411D01*
X1684732Y9832D01*
X1684259Y9359D01*
X1683680Y9024D01*
X1683034Y8851D01*
X1677923Y8851D01*
G37*
%LPD*%
%LPC*%
G36*
X674623Y34251D02*
X674623Y34251D01*
X674623Y39269D01*
X681940Y39269D01*
X681940Y36457D01*
X681767Y35811D01*
X681432Y35232D01*
X680959Y34759D01*
X680380Y34424D01*
X679734Y34251D01*
X674623Y34251D01*
G37*
%LPD*%
%LPC*%
G36*
X1042923Y59651D02*
X1042923Y59651D01*
X1042923Y64669D01*
X1050240Y64669D01*
X1050240Y61857D01*
X1050067Y61211D01*
X1049732Y60632D01*
X1049259Y60159D01*
X1048680Y59824D01*
X1048034Y59651D01*
X1042923Y59651D01*
G37*
%LPD*%
%LPC*%
G36*
X801623Y34251D02*
X801623Y34251D01*
X801623Y39269D01*
X808940Y39269D01*
X808940Y36457D01*
X808767Y35811D01*
X808432Y35232D01*
X807959Y34759D01*
X807380Y34424D01*
X806734Y34251D01*
X801623Y34251D01*
G37*
%LPD*%
%LPC*%
G36*
X928623Y34251D02*
X928623Y34251D01*
X928623Y39269D01*
X935940Y39269D01*
X935940Y36457D01*
X935767Y35811D01*
X935432Y35232D01*
X934959Y34759D01*
X934380Y34424D01*
X933734Y34251D01*
X928623Y34251D01*
G37*
%LPD*%
%LPC*%
G36*
X1055623Y34251D02*
X1055623Y34251D01*
X1055623Y39269D01*
X1062940Y39269D01*
X1062940Y36457D01*
X1062767Y35811D01*
X1062432Y35232D01*
X1061959Y34759D01*
X1061380Y34424D01*
X1060734Y34251D01*
X1055623Y34251D01*
G37*
%LPD*%
%LPC*%
G36*
X661923Y59651D02*
X661923Y59651D01*
X661923Y64669D01*
X669240Y64669D01*
X669240Y61857D01*
X669067Y61211D01*
X668732Y60632D01*
X668259Y60159D01*
X667680Y59824D01*
X667034Y59651D01*
X661923Y59651D01*
G37*
%LPD*%
%LPC*%
G36*
X661923Y8851D02*
X661923Y8851D01*
X661923Y13869D01*
X669240Y13869D01*
X669240Y11057D01*
X669067Y10411D01*
X668732Y9832D01*
X668259Y9359D01*
X667680Y9024D01*
X667034Y8851D01*
X661923Y8851D01*
G37*
%LPD*%
%LPC*%
G36*
X852423Y59651D02*
X852423Y59651D01*
X852423Y64669D01*
X859740Y64669D01*
X859740Y61857D01*
X859567Y61211D01*
X859232Y60632D01*
X858759Y60159D01*
X858180Y59824D01*
X857534Y59651D01*
X852423Y59651D01*
G37*
%LPD*%
%LPC*%
G36*
X2177766Y8851D02*
X2177766Y8851D01*
X2177120Y9024D01*
X2176541Y9359D01*
X2176068Y9832D01*
X2175733Y10411D01*
X2175560Y11057D01*
X2175560Y13869D01*
X2182877Y13869D01*
X2182877Y8851D01*
X2177766Y8851D01*
G37*
%LPD*%
%LPC*%
G36*
X1161766Y8851D02*
X1161766Y8851D01*
X1161120Y9024D01*
X1160541Y9359D01*
X1160068Y9832D01*
X1159733Y10411D01*
X1159560Y11057D01*
X1159560Y13869D01*
X1166877Y13869D01*
X1166877Y8851D01*
X1161766Y8851D01*
G37*
%LPD*%
%LPC*%
G36*
X653766Y8851D02*
X653766Y8851D01*
X653120Y9024D01*
X652541Y9359D01*
X652068Y9832D01*
X651733Y10411D01*
X651560Y11057D01*
X651560Y13869D01*
X658877Y13869D01*
X658877Y8851D01*
X653766Y8851D01*
G37*
%LPD*%
%LPC*%
G36*
X1669766Y8851D02*
X1669766Y8851D01*
X1669120Y9024D01*
X1668541Y9359D01*
X1668068Y9832D01*
X1667733Y10411D01*
X1667560Y11057D01*
X1667560Y13869D01*
X1674877Y13869D01*
X1674877Y8851D01*
X1669766Y8851D01*
G37*
%LPD*%
%LPC*%
G36*
X666466Y34251D02*
X666466Y34251D01*
X665820Y34424D01*
X665241Y34759D01*
X664768Y35232D01*
X664433Y35811D01*
X664260Y36457D01*
X664260Y39269D01*
X671577Y39269D01*
X671577Y34251D01*
X666466Y34251D01*
G37*
%LPD*%
%LPC*%
G36*
X793466Y34251D02*
X793466Y34251D01*
X792820Y34424D01*
X792241Y34759D01*
X791768Y35232D01*
X791433Y35811D01*
X791260Y36457D01*
X791260Y39269D01*
X798577Y39269D01*
X798577Y34251D01*
X793466Y34251D01*
G37*
%LPD*%
%LPC*%
G36*
X920466Y34251D02*
X920466Y34251D01*
X919820Y34424D01*
X919241Y34759D01*
X918768Y35232D01*
X918433Y35811D01*
X918260Y36457D01*
X918260Y39269D01*
X925577Y39269D01*
X925577Y34251D01*
X920466Y34251D01*
G37*
%LPD*%
%LPC*%
G36*
X1047466Y34251D02*
X1047466Y34251D01*
X1046820Y34424D01*
X1046241Y34759D01*
X1045768Y35232D01*
X1045433Y35811D01*
X1045260Y36457D01*
X1045260Y39269D01*
X1052577Y39269D01*
X1052577Y34251D01*
X1047466Y34251D01*
G37*
%LPD*%
%LPC*%
G36*
X1225266Y59651D02*
X1225266Y59651D01*
X1224620Y59824D01*
X1224041Y60159D01*
X1223568Y60632D01*
X1223233Y61211D01*
X1223060Y61857D01*
X1223060Y64669D01*
X1230377Y64669D01*
X1230377Y59651D01*
X1225266Y59651D01*
G37*
%LPD*%
%LPC*%
G36*
X1034766Y59651D02*
X1034766Y59651D01*
X1034120Y59824D01*
X1033541Y60159D01*
X1033068Y60632D01*
X1032733Y61211D01*
X1032560Y61857D01*
X1032560Y64669D01*
X1039877Y64669D01*
X1039877Y59651D01*
X1034766Y59651D01*
G37*
%LPD*%
%LPC*%
G36*
X844266Y59651D02*
X844266Y59651D01*
X843620Y59824D01*
X843041Y60159D01*
X842568Y60632D01*
X842233Y61211D01*
X842060Y61857D01*
X842060Y64669D01*
X849377Y64669D01*
X849377Y59651D01*
X844266Y59651D01*
G37*
%LPD*%
%LPC*%
G36*
X653766Y59651D02*
X653766Y59651D01*
X653120Y59824D01*
X652541Y60159D01*
X652068Y60632D01*
X651733Y61211D01*
X651560Y61857D01*
X651560Y64669D01*
X658877Y64669D01*
X658877Y59651D01*
X653766Y59651D01*
G37*
%LPD*%
%LPC*%
G36*
X50799Y63499D02*
X50799Y63499D01*
X50799Y63501D01*
X50801Y63501D01*
X50801Y63499D01*
X50799Y63499D01*
G37*
%LPD*%
D10*
X660400Y25400D03*
X660400Y15392D03*
X800100Y50800D03*
X800100Y40792D03*
X927100Y50800D03*
X927100Y40792D03*
X1054100Y50800D03*
X1054100Y40792D03*
X660400Y76200D03*
X660400Y66192D03*
X850900Y76200D03*
X850900Y66192D03*
X1041400Y76200D03*
X1041400Y66192D03*
X1231900Y76200D03*
X1231900Y66192D03*
X1168400Y25400D03*
X1168400Y15392D03*
X1676400Y25400D03*
X1676400Y15392D03*
X2184400Y25400D03*
X2184400Y15392D03*
X673100Y50800D03*
X673100Y40792D03*
D11*
X50800Y63500D03*
X50800Y203200D03*
D12*
X332994Y39116D02*
X332994Y22860D01*
X378206Y22860D02*
X378206Y39116D01*
X332994Y87884D02*
X332994Y104140D01*
X378206Y104140D02*
X378206Y87884D01*
X332994Y162560D02*
X332994Y178816D01*
X378206Y178816D02*
X378206Y162560D01*
X332994Y227584D02*
X332994Y243840D01*
X378206Y243840D02*
X378206Y227584D01*
X231394Y39116D02*
X231394Y22860D01*
X276606Y22860D02*
X276606Y39116D01*
X231394Y87884D02*
X231394Y104140D01*
X276606Y104140D02*
X276606Y87884D01*
X231394Y162560D02*
X231394Y178816D01*
X276606Y178816D02*
X276606Y162560D01*
X231394Y227584D02*
X231394Y243840D01*
X276606Y243840D02*
X276606Y227584D01*
X129794Y39116D02*
X129794Y22860D01*
X175006Y22860D02*
X175006Y39116D01*
X129794Y87884D02*
X129794Y104140D01*
X175006Y104140D02*
X175006Y87884D01*
X129794Y162560D02*
X129794Y178816D01*
X175006Y178816D02*
X175006Y162560D01*
X129794Y227584D02*
X129794Y243840D01*
X175006Y243840D02*
X175006Y227584D01*
D13*
X1892300Y50800D03*
X1515110Y10160D03*
X2070100Y63500D03*
X1244600Y12700D03*
X1168400Y38100D03*
X1143000Y63500D03*
X889000Y63500D03*
X889000Y38100D03*
X939800Y12700D03*
X584200Y38100D03*
X558800Y12700D03*
X533400Y63500D03*
D14*
X660400Y25400D02*
X383794Y25400D01*
X378206Y30988D01*
X660400Y25400D02*
X1168400Y25400D01*
X1676400Y25400D01*
X2184400Y25400D01*
X1054100Y50800D02*
X927100Y50800D01*
X800100Y50800D01*
X673100Y50800D01*
X406400Y50800D01*
X393700Y63500D01*
X309118Y63500D01*
X276606Y30988D01*
X1041400Y76200D02*
X1231900Y76200D01*
X1041400Y76200D02*
X850900Y76200D01*
X660400Y76200D01*
X406400Y76200D01*
X311912Y170688D02*
X276606Y170688D01*
X392430Y90170D02*
X406400Y76200D01*
X392430Y90170D02*
X392430Y110032D01*
X327102Y148336D02*
X318770Y156668D01*
X318770Y163830D01*
X311912Y170688D01*
X354126Y148336D02*
X392430Y110032D01*
X354126Y148336D02*
X327102Y148336D01*
D13*
X228600Y127000D03*
D14*
X203200Y101600D01*
X197612Y96012D01*
X175006Y73406D02*
X175006Y30988D01*
X189230Y87630D02*
X197612Y96012D01*
X189230Y87630D02*
X189230Y81992D01*
X180898Y73660D01*
X175260Y73660D01*
X175006Y73406D01*
M02*
