M48
;GenerationSoftware,Autodesk,EAGLE,9.3.0*%
;CreationDate,2019-09-28T01:28:52Z*%
FMAT,2
ICI,OFF
METRIC,TZ,000.000
T4C0.508
T3C1.016
T2C3.810
%
G90
M71
T2
X5080Y20320
X5080Y6350
T3
X23139Y23571
X33299Y23571
X37821Y23571
X23139Y3099
X27661Y3099
X23139Y9601
X27661Y9601
X23139Y17069
X27661Y17069
X33299Y17069
X27661Y23571
X12979Y3099
X17501Y3099
X12979Y9601
X17501Y9601
X12979Y17069
X17501Y17069
X12979Y23571
X17501Y23571
X37821Y9601
X33299Y9601
X37821Y3099
X33299Y3099
X37821Y17069
T4
X58420Y3810
X151511Y1016
X207010Y6350
X124460Y1270
X116840Y3810
X114300Y6350
X88900Y6350
X88900Y3810
X93980Y1270
X55880Y1270
X53340Y6350
X22860Y12700
X189230Y5080
M30